0
0 // LPub3D step custom colours
0 !COLOUR LPub3D_Fade_Yellow CODE 10014 VALUE #FAC80A EDGE #33333380 ALPHA 128
0 !COLOUR LPub3D_Fade_White CODE 10015 VALUE #F4F4F4 EDGE #33333380 ALPHA 128
0 !COLOUR LPub3D_Fade_Trans_Clear CODE 10047 VALUE #FCFCFC EDGE #C9C9C940 ALPHA 64
0 !COLOUR LPub3D_Fade_Red CODE 1004 VALUE #B40000 EDGE #33333380 ALPHA 128
0 !COLOUR LPub3D_Fade_Light_Grey CODE 1007 VALUE #8A928D EDGE #33333380 ALPHA 128
0 !COLOUR LPub3D_Fade_Black CODE 1000 VALUE #1B2A34 EDGE #80808080 ALPHA 128
0
0 !FADE 50
1 1000 20 0 20 1 0 0 0 1 0 0 0 1 75775.dat
1 1007 110 0 90 1 0 0 0 1 0 0 0 1 3030.dat
1 16 20 0 160 1 0 0 0 1 0 0 0 1 4655stk.dat
1 1004 30 0 200 1 0 0 0 1 0 0 0 1 28653.dat
1 10047 40 0 250 1 0 0 0 1 0 0 0 1 3002.dat
1 10015 35 0 305 1 0 0 0 1 0 0 0 1 3831.dat
1 10015 40 0 360 1 0 0 0 1 0 0 0 1 3021.dat
1 10015 30 0 440 1 0 0 0 1 0 0 0 1 u454p01-fade.dat
1 10014 30 0 510 1 0 0 0 1 0 0 0 1 3317.dat
0 !FADE
