0
0 // LPub3D step custom colours
0 !COLOUR LPub3D_Highlight_Yellow CODE 11014 VALUE #FAC80A EDGE #FFFFFF00 ALPHA 255
0 !COLOUR LPub3D_Highlight_White CODE 11015 VALUE #F4F4F4 EDGE #FFFFFF00 ALPHA 255
0 !COLOUR LPub3D_Highlight_Trans_Clear CODE 11047 VALUE #FCFCFC EDGE #FFFFFF00 ALPHA 128
0 !COLOUR LPub3D_Highlight_Red CODE 1104 VALUE #B40000 EDGE #FFFFFF00 ALPHA 255
0 !COLOUR LPub3D_Highlight_Light_Grey CODE 1107 VALUE #8A928D EDGE #FFFFFF00 ALPHA 255
0 !COLOUR LPub3D_Highlight_Black CODE 1100 VALUE #1B2A34 EDGE #FFFFFF00 ALPHA 255
0
0 !SILHOUETTE 1 #FFFFFF00
1 1100 20 0 20 1 0 0 0 1 0 0 0 1 75775.dat
1 1107 110 0 90 1 0 0 0 1 0 0 0 1 3030.dat
1 16 20 0 160 1 0 0 0 1 0 0 0 1 4655stk.dat
1 1104 30 0 200 1 0 0 0 1 0 0 0 1 28653.dat
1 11047 40 0 250 1 0 0 0 1 0 0 0 1 3002.dat
1 11015 35 0 305 1 0 0 0 1 0 0 0 1 3831.dat
1 11015 40 0 360 1 0 0 0 1 0 0 0 1 3021.dat
1 11015 30 0 440 1 0 0 0 1 0 0 0 1 u454p01-highlight.dat
1 11014 30 0 510 1 0 0 0 1 0 0 0 1 3317.dat
0 !SILHOUETTE
