1 25 0 0 0 0 0 1 0 -1 0 1 0 0 3021.dat
1 72 0 -8 30 0 0 1 0 -1 0 1 0 0 11203.dat
1 25 0 0 50 -1 0 0 0 -1 0 0 0 1 3795.dat
1 71 0 -8 0 -1 0 0 0 -1 0 0 0 1 3666.dat
1 14 40 -8 30 0 0 1 0 -1 0 1 0 0 10247.dat
1 14 -40 -8 30 0 0 1 0 -1 0 1 0 0 10247.dat
1 72 -40 -16 10 0 0 1 0 -1 0 1 0 0 11203.dat
1 72 40 -16 10 0 0 1 0 -1 0 1 0 0 11203.dat
1 25 -40 0 0 -1 0 0 0 -1 0 0 0 1 43723.dat
1 25 40 0 0 -1 0 0 0 -1 0 0 0 1 43722.dat
1 0 40 -18 50 0 0 -1 0 -1 0 -1 0 0 6628.dat
1 0 -40 -18 50 0 0 -1 0 -1 0 -1 0 0 6628.dat
