0
0 // LPub3D step custom colours
0 !COLOUR LPub3D_Highlight_Reddish_Brown CODE 11070 VALUE #5F3109 EDGE #FFFFFF00 ALPHA 255
0 !COLOUR LPub3D_Highlight_Light_Bluish_Grey CODE 11071 VALUE #969696 EDGE #FFFFFF00 ALPHA 255
0 !COLOUR LPub3D_Highlight_Black CODE 1100 VALUE #1B2A34 EDGE #FFFFFF00 ALPHA 255
0 !COLOUR LPub3D_Highlight_Dark_Bluish_Grey CODE 11072 VALUE #646464 EDGE #FFFFFF00 ALPHA 255
0
0 !SILHOUETTE 1 #FFFFFF00
1 11072 0 0 0 1 0 0 0 1 0 0 0 1 32000.dat
1 1100 10 10 -10 0 0 -1 0 1 0 1 0 0 2780.dat
1 11072 0 0 -20 1 0 0 0 1 0 0 0 1 32000.dat
1 11072 -10 10 -30 0 0 -1 0 1 0 1 0 0 87083.dat
1 11071 -10 10 -33 0.4 0.917 0 -0.917 0.4 0 0 0 1 32198.dat
1 11071 -10 10 -45 0.4 0.917 0 -0.917 0.4 0 0 0 1 32123a.dat
1 11071 -10 10 -80 0 0.917 0.4 0 0.4 -0.917 -1 0 0 32054.dat
1 11072 -28.33 2 -80 0.4 0 0.917 -0.917 0 0.4 0 -1 0 32523.dat
1 11070 0 0 -100 -1 0 0 0 1 0 0 0 -1 "75144 - submodel-059-highlight.ldr"
0 !SILHOUETTE
