0
0 // LPub3D step custom colours
0 !COLOUR LPub3D_Highlight_Blue CODE 1101 VALUE #1E5AA8 EDGE #FFFFFF00 ALPHA 255
0 !COLOUR LPub3D_Highlight_Black CODE 1100 VALUE #1B2A34 EDGE #FFFFFF00 ALPHA 255
0
0 !SILHOUETTE 1 #FFFFFF00
1 1100 0 0 0 0 1 0 0 0 1 1 0 0 32348.dat
1 1100 10 40 0 -1 0 0 0 0 1 0 1 0 2780.dat
1 1100 10 72 16 -1 0 0 0 0 1 0 1 0 2780.dat
1 1100 20 0 0 0 1 0 0 0 1 1 0 0 32348.dat
1 1101 30 0 0 -1 0 0 0 0 1 0 1 0 43093.dat
1 1101 30 96 48 -1 0 0 0 0.6 0.8 0 0.8 -0.6 43093.dat
1 1101 -10 96 48 1 0 0 0 0.8 0.6 0 -0.6 0.8 43093.dat
1 1101 -10 0 0 1 0 0 0 1 0 0 0 1 43093.dat
1 1100 -20 -9.008 -17.856 0 1 0 -0.893 0 0.45 0.45 0 0.893 32523.dat
1 1100 40 -9.008 -17.856 0 1 0 -0.893 0 0.45 0.45 0 0.893 32523.dat
1 1100 40 -18.017 -35.713 -1 0 0 0 -0.893 0.45 0 0.45 0.893 32054.dat
1 1100 -20 -18.017 -35.713 1 0 0 0 0.893 0.45 0 -0.45 0.893 32054.dat
0 !SILHOUETTE
