0
0 // LPub3D step custom colours
0 !COLOUR LPub3D_Fade_Metallic_Silver CODE 10080 VALUE #767676 EDGE #33333380 ALPHA 128
0 !COLOUR LPub3D_Fade_Dark_Bluish_Grey CODE 10072 VALUE #646464 EDGE #33333380 ALPHA 128
0 !COLOUR LPub3D_Fade_Light_Bluish_Grey CODE 10071 VALUE #969696 EDGE #33333380 ALPHA 128
0 !COLOUR LPub3D_Fade_White CODE 10015 VALUE #F4F4F4 EDGE #33333380 ALPHA 128
0
0 !FADE 50
1 10015 0 0 0 0 0 1 0 1 0 -1 0 0 2419.dat
1 10015 10 -8 -20 0 0 1 0 1 0 -1 0 0 87079.dat
1 10015 -50 -8 -20 -1 0 0 0 1 0 0 0 -1 30503.dat
1 10015 -50 0 -50 -1 0 0 0 1 0 0 0 -1 2419.dat
1 10015 -30 -8 -70 -1 0 0 0 1 0 0 0 -1 6636.dat
1 10015 -30 8 -20 -1 0 0 0 1 0 0 0 -1 30503.dat
1 10071 -30 8 -70 1 0 0 0 1 0 0 0 1 "75144 - 14704.dat"
1 10072 -30 16 -60 1 0 0 0 1 0 0 0 1 11203.dat
1 10080 0 16 10 0 0 -1 0 1 0 1 0 0 93555.dat
1 10080 0 16 -10 0 0 -1 0 1 0 1 0 0 93555.dat
1 10080 0 16 -30 0 0 -1 0 1 0 1 0 0 93555.dat
0 !FADE
