0
0 // LPub3D step custom colours
0 !COLOUR LPub3D_Fade_Dark_Red CODE 100320 VALUE #720012 EDGE #33333380 ALPHA 128
0 !COLOUR LPub3D_Fade_Metallic_Silver CODE 10080 VALUE #767676 EDGE #33333380 ALPHA 128
0 !COLOUR LPub3D_Fade_Black CODE 1000 VALUE #1B2A34 EDGE #80808080 ALPHA 128
0 !COLOUR LPub3D_Fade_Dark_Bluish_Grey CODE 10072 VALUE #646464 EDGE #33333380 ALPHA 128
0
0 !FADE 50
1 10072 0 0 0 0 0 -1 0 1 0 1 0 0 87087.dat
1 1000 18 10 0 0 -1 0 1 0 0 0 0 1 3024.dat
1 10080 26 10 0 0 -1 0 1 0 0 0 0 1 6141.dat
1 100320 34 10 0 0 -1 0 1 0 0 0 0 1 98138.dat
0 !FADE
