0
0 // LPub3D step custom colours
0 !COLOUR LPub3D_Fade_Black CODE 1000 VALUE #1B2A34 EDGE #80808080 ALPHA 128
0 !COLOUR LPub3D_Fade_Light_Nougat CODE 10078 VALUE #FFC995 EDGE #33333380 ALPHA 128
0 !COLOUR LPub3D_Fade_White CODE 10015 VALUE #F4F4F4 EDGE #33333380 ALPHA 128
0 !COLOUR LPub3D_Fade_Orange CODE 10025 VALUE #D67923 EDGE #33333380 ALPHA 128
0
0 !FADE 50
1 10025 0 -32 -30 0 0 -1 0 1 0 1 0 0 973ps1-fade.dat
1 10015 0 -56 -30 0 0 -1 0 1 0 1 0 0 30370ps2-fade.dat
1 10078 0 -56 -30 0 0 -1 0 1 0 1 0 0 3626bp68-fade.dat
1 10025 0 -23 -14.448 -0.12 0.697 -0.707 -0.12 0.697 0.707 0.985 0.17 0 3819.dat
1 10025 0 -23 -45.552 0 0 -1 0.17 0.985 0 0.985 -0.17 0 3818.dat
1 10015 9.884 -5.24 -53.688 0 -0.707 -0.707 0.17 0.697 -0.697 0.985 -0.12 0.12 3820.dat
1 10015 19.547 -17.431 -6.312 -0.118 0.022 -0.993 0.122 0.993 0.007 0.985 -0.12 -0.12 3820.dat
1 10025 0 0 -30 0 0 -1 0 1 0 1 0 0 3815c01.dat
1 1000 29.923 -20.725 -4.66 -0.118 -0.227 -0.967 0.122 0.963 -0.242 0.985 -0.146 -0.086 "75144 - 92738.dat"
0 !FADE
