0
0 // LPub3D step custom colours
0 !COLOUR LPub3D_Fade_Reddish_Brown CODE 10070 VALUE #5F3109 EDGE #80808080 ALPHA 128
0 !COLOUR LPub3D_Fade_Light_Bluish_Grey CODE 10071 VALUE #969696 EDGE #33333380 ALPHA 128
0 !COLOUR LPub3D_Fade_Black CODE 1000 VALUE #1B2A34 EDGE #80808080 ALPHA 128
0 !COLOUR LPub3D_Fade_Dark_Bluish_Grey CODE 10072 VALUE #646464 EDGE #33333380 ALPHA 128
0
0 !FADE 50
1 10072 0 0 0 1 0 0 0 1 0 0 0 1 32000.dat
1 1000 -10 10 -10 0 0 -1 0 1 0 1 0 0 2780.dat
1 10072 0 0 -20 1 0 0 0 1 0 0 0 1 32000.dat
1 10072 10 10 -30 0 0 -1 0 1 0 1 0 0 87083.dat
1 10071 10 10 -33 1 0 0 0 1 0 0 0 1 32198.dat
1 10071 10 10 -45 1 0 0 0 1 0 0 0 1 32123a.dat
1 10071 10 10 -80 0 0 1 0 1 0 -1 0 0 32054.dat
1 10072 28.331 2.002 -80 0.4 0 0.917 0.917 0 -0.4 0 1 0 32523.dat
1 10070 0 0 -100 -1 0 0 0 1 0 0 0 -1 "75144 - submodel-080-fade.ldr"
0 !FADE
