1 72 0 0 0 1 0 0 0 1 0 0 0 1 3710.dat
1 72 0 -8 0 1 0 0 0 1 0 0 0 1 3710.dat
1 28 0 -32 0 1 0 0 0 1 0 0 0 1 30136.dat
1 15 30 -32 0 0 0 -1 0 1 0 1 0 0 87087.dat
1 15 -30 -32 0 0 0 1 0 1 0 -1 0 0 87087.dat
1 72 0 -40 0 1 0 0 0 1 0 0 0 1 3710.dat
1 72 0 -48 0 1 0 0 0 1 0 0 0 1 3710.dat
1 15 -30 -72 0 0 0 1 0 1 0 -1 0 0 87087.dat
1 28 0 -72 0 1 0 0 0 1 0 0 0 1 30136.dat
1 15 30 -72 0 0 0 -1 0 1 0 1 0 0 87087.dat
1 72 -20 -80 0 1 0 0 0 1 0 0 0 1 15573.dat
1 72 20 -80 0 1 0 0 0 1 0 0 0 1 15573.dat
1 72 48 -20 0 0 -1 0 -1 0 0 0 0 -1 75144 - subModel-031.ldr
1 72 -48 -20 0 0 1 0 -1 0 0 0 0 1 75144 - subModel-031.ldr
