0
0 // LPub3D step custom colours
0 !COLOUR LPub3D_Fade_Blue CODE 1001 VALUE #1E5AA8 EDGE #33333380 ALPHA 128
0 !COLOUR LPub3D_Fade_Black CODE 1000 VALUE #1B2A34 EDGE #80808080 ALPHA 128
0
0 !FADE 50
1 1000 0 0 0 0 1 0 0 0 1 1 0 0 32348.dat
1 1000 10 40 0 -1 0 0 0 0 1 0 1 0 2780.dat
1 1000 10 72 16 -1 0 0 0 0 1 0 1 0 2780.dat
1 1000 20 0 0 0 1 0 0 0 1 1 0 0 32348.dat
1 1001 30 0 0 -1 0 0 0 0 1 0 1 0 43093.dat
1 1001 30 96 48 -1 0 0 0 0.6 0.8 0 0.8 -0.6 43093.dat
1 1001 -10 96 48 1 0 0 0 0.8 0.6 0 -0.6 0.8 43093.dat
1 1001 -10 0 0 1 0 0 0 1 0 0 0 1 43093.dat
1 1000 -20 -9.008 -17.856 0 1 0 -0.893 0 0.45 0.45 0 0.893 32523.dat
1 1000 40 -9.008 -17.856 0 1 0 -0.893 0 0.45 0.45 0 0.893 32523.dat
1 1000 40 -18.017 -35.713 -1 0 0 0 -0.893 0.45 0 0.45 0.893 32054.dat
1 1000 -20 -18.017 -35.713 1 0 0 0 0.893 0.45 0 -0.45 0.893 32054.dat
0 !FADE
