0
0 // LPub3D step custom colours
0 !COLOUR LPub3D_Highlight_Light_Bluish_Grey CODE 11071 VALUE #969696 EDGE #FFFFFF00 ALPHA 255
0 !COLOUR LPub3D_Highlight_Dark_Bluish_Grey CODE 11072 VALUE #646464 EDGE #FFFFFF00 ALPHA 255
0 !COLOUR LPub3D_Highlight_Trans_Orange CODE 11057 VALUE #F08F1C EDGE #FFFFFF00 ALPHA 128
0
0 !SILHOUETTE 1 #FFFFFF00
1 11057 0 0 0 1 0 0 0 1 0 0 0 1 3023.dat
1 11072 0 -8 0 1 0 0 0 1 0 0 0 1 3023.dat
1 11071 0 -16 0 1 0 0 0 1 0 0 0 1 60471.dat
1 11072 0 -24 0 1 0 0 0 1 0 0 0 1 3023.dat
0 !SILHOUETTE
