1 25 0 -32 -30 0 0 -1 0 1 0 1 0 0 973ps1.dat
1 15 0 -56 -30 0 0 -1 0 1 0 1 0 0 30370ps2.dat
1 78 0 -56 -30 0 0 -1 0 1 0 1 0 0 3626bp68.dat
1 25 0 -23 -14.448 -0.12 0.697 -0.707 -0.12 0.697 0.707 0.985 0.17 0 3819.dat
1 25 0 -23 -45.552 0 0 -1 0.17 0.985 0 0.985 -0.17 0 3818.dat
1 15 9.884 -5.24 -53.688 0 -0.707 -0.707 0.17 0.697 -0.697 0.985 -0.12 0.12 3820.dat
1 15 19.547 -17.431 -6.312 -0.118 0.022 -0.993 0.122 0.993 0.007 0.985 -0.12 -0.12 3820.dat
1 25 0 0 -30 0 0 -1 0 1 0 1 0 0 3815c01.dat
1 0 29.923 -20.725 -4.66 -0.118 -0.227 -0.967 0.122 0.963 -0.242 0.985 -0.146 -0.086 75144 - 92738.dat
