1 0 0 0 0 0 1 0 0 0 1 1 0 0 32348.dat
1 0 10 40 0 -1 0 0 0 0 1 0 1 0 2780.dat
1 0 10 72 16 -1 0 0 0 0 1 0 1 0 2780.dat
1 0 20 0 0 0 1 0 0 0 1 1 0 0 32348.dat
1 1 30 0 0 -1 0 0 0 0 1 0 1 0 43093.dat
1 1 30 96 48 -1 0 0 0 0.6 0.8 0 0.8 -0.6 43093.dat
1 1 -10 96 48 1 0 0 0 0.8 0.6 0 -0.6 0.8 43093.dat
1 1 -10 0 0 1 0 0 0 1 0 0 0 1 43093.dat
1 0 -20 -9.008 -17.856 0 1 0 -0.893 0 0.45 0.45 0 0.893 32523.dat
1 0 40 -9.008 -17.856 0 1 0 -0.893 0 0.45 0.45 0 0.893 32523.dat
1 0 40 -18.017 -35.713 -1 0 0 0 -0.893 0.45 0 0.45 0.893 32054.dat
1 0 -20 -18.017 -35.713 1 0 0 0 0.893 0.45 0 -0.45 0.893 32054.dat
