1 72 0 0 0 1 0 0 0 1 0 0 0 1 3894.dat
1 1 -20 10 0 0 0 -1 0 1 0 1 0 0 6558.dat
1 1 20 10 0 0 0 -1 0 1 0 1 0 0 6558.dat
1 4 0 0 20 -1 0 0 0 1 0 0 0 -1 3701.dat
1 0 0 0 -90 0 0 1 0 1 0 -1 0 0 32532.dat
1 1 50 10 -130 -1 0 0 0 1 0 0 0 -1 6558.dat
1 1 -50 10 -130 1 0 0 0 -1 0 0 0 -1 6558.dat
1 0 60 10 -50 1 0 0 0 -1 0 0 0 -1 2780.dat
1 0 -60 10 -50 1 0 0 0 -1 0 0 0 -1 2780.dat
1 14 70 0 -70 0 0 1 0 1 0 -1 0 0 3702.dat
1 14 -70 0 -70 0 0 1 0 1 0 -1 0 0 3702.dat
1 15 -30 0 -130 0 0 1 0 1 0 -1 0 0 3700.dat
1 15 30 0 -130 0 0 1 0 1 0 -1 0 0 3700.dat
