0
0 // LPub3D step custom colours
0 !COLOUR LPub3D_Highlight_Light_Bluish_Grey CODE 11071 VALUE #969696 EDGE #FFFFFF00 ALPHA 255
0 !COLOUR LPub3D_Highlight_Tan CODE 11019 VALUE #B0A06F EDGE #FFFFFF00 ALPHA 255
0 !COLOUR LPub3D_Highlight_Yellow CODE 11014 VALUE #FAC80A EDGE #FFFFFF00 ALPHA 255
0 !COLOUR LPub3D_Highlight_Dark_Tan CODE 11028 VALUE #897D62 EDGE #FFFFFF00 ALPHA 255
0
0 !SILHOUETTE 1 #FFFFFF00
1 11028 0 0 0 0 -1 0 1 0 0 0 0 1 6587.dat
1 11014 0 23 0 1 0 0 0 0 1 0 -1 0 32123a.dat
1 11019 0 11 0 1 0 0 0 0 1 0 -1 0 6589.dat
1 11071 0 2 20 0 0 -1 0 1 0 1 0 0 32001.dat
0 !SILHOUETTE
