0
0 // LPub3D step custom colours
0 !COLOUR LPub3D_Fade_Light_Bluish_Grey CODE 10071 VALUE #969696 EDGE #33333380 ALPHA 128
0 !COLOUR LPub3D_Fade_Tan CODE 10019 VALUE #B0A06F EDGE #33333380 ALPHA 128
0 !COLOUR LPub3D_Fade_Yellow CODE 10014 VALUE #FAC80A EDGE #33333380 ALPHA 128
0 !COLOUR LPub3D_Fade_Dark_Tan CODE 10028 VALUE #897D62 EDGE #33333380 ALPHA 128
0
0 !FADE 50
1 10028 0 0 0 0 -1 0 1 0 0 0 0 1 6587.dat
1 10014 0 23 0 1 0 0 0 0 1 0 -1 0 32123a.dat
1 10019 0 11 0 1 0 0 0 0 1 0 -1 0 6589.dat
1 10071 0 2 20 0 0 -1 0 1 0 1 0 0 32001.dat
0 !FADE
