1 71 0 0 0 1 0 0 0 1 0 0 0 1 91988.dat
1 80 -120 -8 -10 1 0 0 0 1 0 0 0 1 32028.dat
1 80 -120 -8 10 -1 0 0 0 1 0 0 0 -1 32028.dat
1 80 120 -8 -10 1 0 0 0 1 0 0 0 1 32028.dat
1 80 120 -8 10 -1 0 0 0 1 0 0 0 -1 32028.dat
1 72 -80 -8 -80 0 0 -1 0 1 0 1 0 0 3832.dat
1 72 80 -8 -80 0 0 -1 0 1 0 1 0 0 3832.dat
1 71 0 0 -80 1 0 0 0 1 0 0 0 1 3033.dat
1 71 60 0 -160 1 0 0 0 1 0 0 0 1 3020.dat
1 71 -60 0 -160 1 0 0 0 1 0 0 0 1 3020.dat
1 80 -50 -8 10 1 0 0 0 1 0 0 0 1 6141.dat
1 80 50 -8 10 1 0 0 0 1 0 0 0 1 6141.dat
1 15 50 -8 -100 0 0 -1 0 1 0 1 0 0 4477.dat
1 15 -50 -8 -100 0 0 -1 0 1 0 1 0 0 4477.dat
1 1 -20 -8 -40 0 0 -1 0 1 0 1 0 0 3795.dat
1 1 20 -8 -40 0 0 -1 0 1 0 1 0 0 3795.dat
1 28 0 -8 -110 -1 0 0 0 1 0 0 0 -1 3710.dat
1 14 0 -8 -160 1 0 0 0 1 0 0 0 1 64799.dat
1 72 80 -16 10 1 0 0 0 1 0 0 0 1 3666.dat
1 72 -80 -16 10 1 0 0 0 1 0 0 0 1 3666.dat
1 28 0 -32 10 1 0 0 0 1 0 0 0 1 30136.dat
1 71 0 0 -200 1 0 0 0 1 0 0 0 1 3034.dat
1 72 80 -40 10 1 0 0 0 1 0 0 0 1 3894.dat
1 72 -80 -40 10 1 0 0 0 1 0 0 0 1 3894.dat
1 72 80 -32 -10 1 0 0 0 1 0 0 0 1 3010.dat
1 72 -80 -32 -10 1 0 0 0 1 0 0 0 1 3010.dat
1 72 -130 -32 -10 0 0 1 0 1 0 -1 0 0 4287a.dat
1 72 130 -32 -10 0 0 -1 0 1 0 1 0 0 4287a.dat
1 72 0 -32 -130 1 0 0 0 1 0 0 0 1 3010.dat
1 72 0 -32 -70 1 0 0 0 1 0 0 0 1 3010.dat
1 25 -20 -32 -100 1 0 0 0 1 0 0 0 1 3941.dat
1 25 20 -32 -100 1 0 0 0 1 0 0 0 1 3941.dat
1 14 0 -32 -30 1 0 0 0 1 0 0 0 1 75144 - subModel-001.ldr
1 71 -90 -32 -100 0 0 1 0 1 0 -1 0 0 3660.dat
1 71 -90 -32 -160 0 0 1 0 1 0 -1 0 0 3660.dat
1 71 -90 -32 -40 0 0 1 0 1 0 -1 0 0 3660.dat
1 71 90 -32 -40 0 0 -1 0 1 0 1 0 0 3660.dat
1 71 90 -32 -100 0 0 -1 0 1 0 1 0 0 3660.dat
1 71 90 -32 -160 0 0 -1 0 1 0 1 0 0 3660.dat
1 72 90 -32 -130 1 0 0 0 1 0 0 0 1 75144 - subModel-002.ldr
1 72 90 -32 -70 1 0 0 0 1 0 0 0 1 75144 - subModel-002.ldr
1 72 -90 -32 -70 -1 0 0 0 1 0 0 0 -1 75144 - subModel-002.ldr
1 72 -90 -32 -130 -1 0 0 0 1 0 0 0 -1 75144 - subModel-002.ldr
1 80 0 -40 20 -1 0 0 0 1 0 0 0 -1 75144 - subModel-003.ldr
1 57 0 -40 -10 -1 0 0 0 1 0 0 0 -1 3023.dat
1 80 120 -48 10 -1 0 0 0 1 0 0 0 -1 32028.dat
1 80 -120 -48 10 -1 0 0 0 1 0 0 0 -1 32028.dat
1 80 -10 -48 10 -1 0 0 0 1 0 0 0 -1 6141.dat
1 80 10 -48 10 -1 0 0 0 1 0 0 0 -1 6141.dat
1 28 60 -48 10 1 0 0 0 1 0 0 0 1 3710.dat
1 28 -60 -48 10 1 0 0 0 1 0 0 0 1 3710.dat
1 71 100 -40 -10 1 0 0 0 1 0 0 0 1 3460.dat
1 71 -100 -40 -10 1 0 0 0 1 0 0 0 1 3460.dat
1 71 170 -48 0 0 0 -1 0 1 0 1 0 0 18677.dat
1 71 150 -48 0 0 0 -1 0 1 0 1 0 0 18677.dat
1 71 -150 -48 0 0 0 -1 0 1 0 1 0 0 18677.dat
1 71 -170 -48 0 0 0 -1 0 1 0 1 0 0 18677.dat
1 28 100 -48 -10 1 0 0 0 1 0 0 0 1 3710.dat
1 28 -100 -48 -10 1 0 0 0 1 0 0 0 1 3710.dat
1 72 0 -48 -10 1 0 0 0 1 0 0 0 1 3666.dat
1 71 180 -38 10 1 0 0 0 1 0 0 0 1 4274.dat
1 71 -180 -38 10 -1 0 0 0 1 0 0 0 -1 4274.dat
1 72 -60 -40 -60 -1 0 0 0 1 0 0 0 -1 3032.dat
1 72 60 -40 -60 -1 0 0 0 1 0 0 0 -1 3032.dat
1 71 0 -40 -120 -1 0 0 0 1 0 0 0 -1 3020.dat
1 72 100 -40 -120 -1 0 0 0 1 0 0 0 -1 2639.dat
1 72 -100 -40 -120 0 0 1 0 1 0 -1 0 0 2639.dat
1 71 0 -48 -30 1 0 0 0 1 0 0 0 1 60479.dat
1 71 0 -48 -50 1 0 0 0 1 0 0 0 1 60479.dat
1 28 0 -48 -70 1 0 0 0 1 0 0 0 1 3710.dat
1 57 60 -48 -70 1 0 0 0 1 0 0 0 1 3023.dat
1 57 -60 -48 -70 1 0 0 0 1 0 0 0 1 3023.dat
1 71 0 -48 -90 1 0 0 0 1 0 0 0 1 60479.dat
1 71 0 -48 -110 1 0 0 0 1 0 0 0 1 60479.dat
1 72 110 -72 0 0 0 -1 0 1 0 1 0 0 30363.dat
1 72 -110 -72 0 0 0 1 0 1 0 -1 0 0 30363.dat
1 72 0 -72 10 1 0 0 0 1 0 0 0 1 3894.dat
1 72 80 -56 -40 1 0 0 0 1 0 0 0 1 2639.dat
1 72 -80 -56 -40 0 0 -1 0 1 0 1 0 0 2639.dat
1 80 110 -80 10 1 0 0 0 1 0 0 0 1 6141.dat
1 80 110 -80 -10 1 0 0 0 1 0 0 0 1 6141.dat
1 80 -110 -80 10 1 0 0 0 1 0 0 0 1 6141.dat
1 80 -110 -80 -10 1 0 0 0 1 0 0 0 1 6141.dat
1 28 0 -72 -10 1 0 0 0 1 0 0 0 1 30136.dat
1 15 80 -80 10 1 0 0 0 1 0 0 0 1 3700.dat
1 15 80 -80 -10 1 0 0 0 1 0 0 0 1 3700.dat
1 15 -80 -80 10 1 0 0 0 1 0 0 0 1 3700.dat
1 15 -80 -80 -10 1 0 0 0 1 0 0 0 1 3700.dat
1 4 -50 -72 -10 0 0 1 0 1 0 -1 0 0 2357.dat
1 4 50 -72 -10 -1 0 0 0 1 0 0 0 -1 2357.dat
1 57 -60 -48 -130 1 0 0 0 1 0 0 0 1 3023.dat
1 57 60 -48 -130 1 0 0 0 1 0 0 0 1 3023.dat
1 72 90 -64 -70 0 0 -1 0 1 0 1 0 0 3040b.dat
1 72 90 -64 -130 0 0 -1 0 1 0 1 0 0 3040b.dat
1 72 -90 -64 -70 0 0 1 0 1 0 -1 0 0 3040b.dat
1 72 -90 -64 -130 0 0 1 0 1 0 -1 0 0 3040b.dat
1 80 -70 -56 -130 1 0 0 0 1 0 0 0 1 6141.dat
1 80 -70 -56 -70 1 0 0 0 1 0 0 0 1 6141.dat
1 80 70 -56 -70 1 0 0 0 1 0 0 0 1 6141.dat
1 80 70 -56 -130 1 0 0 0 1 0 0 0 1 6141.dat
1 72 70 -104 0 0 0 -1 0 1 0 1 0 0 3298.dat
1 72 -70 -104 0 0 0 1 0 1 0 -1 0 0 3298.dat
1 72 -50 -8 -210 1 0 0 0 1 0 0 0 1 75144 - subModel-004.ldr
1 72 -30 -8 -210 1 0 0 0 1 0 0 0 1 75144 - subModel-004.ldr
1 72 30 -8 -210 1 0 0 0 1 0 0 0 1 75144 - subModel-004.ldr
1 72 50 -8 -210 1 0 0 0 1 0 0 0 1 75144 - subModel-004.ldr
1 72 0 -8 -210 1 0 0 0 1 0 0 0 1 75144 - subModel-005.ldr
1 25 0 -32 -400 0 0 -1 0 1 0 1 0 0 3033.dat
1 72 0 -40 -470 1 0 0 0 1 0 0 0 1 3460.dat
1 72 -30 -40 -490 1 0 0 0 1 0 0 0 1 3623.dat
1 72 30 -40 -490 1 0 0 0 1 0 0 0 1 3623.dat
1 71 0 -40 -300 0 0 -1 0 1 0 1 0 0 92438.dat
1 71 70 -32 -380 0 0 -1 0 1 0 1 0 0 60479.dat
1 71 -70 -32 -380 0 0 -1 0 1 0 1 0 0 60479.dat
1 28 70 -32 -220 0 0 -1 0 1 0 1 0 0 3710.dat
1 28 -70 -32 -220 0 0 -1 0 1 0 1 0 0 3710.dat
1 71 -70 -48 -490 1 0 0 0 1 0 0 0 1 13547.dat
1 71 70 -48 -490 1 0 0 0 1 0 0 0 1 13547.dat
1 72 70 -48 -440 0 0 1 0 1 0 -1 0 0 3460.dat
1 72 -70 -48 -440 0 0 1 0 1 0 -1 0 0 3460.dat
1 28 50 -48 -400 0 0 1 0 1 0 -1 0 0 3710.dat
1 28 -50 -48 -400 0 0 1 0 1 0 -1 0 0 3710.dat
1 28 0 -48 -390 1 0 0 0 1 0 0 0 1 3710.dat
1 71 60 -48 -340 0 0 -1 0 1 0 1 0 0 63082.dat
1 71 -60 -48 -340 0 0 1 0 1 0 -1 0 0 63082.dat
1 72 60 -48 -300 0 0 -1 0 1 0 1 0 0 2639.dat
1 72 -60 -48 -300 1 0 0 0 1 0 0 0 1 2639.dat
1 28 -60 -48 -230 -1 0 0 0 1 0 0 0 -1 3023.dat
1 28 60 -48 -230 -1 0 0 0 1 0 0 0 -1 3023.dat
1 71 60 -48 -200 0 0 -1 0 1 0 1 0 0 63082.dat
1 71 -60 -48 -200 0 0 1 0 1 0 -1 0 0 63082.dat
1 28 0 -48 -210 1 0 0 0 1 0 0 0 1 3710.dat
1 71 60 -56 -300 0 0 -1 0 1 0 1 0 0 3832.dat
1 71 -60 -56 -300 0 0 -1 0 1 0 1 0 0 3832.dat
1 80 70 -56 -190 0 0 -1 0 1 0 1 0 0 6141.dat
1 80 -70 -56 -190 0 0 -1 0 1 0 1 0 0 6141.dat
1 71 0 -56 -300 -1 0 0 0 1 0 0 0 -1 3020.dat
1 0 -20 -64 -230 1 0 0 0 1 0 0 0 1 3937.dat
1 0 20 -64 -230 1 0 0 0 1 0 0 0 1 3937.dat
1 0 -20 -64 -370 -1 0 0 0 1 0 0 0 -1 3937.dat
1 0 20 -64 -370 -1 0 0 0 1 0 0 0 -1 3937.dat
1 15 -10 -40 -260 -1 0 0 0 1 0 0 0 -1 61409.dat
1 15 10 -40 -260 -1 0 0 0 1 0 0 0 -1 61409.dat
1 15 -10 -40 -340 1 0 0 0 1 0 0 0 1 61409.dat
1 15 10 -40 -340 1 0 0 0 1 0 0 0 1 61409.dat
1 72 50 -64 -280 0 0 -1 0 1 0 1 0 0 3460.dat
1 72 -50 -64 -280 0 0 -1 0 1 0 1 0 0 3460.dat
1 72 -50 -64 -380 0 0 -1 0 1 0 1 0 0 3023.dat
1 72 50 -64 -380 0 0 -1 0 1 0 1 0 0 3023.dat
1 72 -20 -48 -390 1 0 0 0 1 0 0 0 1 85984.dat
1 72 20 -48 -390 1 0 0 0 1 0 0 0 1 85984.dat
1 72 -20 -48 -210 -1 0 0 0 1 0 0 0 -1 85984.dat
1 72 20 -48 -210 -1 0 0 0 1 0 0 0 -1 85984.dat
1 72 -30 -64 -300 0 0 1 0 1 0 -1 0 0 15573.dat
1 72 -10 -64 -300 0 0 1 0 1 0 -1 0 0 15573.dat
1 72 10 -64 -300 0 0 1 0 1 0 -1 0 0 15573.dat
1 72 30 -64 -300 0 0 1 0 1 0 -1 0 0 15573.dat
1 0 50 -72 -390 0 0 1 0 1 0 -1 0 0 3024.dat
1 57 50 -72 -360 0 0 1 0 1 0 -1 0 0 3023.dat
1 80 50 -72 -320 0 0 1 0 1 0 -1 0 0 2412a.dat
1 80 50 -72 -280 0 0 1 0 1 0 -1 0 0 2412a.dat
1 57 50 -72 -240 0 0 1 0 1 0 -1 0 0 3023.dat
1 57 -50 -72 -240 0 0 1 0 1 0 -1 0 0 3023.dat
1 80 -50 -72 -280 0 0 1 0 1 0 -1 0 0 2412a.dat
1 80 -50 -72 -320 0 0 1 0 1 0 -1 0 0 2412a.dat
1 57 -50 -72 -360 0 0 1 0 1 0 -1 0 0 3023.dat
1 0 -50 -72 -390 0 0 1 0 1 0 -1 0 0 3024.dat
1 71 50 -80 -240 0 0 1 0 1 0 -1 0 0 2412a.dat
1 71 -50 -80 -240 0 0 1 0 1 0 -1 0 0 2412a.dat
1 71 -50 -80 -360 0 0 1 0 1 0 -1 0 0 2412a.dat
1 71 50 -80 -360 0 0 1 0 1 0 -1 0 0 2412a.dat
1 47 -50 -80 -390 0 0 1 0 1 0 -1 0 0 98138.dat
1 47 50 -80 -390 0 0 1 0 1 0 -1 0 0 98138.dat
1 57 0 -48 -410 1 0 0 0 1 0 0 0 1 3023.dat
1 72 0 -48 -480 0 0 1 0 1 0 -1 0 0 3020.dat
1 57 0 -48 -430 1 0 0 0 1 0 0 0 1 3023.dat
1 72 40 -40 -450 -1 0 0 0 1 0 0 0 -1 85984.dat
1 72 -40 -40 -450 -1 0 0 0 1 0 0 0 -1 85984.dat
1 0 -50 -56 -420 1 0 0 0 1 0 0 0 1 75144 - subModel-006.ldr
1 0 50 -56 -420 1 0 0 0 1 0 0 0 1 75144 - subModel-006.ldr
1 71 70 -56 -440 0 0 -1 0 1 0 1 0 0 3710.dat
1 71 -70 -56 -440 0 0 -1 0 1 0 1 0 0 3710.dat
1 0 40 -64 -470 -1 0 0 0 1 0 0 0 -1 3937.dat
1 0 -40 -64 -470 -1 0 0 0 1 0 0 0 -1 3937.dat
1 71 -40 -48 -490 1 0 0 0 1 0 0 0 1 75144 - 14704.dat
1 71 40 -48 -490 1 0 0 0 1 0 0 0 1 75144 - 14704.dat
1 0 -40 -63.063 -465.774 1 0 0 0 0.906 0.423 0 -0.423 0.906 75144 - subModel-007.ldr
1 0 40 -63.063 -465.774 1 0 0 0 0.906 0.423 0 -0.423 0.906 75144 - subModel-008.ldr
1 72 -70 -80 -470 0 0 -1 0 1 0 1 0 0 3005.dat
1 72 70 -80 -470 0 0 -1 0 1 0 1 0 0 3005.dat
1 28 70 -80 -400 0 0 -1 0 1 0 1 0 0 3009.dat
1 28 70 -80 -280 0 0 -1 0 1 0 1 0 0 3009.dat
1 28 -70 -80 -400 0 0 -1 0 1 0 1 0 0 3009.dat
1 28 -70 -80 -280 0 0 -1 0 1 0 1 0 0 3009.dat
1 71 0 -72 -490 -1 0 0 0 1 0 0 0 -1 3008.dat
1 71 -70 -72 -520 0 0 1 0 1 0 -1 0 0 3004.dat
1 71 70 -72 -520 0 0 1 0 1 0 -1 0 0 3004.dat
1 71 -70 -72 -550 1 0 0 0 1 0 0 0 1 3665a.dat
1 71 70 -72 -550 1 0 0 0 1 0 0 0 1 3665a.dat
1 72 0 -72 -510 1 0 0 0 1 0 0 0 1 3747a.dat
1 71 0 -80 -470 -1 0 0 0 1 0 0 0 -1 75144 - subModel-009.ldr
1 71 -70 -80 -520 0 0 -1 0 1 0 1 0 0 3710.dat
1 71 70 -80 -520 0 0 -1 0 1 0 1 0 0 3710.dat
1 80 80 -24 -240 1 0 0 0 1 0 0 0 1 75144 - subModel-010.ldr
1 80 -80 -24 -240 1 0 0 0 1 0 0 0 1 75144 - subModel-011.ldr
1 72 10 -88 -450 1 0 0 0 1 0 0 0 1 75144 - subModel-012.ldr
1 15 -10 -72 -540 1 0 0 0 1 0 0 0 1 61409.dat
1 15 10 -72 -540 1 0 0 0 1 0 0 0 1 61409.dat
1 80 -40 -80 -490 1 0 0 0 1 0 0 0 1 32028.dat
1 80 40 -80 -490 1 0 0 0 1 0 0 0 1 32028.dat
1 72 -70 -72 -570 1 0 0 0 1 0 0 0 1 54200.dat
1 72 70 -72 -570 1 0 0 0 1 0 0 0 1 54200.dat
1 72 0 -88 -500 1 0 0 0 1 0 0 0 1 3034.dat
1 72 0 -88 -470 1 0 0 0 1 0 0 0 1 3460.dat
1 57 0 -48 -190 -1 0 0 0 1 0 0 0 -1 3023.dat
1 72 -10 -48 -150 0 0 1 0 1 0 -1 0 0 3623.dat
1 72 10 -48 -150 0 0 1 0 1 0 -1 0 0 3623.dat
1 2 0 -56 -30 1 0 0 0 1 0 0 0 1 2431.dat
1 2 0 -56 -70 1 0 0 0 1 0 0 0 1 2431.dat
1 25 0 -72 -50 1 0 0 0 1 0 0 0 1 3010.dat
1 25 0 -72 -90 1 0 0 0 1 0 0 0 1 3010.dat
1 25 0 -56 -140 1 0 0 0 1 0 0 0 1 75144 - subModel-013.ldr
1 71 80 -48 -160 -1 0 0 0 1 0 0 0 -1 3020.dat
1 71 -80 -48 -160 -1 0 0 0 1 0 0 0 -1 3020.dat
1 71 50 -72 -120 0 0 -1 0 1 0 1 0 0 3008.dat
1 71 -50 -72 -120 0 0 -1 0 1 0 1 0 0 3008.dat
1 72 100 -56 -100 -1 0 0 0 1 0 0 0 -1 3020.dat
1 72 100 -56 -160 -1 0 0 0 1 0 0 0 -1 3020.dat
1 72 -100 -56 -160 -1 0 0 0 1 0 0 0 -1 3020.dat
1 72 -100 -56 -100 -1 0 0 0 1 0 0 0 -1 3020.dat
1 72 -30 -72 -110 1 0 0 0 1 0 0 0 1 75144 - subModel-014.ldr
1 72 30 -72 -110 1 0 0 0 1 0 0 0 1 75144 - subModel-014.ldr
1 15 70 -64 -120 0 0 -1 0 1 0 1 0 0 4477.dat
1 15 -70 -64 -120 0 0 -1 0 1 0 1 0 0 4477.dat
1 57 70 -72 -40 0 0 -1 0 1 0 1 0 0 3023.dat
1 28 80 -72 -70 1 0 0 0 1 0 0 0 1 3023.dat
1 57 70 -72 -100 0 0 -1 0 1 0 1 0 0 3023.dat
1 28 80 -72 -130 1 0 0 0 1 0 0 0 1 3023.dat
1 57 70 -72 -160 0 0 -1 0 1 0 1 0 0 3023.dat
1 72 70 -72 -210 0 0 -1 0 1 0 1 0 0 2420.dat
1 72 -70 -72 -210 1 0 0 0 1 0 0 0 1 2420.dat
1 57 -70 -72 -160 0 0 -1 0 1 0 1 0 0 3023.dat
1 28 -80 -72 -130 1 0 0 0 1 0 0 0 1 3023.dat
1 57 -70 -72 -100 0 0 -1 0 1 0 1 0 0 3023.dat
1 28 -80 -72 -70 1 0 0 0 1 0 0 0 1 3023.dat
1 57 -70 -72 -40 0 0 -1 0 1 0 1 0 0 3023.dat
1 71 -90 -80 -40 0 0 1 0 1 0 -1 0 0 3298.dat
1 71 -90 -80 -100 0 0 1 0 1 0 -1 0 0 3298.dat
1 71 -90 -80 -160 0 0 1 0 1 0 -1 0 0 3298.dat
1 71 90 -80 -160 0 0 -1 0 1 0 1 0 0 3298.dat
1 71 90 -80 -100 0 0 -1 0 1 0 1 0 0 3298.dat
1 71 90 -80 -40 0 0 -1 0 1 0 1 0 0 3298.dat
1 47 50 -80 -210 0 0 1 0 1 0 -1 0 0 98138.dat
1 80 50 -80 -190 0 0 1 0 1 0 -1 0 0 6141.dat
1 80 -50 -80 -190 0 0 1 0 1 0 -1 0 0 6141.dat
1 47 -50 -80 -210 0 0 1 0 1 0 -1 0 0 98138.dat
1 80 0 -80 -10 1 0 0 0 1 0 0 0 1 75144 - subModel-015.ldr
1 15 -50 -96 -70 1 0 0 0 1 0 0 0 1 3062b.dat
1 15 -50 -96 -110 1 0 0 0 1 0 0 0 1 3062b.dat
1 15 50 -96 -70 1 0 0 0 1 0 0 0 1 3062b.dat
1 15 50 -96 -110 1 0 0 0 1 0 0 0 1 3062b.dat
1 72 0 -72 -120 1 0 0 0 1 0 0 0 1 3022.dat
1 0 0 -86 -140 -1 0 0 0 -1 0 0 0 1 30553.dat
1 72 0 -86 -83 0 0 -1 0 1 0 1 0 0 59426.dat
1 72 0 -96 -110 1 0 0 0 1 0 0 0 1 85943.dat
1 1 0 -96 -90 1 0 0 0 1 0 0 0 1 3894.dat
1 72 0 -86 -70 1 0 0 0 1 0 0 0 1 10928.dat
1 72 0 -96 -20 1 0 0 0 1 0 0 0 1 75144 - subModel-016.ldr
1 19 0 -86 -37 0 -1 0 1 0 0 0 0 1 6589.dat
1 71 70 -96 -120 0 0 -1 0 1 0 1 0 0 2730.dat
1 71 -70 -96 -120 0 0 -1 0 1 0 1 0 0 2730.dat
1 72 -40 -96 -120 1 0 0 0 1 0 0 0 1 87620.dat
1 72 40 -96 -120 0 0 1 0 1 0 -1 0 0 87620.dat
1 4 -50 -104 -60 0 0 1 0 1 0 -1 0 0 3460.dat
1 4 50 -104 -60 0 0 1 0 1 0 -1 0 0 3460.dat
1 72 0 -104 -90 1 0 0 0 1 0 0 0 1 3710.dat
1 14 0 -104 -20 1 0 0 0 1 0 0 0 1 64799.dat
1 72 -50 -80 -150 1 0 0 0 1 0 0 0 1 75144 - subModel-017.ldr
1 72 50 -80 -150 1 0 0 0 1 0 0 0 1 75144 - subModel-017.ldr
1 71 -70 -104 -200 0 0 -1 0 1 0 1 0 0 99780.dat
1 71 70 -104 -200 0 0 1 0 1 0 -1 0 0 99780.dat
1 71 -70 -104 -140 0 0 1 0 1 0 -1 0 0 44568.dat
1 71 -70 -104 -60 0 0 1 0 1 0 -1 0 0 44568.dat
1 71 70 -104 -140 0 0 -1 0 1 0 1 0 0 44568.dat
1 71 70 -104 -60 0 0 -1 0 1 0 1 0 0 44568.dat
1 28 70 -88 -420 0 0 -1 0 1 0 1 0 0 3710.dat
1 28 -70 -88 -420 0 0 -1 0 1 0 1 0 0 3710.dat
1 28 -70 -88 -320 0 0 -1 0 1 0 1 0 0 3666.dat
1 28 70 -88 -320 0 0 -1 0 1 0 1 0 0 3666.dat
1 72 70 -88 -240 0 0 -1 0 1 0 1 0 0 88072.dat
1 72 -70 -88 -240 0 0 1 0 1 0 -1 0 0 88072.dat
1 28 70 -96 -280 0 0 -1 0 1 0 1 0 0 3666.dat
1 28 -70 -96 -280 0 0 -1 0 1 0 1 0 0 3666.dat
1 28 -70 -96 -460 0 0 -1 0 1 0 1 0 0 3666.dat
1 28 70 -96 -460 0 0 -1 0 1 0 1 0 0 3666.dat
1 72 -70 -96 -370 0 0 -1 0 1 0 1 0 0 3623.dat
1 72 70 -96 -370 0 0 -1 0 1 0 1 0 0 3623.dat
1 71 -70 -104 -240 0 0 -1 0 1 0 1 0 0 99780.dat
1 71 70 -104 -240 0 0 1 0 1 0 -1 0 0 99780.dat
1 80 -70 -104 -270 0 0 1 0 1 0 -1 0 0 6141.dat
1 80 70 -104 -270 0 0 1 0 1 0 -1 0 0 6141.dat
1 71 70 -104 -320 0 0 -1 0 1 0 1 0 0 44568.dat
1 71 -70 -104 -320 0 0 1 0 1 0 -1 0 0 44568.dat
1 71 70 -104 -380 0 0 1 0 1 0 -1 0 0 99780.dat
1 71 -70 -104 -380 0 0 -1 0 1 0 1 0 0 99780.dat
1 72 70 -104 -460 0 0 -1 0 1 0 1 0 0 3666.dat
1 72 -70 -104 -460 0 0 -1 0 1 0 1 0 0 3666.dat
1 71 -70 -104 -530 1 0 0 0 1 0 0 0 1 3040b.dat
1 71 70 -104 -530 1 0 0 0 1 0 0 0 1 3040b.dat
1 72 -10 -96 -490 0 0 1 0 1 0 -1 0 0 3623.dat
1 72 10 -96 -490 0 0 1 0 1 0 -1 0 0 3623.dat
1 25 30 -96 -490 0 0 1 0 1 0 -1 0 0 2420.dat
1 25 -30 -96 -490 -1 0 0 0 1 0 0 0 -1 2420.dat
1 0 50 -98 -429 -1 0 0 0 -0.292 -0.956 0 -0.956 0.292 75144 - 62885.dat
1 0 -50 -98 -429 -1 0 0 0 -0.292 -0.956 0 -0.956 0.292 75144 - 62885.dat
1 72 -50 -112 -510 1 0 0 0 1 0 0 0 1 3665a.dat
1 72 50 -112 -510 1 0 0 0 1 0 0 0 1 3665a.dat
1 28 0 -104 -490 -1 0 0 0 1 0 0 0 -1 3666.dat
1 71 -20 -104 -510 1 0 0 0 1 0 0 0 1 75144 - 14704.dat
1 71 20 -104 -510 1 0 0 0 1 0 0 0 1 75144 - 14704.dat
1 15 0 -112 -500 1 0 0 0 1 0 0 0 1 3709b.dat
1 15 -50 -112 -470 0 0 -1 0 1 0 1 0 0 75144 - subModel-018.ldr
1 15 50 -112 -470 0 0 -1 0 1 0 1 0 0 75144 - subModel-018.ldr
1 0 -50 -112 -490 0 0 -1 0 1 0 1 0 0 3024.dat
1 0 50 -112 -490 0 0 -1 0 1 0 1 0 0 3024.dat
1 0 0 -120 -470 -1 0 0 0 1 0 0 0 -1 3039.dat
1 0 -30 -112 -470 0 0 -1 0 1 0 1 0 0 75144 - subModel-019.ldr
1 0 30 -112 -470 0 0 -1 0 1 0 1 0 0 75144 - subModel-020.ldr
1 80 -30 -120 -480 0 0 -1 0 1 0 1 0 0 2412b.dat
1 80 30 -120 -480 0 0 -1 0 1 0 1 0 0 2412b.dat
1 80 0 -128 -470 -1 0 0 0 1 0 0 0 -1 2412b.dat
1 80 -40 -112 10 -1 0 0 0 1 0 0 0 -1 75144 - subModel-021.ldr
1 80 40 -112 10 -1 0 0 0 1 0 0 0 -1 75144 - subModel-021.ldr
1 71 70 -112 -420 0 0 1 0 1 0 -1 0 0 60479.dat
1 71 70 -112 -180 0 0 1 0 1 0 -1 0 0 60479.dat
1 71 -70 -112 -420 0 0 1 0 1 0 -1 0 0 60479.dat
1 71 -70 -112 -180 0 0 1 0 1 0 -1 0 0 60479.dat
1 71 50 -112 -30 0 0 1 0 1 0 -1 0 0 11212.dat
1 71 -50 -112 -30 0 0 1 0 1 0 -1 0 0 11212.dat
1 80 -70 -112 10 0 0 1 0 1 0 -1 0 0 6141.dat
1 80 70 -112 10 0 0 1 0 1 0 -1 0 0 6141.dat
1 25 50 -112 -90 0 0 -1 0 1 0 1 0 0 2420.dat
1 25 -50 -112 -90 1 0 0 0 1 0 0 0 1 2420.dat
1 80 -50 -112 -110 0 0 1 0 1 0 -1 0 0 6141.dat
1 80 50 -112 -110 0 0 1 0 1 0 -1 0 0 6141.dat
1 0 -20 -120 -110 1 0 0 0 1 0 0 0 1 3039.dat
1 0 20 -120 -110 1 0 0 0 1 0 0 0 1 3039.dat
1 15 0 -120 -530 1 0 0 0 1 0 0 0 1 4162.dat
1 15 -70 -120 -440 0 0 -1 0 1 0 1 0 0 4162.dat
1 15 -70 -120 -280 0 0 -1 0 1 0 1 0 0 4162.dat
1 15 70 -120 -440 0 0 -1 0 1 0 1 0 0 4162.dat
1 15 70 -120 -280 0 0 -1 0 1 0 1 0 0 4162.dat
1 71 70 -120 -190 0 0 -1 0 1 0 1 0 0 3070b.dat
1 71 -70 -120 -190 0 0 -1 0 1 0 1 0 0 3070b.dat
1 15 -60 -120 -100 0 0 -1 0 1 0 1 0 0 3034.dat
1 15 60 -120 -100 0 0 -1 0 1 0 1 0 0 3034.dat
1 72 80 8 0 -1 0 0 0 1 0 0 0 -1 2639.dat
1 72 0 8 0 -1 0 0 0 1 0 0 0 -1 3022.dat
1 72 -80 8 0 0 0 1 0 1 0 -1 0 0 2639.dat
1 72 0 8 -60 1 0 0 0 1 0 0 0 1 32059.dat
1 71 130 8 0 0 0 -1 0 1 0 1 0 0 18677.dat
1 71 110 8 0 0 0 -1 0 1 0 1 0 0 18677.dat
1 71 -110 8 0 0 0 -1 0 1 0 1 0 0 18677.dat
1 71 -130 8 0 0 0 -1 0 1 0 1 0 0 18677.dat
1 72 0 16 10 1 0 0 0 1 0 0 0 1 4477.dat
1 71 0 16 -20 1 0 0 0 1 0 0 0 1 11203.dat
1 71 0 16 -60 1 0 0 0 1 0 0 0 1 11203.dat
1 71 -80 16 -30 0 0 1 0 1 0 -1 0 0 54384.dat
1 71 80 16 -30 0 0 -1 0 1 0 1 0 0 54383.dat
1 80 90 24 10 -1 0 0 0 1 0 0 0 -1 93555.dat
1 80 50 24 10 -1 0 0 0 1 0 0 0 -1 93555.dat
1 80 30 24 10 -1 0 0 0 1 0 0 0 -1 93555.dat
1 80 10 24 10 -1 0 0 0 1 0 0 0 -1 93555.dat
1 80 -10 24 10 -1 0 0 0 1 0 0 0 -1 93555.dat
1 80 -30 24 10 -1 0 0 0 1 0 0 0 -1 93555.dat
1 80 -50 24 10 -1 0 0 0 1 0 0 0 -1 93555.dat
1 80 -90 24 10 -1 0 0 0 1 0 0 0 -1 93555.dat
1 71 -70 24 -10 1 0 0 0 1 0 0 0 1 2341.dat
1 71 70 24 -10 1 0 0 0 1 0 0 0 1 2341.dat
1 71 0 10.192 -283.923 0 0 -1 0.766 0.643 0 0.643 -0.766 0 75144 - subModel-022.ldr
1 72 0 -136 -470 1 0 0 0 1 0 0 0 1 58181.dat
1 72 -48 -106 -370 0 -1 0 0 0 -1 1 0 0 75144 - subModel-023.ldr
1 72 -48 -116 -220 0 -1 0 0 0 -1 1 0 0 75144 - subModel-024.ldr
1 72 48 -106 -220 0 1 0 0 0 1 1 0 0 75144 - subModel-025.ldr
1 72 48 -106 -370 0 1 0 0 0 1 1 0 0 75144 - subModel-026.ldr
1 71 0 -114 -20 -1 0 0 0 1 0 0 0 -1 75144 - subModel-027.ldr
1 15 0 -120 -20 1 0 0 0 1 0 0 0 1 3709b.dat
1 28 0 -120 -90 1 0 0 0 1 0 0 0 1 3710.dat
1 71 0 -120 -60 1 0 0 0 1 0 0 0 1 87079.dat
1 15 -60 -120 -10 1 0 0 0 1 0 0 0 1 3023.dat
1 15 60 -120 -10 1 0 0 0 1 0 0 0 1 3023.dat
1 15 0 -120 10 -1 0 0 0 1 0 0 0 -1 4510.dat
1 72 0 -128 -20 1 0 0 0 1 0 0 0 1 15535.dat
1 0 0 -144 -20 1 0 0 0 0 -1 0 1 0 59443.dat
1 15 -40 -128 -20 1 0 0 0 1 0 0 0 1 3068b.dat
1 15 40 -128 -20 1 0 0 0 1 0 0 0 1 3068b.dat
1 25 0 -132.678 -275.83 1 0 0 0 -0.191 -0.981 0 0.981 -0.191 75144 - subModel-028.ldr
1 25 0 -132.678 -324.17 -1 0 0 0 -0.191 -0.981 0 -0.981 0.191 75144 - subModel-028.ldr
1 25 0 -72 -300 1 0 0 0 1 0 0 0 1 75144 - subModel-030.ldr
1 72 0 -175.995 -300.002 -1 0 0 0 1 0 0 0 -1 6192.dat
1 0 0 -97.212 -153.207 -1 0 0 0 -0.259 -0.966 0 -0.966 0.259 75144 - subModel-032.ldr
1 28 -20 -136 -90 -1 0 0 0 1 0 0 0 -1 75144 - subModel-033.ldr
1 28 20 -136 -90 -1 0 0 0 1 0 0 0 -1 75144 - subModel-033.ldr
1 15 60 -120 -70 -1 0 0 0 1 0 0 0 -1 85984.dat
1 15 -60 -120 -70 -1 0 0 0 1 0 0 0 -1 85984.dat
1 15 60 -128 -90 -1 0 0 0 1 0 0 0 -1 3023.dat
1 15 -60 -128 -90 -1 0 0 0 1 0 0 0 -1 3023.dat
1 15 -50 -128 -110 -1 0 0 0 1 0 0 0 -1 2420.dat
1 15 50 -128 -110 0 0 1 0 1 0 -1 0 0 2420.dat
1 71 -70 -128 -130 0 0 1 0 1 0 -1 0 0 3070b.dat
1 71 70 -128 -130 0 0 1 0 1 0 -1 0 0 3070b.dat
1 80 -30 -136 -110 0 0 1 0 1 0 -1 0 0 6141.dat
1 80 0 -136 -110 1 0 0 0 1 0 0 0 1 2412b.dat
1 80 30 -136 -110 0 0 1 0 1 0 -1 0 0 6141.dat
1 15 30 -144 -90 -1 0 0 0 1 0 0 0 -1 2420.dat
1 15 -30 -144 -90 0 0 1 0 1 0 -1 0 0 2420.dat
1 15 50 -200 -110 0 0 -1 0 1 0 1 0 0 3685.dat
1 15 -50 -200 -110 -1 0 0 0 1 0 0 0 -1 3685.dat
1 47 0 -192 -110 -1 0 0 0 1 0 0 0 -1 3823.dat
1 72 -50 -136 -130 0 0 1 0 1 0 -1 0 0 75144 - subModel-034.ldr
1 72 50 -136 -130 0 0 -1 0 1 0 1 0 0 75144 - subModel-034.ldr
1 72 0 -192 -130 1 0 0 0 1 0 0 0 1 75144 - subModel-035.ldr
1 15 -70 -144 -160 0 0 -1 0 1 0 1 0 0 75144 - subModel-036.ldr
1 15 70 -144 -160 0 0 1 0 1 0 -1 0 0 75144 - subModel-036.ldr
1 15 0 -200 -140 -1 0 0 0 1 0 0 0 -1 44570.dat
1 15 0 -208 -120 -1 0 0 0 1 0 0 0 -1 3795.dat
1 15 0 -208 -150 -1 0 0 0 1 0 0 0 -1 6636.dat
1 15 84 -130 -130 0 -1 0 0 0 1 -1 0 0 60477.dat
1 15 -84 -130 -130 0 1 0 0 0 1 1 0 0 60477.dat
1 0 0 -31.298 -571.34 1 0 0 0 0.996 0.087 0 -0.087 0.996 75144 - subModel-037.ldr
1 14 20 -104 -500 1 0 0 0 1 0 0 0 1 63082.dat
1 14 -20 -104 -500 1 0 0 0 1 0 0 0 1 63082.dat
1 14 -40 -48 -480 1 0 0 0 1 0 0 0 1 63082.dat
1 14 40 -48 -480 1 0 0 0 1 0 0 0 1 63082.dat
1 71 0 -80.392 -587.962 1 0 0 0 0.866 -0.5 0 0.5 0.866 32059.dat
1 71 0 -87.321 -591.962 1 0 0 0 0.866 -0.5 0 0.5 0.866 32059.dat
1 72 30 -104.249 -578.641 0 0 -1 -0.5 0.866 0 0.866 0.5 0 3710.dat
1 72 -30 -104.249 -578.641 0 0 -1 -0.5 0.866 0 0.866 0.5 0 3710.dat
1 71 0 -84.249 -613.282 0 0 -1 -0.5 0.866 0 0.866 0.5 0 3034.dat
1 15 -60 -104.249 -578.641 1 0 0 0 0.866 -0.5 0 0.5 0.866 41769.dat
1 15 -40 -64.249 -647.923 1 0 0 0 0.866 -0.5 0 0.5 0.866 41769.dat
1 15 60 -104.249 -578.641 1 0 0 0 0.866 -0.5 0 0.5 0.866 41770.dat
1 15 40 -64.249 -647.923 1 0 0 0 0.866 -0.5 0 0.5 0.866 41770.dat
1 72 0 -62.321 -635.263 1 0 0 0 0.866 -0.5 0 0.5 0.866 3710.dat
1 25 0 -47.321 -661.244 1 0 0 0 0.866 -0.5 0 0.5 0.866 51739.dat
1 25 0 -50.392 -639.923 1 0 0 0 0.866 -0.5 0 0.5 0.866 51739.dat
1 72 0 -68.464 -592.622 1 0 0 0 0.866 -0.5 0 0.5 0.866 3710.dat
1 71 -20 -53.464 -618.603 0 0 1 0.5 0.866 0 -0.866 0.5 0 75144 - 15456.dat
1 71 -20 -83.464 -566.641 -1 0 0 0 0.866 0.5 0 0.5 -0.866 75144 - 15456.dat
1 71 20 -83.464 -566.641 -1 0 0 0 0.866 0.5 0 0.5 -0.866 75144 - 15456.dat
1 71 20 -53.464 -618.603 0 0 -1 -0.5 0.866 0 0.866 0.5 0 75144 - 15456.dat
1 19 0 -66.536 -579.962 1 0 0 0 0.866 -0.5 0 0.5 0.866 2654.dat
1 25 0 -126.177 -556.66 -1 0 0 0 0.866 0.5 0 0.5 -0.866 2431.dat
1 80 40 -116.177 -573.981 -1 0 0 0 0.866 0.5 0 0.5 -0.866 2412b.dat
1 80 0 -116.177 -573.981 -1 0 0 0 0.866 0.5 0 0.5 -0.866 2412b.dat
1 80 -40 -116.177 -573.981 -1 0 0 0 0.866 0.5 0 0.5 -0.866 2412b.dat
1 80 40 -106.177 -591.301 -1 0 0 0 0.866 0.5 0 0.5 -0.866 2412b.dat
1 80 0 -106.177 -591.301 -1 0 0 0 0.866 0.5 0 0.5 -0.866 2412b.dat
1 80 -40 -106.177 -591.301 -1 0 0 0 0.866 0.5 0 0.5 -0.866 2412b.dat
1 25 0 -96.177 -608.622 -1 0 0 0 0.866 0.5 0 0.5 -0.866 2431.dat
1 25 0 -86.177 -625.942 -1 0 0 0 0.866 0.5 0 0.5 -0.866 2431.dat
1 25 0 -76.177 -643.263 -1 0 0 0 0.866 0.5 0 0.5 -0.866 2431.dat
1 15 0 -61.177 -669.244 -1 0 0 0 0.866 0.5 0 0.5 -0.866 87079.dat
1 71 -104.406 -70.44 -698.788 0.683 -0.665 -0.303 0.357 0.666 -0.655 0.637 0.34 0.692 75144 - subModel-038.ldr
1 71 104.406 -70.44 -698.788 -0.303 0.665 0.683 0.655 0.666 -0.357 -0.692 0.34 -0.637 75144 - subModel-039.ldr
1 0 15 298 -170 -1 0 0 0 1 0 0 0 -1 3703.dat
1 0 -5 308 -170 0 0 1 0 1 0 -1 0 0 32054.dat
1 0 55 308 -170 0 0 1 0 1 0 -1 0 0 32054.dat
1 0 115 308 -200 0 0 1 0 1 0 -1 0 0 75144 - subModel-040.ldr
1 0 55 308 -200 0 0 1 0 1 0 -1 0 0 62462.dat
1 72 -125 298 -200 0 0 1 0 1 0 -1 0 0 30000.dat
1 72 155 298 -200 0 0 1 0 1 0 -1 0 0 30000.dat
1 0 33.091 220.422 -190 0 0.151 0.987 0 0.987 -0.151 -1 0 0 75144 - subModel-041.ldr
1 0 5 168 -190 0 -1 0 1 0 0 0 0 1 3703.dat
1 0 -5 268 -200 0 -1 0 0 0 1 -1 0 0 2780.dat
1 0 -5 228 -200 0 -1 0 0 0 1 -1 0 0 2780.dat
1 0 -5 188 -200 0 -1 0 0 0 1 -1 0 0 2780.dat
1 0 -5 68 -200 0 -1 0 0 0 1 -1 0 0 2780.dat
1 0 5 168 -210 0 -1 0 1 0 0 0 0 1 3703.dat
1 0 13 168 -200 0 -1 0 1 0 0 0 0 1 4282.dat
1 0 5 8 -150 0 -1 0 1 0 0 0 0 1 75144 - subModel-042.ldr
1 0 21 28 -180 0 -1 0 0 0 1 -1 0 0 87079.dat
1 0 21 88 -200 0 -1 0 1 0 0 0 0 1 87079.dat
1 0 21 168 -200 0 -1 0 1 0 0 0 0 1 3020.dat
1 0 21 248 -200 0 -1 0 1 0 0 0 0 1 87079.dat
1 0 21 308 -200 0 -1 0 1 0 0 0 0 1 3068b.dat
1 0 -19 28 -180 0 -1 0 0 0 1 -1 0 0 3020.dat
1 0 15 298 -230 -1 0 0 0 1 0 0 0 -1 3703.dat
1 0 55 308 -230 0 0 -1 0 1 0 1 0 0 32054.dat
1 0 -5 308 -230 0 0 -1 0 1 0 1 0 0 32054.dat
1 0 -125 322 -200 0 0 1 0 1 0 -1 0 0 4282.dat
1 0 -125 330 -300 0 0 1 0 1 0 -1 0 0 3795.dat
1 0 -125 330 -100 0 0 1 0 1 0 -1 0 0 3795.dat
1 0 -115 314 -300 0 0 1 0 1 0 -1 0 0 3023.dat
1 0 -115 314 -100 0 0 1 0 1 0 -1 0 0 3023.dat
1 0 -125 314 -340 0 0 1 0 1 0 -1 0 0 3022.dat
1 0 -125 314 -260 0 0 1 0 1 0 -1 0 0 3022.dat
1 0 -125 314 -140 0 0 1 0 1 0 -1 0 0 3022.dat
1 0 -125 314 -60 0 0 1 0 1 0 -1 0 0 3022.dat
1 0 -135 314 -100 0 0 1 0 1 0 -1 0 0 99781.dat
1 0 -135 314 -300 0 0 1 0 1 0 -1 0 0 99781.dat
1 0 -125 306 -120 0 0 1 0 1 0 -1 0 0 3020.dat
1 0 -125 306 -280 0 0 1 0 1 0 -1 0 0 3020.dat
1 0 -125 298 -130 0 0 1 0 1 0 -1 0 0 3021.dat
1 0 -125 298 -270 0 0 1 0 1 0 -1 0 0 3021.dat
1 0 -125 290 -320 1 0 0 0 1 0 0 0 1 93606.dat
1 0 -125 290 -80 -1 0 0 0 1 0 0 0 -1 93606.dat
1 0 -115 290 -200 0 0 1 0 1 0 -1 0 0 4162.dat
1 0 -135 290 -200 0 0 1 0 1 0 -1 0 0 4162.dat
1 0 155 322 -200 0 0 -1 0 1 0 1 0 0 4282.dat
1 0 155 330 -320 0 0 -1 0 1 0 1 0 0 75144 - subModel-043.ldr
1 0 155 330 -80 0 0 1 0 1 0 -1 0 0 75144 - subModel-043.ldr
1 0 155 314 -340 0 0 1 0 1 0 -1 0 0 3022.dat
1 0 155 314 -260 0 0 1 0 1 0 -1 0 0 3022.dat
1 0 155 314 -60 0 0 1 0 1 0 -1 0 0 3022.dat
1 0 155 314 -140 0 0 1 0 1 0 -1 0 0 3022.dat
1 0 145 314 -300 0 0 1 0 1 0 -1 0 0 3023.dat
1 0 145 314 -100 0 0 1 0 1 0 -1 0 0 3023.dat
1 0 165 314 -300 0 0 -1 0 1 0 1 0 0 99781.dat
1 0 165 314 -100 0 0 -1 0 1 0 1 0 0 99781.dat
1 0 155 306 -280 0 0 -1 0 1 0 1 0 0 3020.dat
1 0 155 306 -120 0 0 -1 0 1 0 1 0 0 3020.dat
1 0 155 298 -270 0 0 -1 0 1 0 1 0 0 3021.dat
1 0 155 298 -130 0 0 -1 0 1 0 1 0 0 3021.dat
1 0 155 290 -320 1 0 0 0 1 0 0 0 1 93606.dat
1 0 155 290 -80 -1 0 0 0 1 0 0 0 -1 93606.dat
1 0 203 324 -300 0 -1 0 0 0 1 -1 0 0 3937.dat
1 0 203 324 -100 0 -1 0 0 0 1 -1 0 0 3937.dat
1 0 145 290 -200 0 0 -1 0 1 0 1 0 0 4162.dat
1 0 165 290 -200 0 0 -1 0 1 0 1 0 0 4162.dat
1 0 198.55 251.918 -200 0 -0.985 0.174 0 0.174 0.985 -1 0 0 90498.dat
1 0 201.11 312.41 -340 0 -0.985 0.174 0 0.174 0.985 -1 0 0 3022.dat
1 0 201.11 312.41 -60 0 -0.985 0.174 0 0.174 0.985 -1 0 0 3022.dat
1 0 202.85 322.26 -300 0 -0.985 -0.174 0 0.174 -0.985 1 0 0 6134.dat
1 0 202.85 322.26 -100 0 -0.985 -0.174 0 0.174 -0.985 1 0 0 6134.dat
1 25 154 282 30 1 0 0 0 1 0 0 0 1 75144 - Will Scotian.ldr
1 25 154 282 -370 1 0 0 0 1 0 0 0 1 75144 - Zev Senesca.ldr
1 0 119.537 -50.599 -300 0 -0.087 -0.996 0 -0.996 0.087 -1 0 0 2445.dat
1 14 120.234 -42.63 -410 -0.996 -0.087 0 0.087 -0.996 0 0 0 1 32028.dat
1 19 130.196 -43.501 -380 -0.996 -0.087 0 0.087 -0.996 0 0 0 1 3021.dat
1 71 110.273 -41.758 -340 0 -0.087 0.996 0 -0.996 -0.087 1 0 0 14417.dat
1 71 110.273 -41.758 -200 0 -0.087 0.996 0 -0.996 -0.087 1 0 0 14417.dat
1 28 110.273 -41.758 -260 0 -0.087 0.996 0 -0.996 -0.087 1 0 0 3710.dat
1 80 110.273 -41.758 -310 0 -0.087 0.996 0 -0.996 -0.087 1 0 0 6141.dat
1 19 140.158 -44.373 -210 0 -0.087 0.996 0 -0.996 -0.087 1 0 0 3021.dat
1 80 130.196 -43.501 -250 0 -0.087 0.996 0 -0.996 -0.087 1 0 0 6141.dat
1 2 140.158 -44.373 -320 0 -0.087 0.996 0 -0.996 -0.087 1 0 0 3020.dat
1 0 140.158 -44.373 -270 0.996 -0.087 0 -0.087 -0.996 0 0 0 -1 75144 - subModel-044.ldr
1 0 120.932 -34.66 -300 0 -0.087 -0.996 0 -0.996 0.087 -1 0 0 2445.dat
1 72 150.818 -37.275 -340 0 -0.087 -0.996 0 -0.996 0.087 -1 0 0 3460.dat
1 80 111.667 -25.819 -200 0 -0.087 -0.996 0 -0.996 0.087 -1 0 0 2412b.dat
1 71 101.705 -24.948 -260 0.996 -0.087 0 -0.087 -0.996 0 0 0 -1 41769.dat
1 71 141.553 -28.434 -400 0 -0.087 -0.996 0 -0.996 0.087 -1 0 0 3033.dat
1 71 150.818 -37.275 -140 0 -0.087 -0.996 0 -0.996 0.087 -1 0 0 75144 - subModel-045.ldr
1 71 161.477 -30.177 -260 0 -0.087 0.996 0 -0.996 -0.087 1 0 0 6179.dat
1 72 141.553 -28.434 -530 0.996 -0.087 0 -0.087 -0.996 0 0 0 -1 75144 - subModel-046.ldr
1 72 98.916 -56.826 -440 -0.996 -0.087 0 0.087 -0.996 0 0 0 1 75144 - subModel-047.ldr
1 72 118.84 -58.569 -440 -0.996 -0.087 0 0.087 -0.996 0 0 0 1 75144 - subModel-047.ldr
1 72 138.764 -60.312 -440 -0.996 -0.087 0 0.087 -0.996 0 0 0 1 75144 - subModel-047.ldr
1 19 118.84 -58.569 -210 0 -0.087 0.996 0 -0.996 -0.087 1 0 0 3021.dat
1 19 118.84 -58.569 -390 0 -0.087 0.996 0 -0.996 -0.087 1 0 0 3021.dat
1 72 98.219 -64.795 -440 0 -0.087 -0.996 0 -0.996 0.087 -1 0 0 4287a.dat
1 14 90 -97 -240 -1 0 0 0 0 -1 0 -1 0 32123a.dat
1 15 100 -88 -250 0 -1 0 0 0 1 -1 0 0 75144 - rubberBandRound-1.ldr
1 72 210 8 30 1 0 0 0 1 0 0 0 1 3021.dat
1 72 240 0 50 -1 0 0 0 1 0 0 0 -1 41769.dat
1 72 180 0 70 0 0 -1 0 1 0 1 0 0 32059.dat
1 72 200 -8 20 -1 0 0 0 1 0 0 0 -1 2431.dat
1 80 180 -8 40 -1 0 0 0 1 0 0 0 -1 2412b.dat
1 80 180 -8 60 -1 0 0 0 1 0 0 0 -1 2412b.dat
1 80 190 16 20 1 0 0 0 1 0 0 0 1 93555.dat
1 80 210 16 20 1 0 0 0 1 0 0 0 1 93555.dat
1 80 230 16 20 1 0 0 0 1 0 0 0 1 93555.dat
1 72 160 8 50 -1 0 0 0 1 0 0 0 -1 75144 - subModel-048.ldr
1 72 170 -8 110 0 0 -1 0 1 0 1 0 0 11458.dat
1 0 210 -8 50 0 0 1 0 1 0 -1 0 0 92280.dat
1 72 170 0 90 1 0 0 0 1 0 0 0 1 11477.dat
1 0 212 -14 40 0 -1 0 1 0 0 0 0 1 60849.dat
1 71 180 -14 120 1 0 0 0 1 0 0 0 1 4274.dat
1 0 194 -14 120 0 0 -1 0.213 0.977 0 0.977 -0.213 0 75144 - subModel-049.ldr
1 0 -119.537 -50.599 -300 0 0.087 0.996 0 -0.996 0.087 1 0 0 2445.dat
1 14 -120.234 -42.63 -410 -0.996 0.087 0 -0.087 -0.996 0 0 0 1 32028.dat
1 19 -130.196 -43.501 -380 -0.996 0.087 0 -0.087 -0.996 0 0 0 1 3021.dat
1 71 -110.273 -41.758 -340 0 0.087 -0.996 0 -0.996 -0.087 -1 0 0 14417.dat
1 71 -110.273 -41.758 -200 0 0.087 -0.996 0 -0.996 -0.087 -1 0 0 14417.dat
1 28 -110.273 -41.758 -260 0 0.087 -0.996 0 -0.996 -0.087 -1 0 0 3710.dat
1 80 -110.273 -41.758 -310 0 0.087 -0.996 0 -0.996 -0.087 -1 0 0 6141.dat
1 2 -140.158 -44.373 -320 0 0.087 -0.996 0 -0.996 -0.087 -1 0 0 3020.dat
1 19 -140.158 -44.373 -210 0 0.087 0.996 0 -0.996 0.087 1 0 0 3021.dat
1 80 -130.196 -43.501 -250 0 0.087 -0.996 0 -0.996 -0.087 -1 0 0 6141.dat
1 0 -140.158 -44.373 -270 -0.996 0.087 0 -0.087 -0.996 0 0 0 1 75144 - subModel-050.ldr
1 0 -120.932 -34.66 -300 0 0.087 0.996 0 -0.996 0.087 1 0 0 2445.dat
1 72 -150.818 -37.275 -340 0 0.087 0.996 0 -0.996 0.087 1 0 0 3460.dat
1 71 -141.553 -28.434 -400 0 0.087 0.996 0 -0.996 0.087 1 0 0 3033.dat
1 71 -101.705 -24.948 -260 0.996 0.087 0 0.087 -0.996 0 0 0 -1 41770.dat
1 80 -111.667 -25.819 -200 0 0.087 0.996 0 -0.996 0.087 1 0 0 2412b.dat
1 71 -161.477 -30.177 -40 0.996 -0.087 0 0.087 0.996 0 0 0 1 75144 - subModel-051.ldr
1 71 -161.477 -30.177 -260 0 0.087 -0.996 0 -0.996 -0.087 -1 0 0 6179.dat
1 72 -141.553 -28.434 -530 -0.996 0.087 0 -0.087 -0.996 0 0 0 1 75144 - subModel-052.ldr
1 72 -138.764 -60.312 -440 -0.996 0.087 0 -0.087 -0.996 0 0 0 1 75144 - subModel-047.ldr
1 72 -118.84 -58.569 -440 -0.996 0.087 0 -0.087 -0.996 0 0 0 1 75144 - subModel-047.ldr
1 72 -98.916 -56.826 -440 -0.996 0.087 0 -0.087 -0.996 0 0 0 1 75144 - subModel-047.ldr
1 72 -98.219 -64.795 -440 0 0.087 0.996 0 -0.996 0.087 1 0 0 4287a.dat
1 19 -118.84 -58.569 -390 0 0.087 0.996 0 -0.996 0.087 1 0 0 3021.dat
1 19 -118.84 -58.569 -210 0 0.087 0.996 0 -0.996 0.087 1 0 0 3021.dat
1 14 -90 -97 -240 -1 0 0 0 0 -1 0 -1 0 32123a.dat
1 15 -106 -98 -238 -1 0 0 0 0 -1 0 -1 0 75144 - rubberBandRound-2.ldr
1 72 -210 8 30 1 0 0 0 1 0 0 0 1 3021.dat
1 72 -240 0 50 -1 0 0 0 1 0 0 0 -1 41770.dat
1 72 -180 0 70 0 0 1 0 1 0 -1 0 0 32059.dat
1 72 -200 -8 20 1 0 0 0 1 0 0 0 1 2431.dat
1 80 -180 -8 40 1 0 0 0 1 0 0 0 1 2412b.dat
1 80 -180 -8 60 1 0 0 0 1 0 0 0 1 2412b.dat
1 80 -230 16 20 1 0 0 0 1 0 0 0 1 93555.dat
1 80 -210 16 20 1 0 0 0 1 0 0 0 1 93555.dat
1 80 -190 16 20 1 0 0 0 1 0 0 0 1 93555.dat
1 72 -160 8 50 0 0 1 0 1 0 -1 0 0 75144 - subModel-053.ldr
1 0 -210 -8 50 0 0 1 0 1 0 -1 0 0 92280.dat
1 72 -170 -8 110 0 0 -1 0 1 0 1 0 0 11458.dat
1 71 -180 -14 120 -1 0 0 0 -1 0 0 0 1 4274.dat
1 0 -212 -14 40 0 1 0 -1 0 0 0 0 1 60849.dat
1 72 -170 0 90 1 0 0 0 1 0 0 0 1 11477.dat
1 72 -194 -14 120 0 0 1 0.213 -0.977 0 0.977 0.213 0 75144 - subModel-049.ldr
1 71 -148 -83.672 -680 0.891 0.454 0 -0.454 0.891 0 0 0 1 50305.dat
1 71 -201.461 -56.432 -680 0.891 0.454 0 -0.454 0.891 0 0 0 1 50304.dat
1 19 -178.362 -77.18 -700 0 0.454 -0.891 0 0.891 0.454 1 0 0 3020.dat
1 15 -178.362 -77.18 -600 0 0.454 0.891 0 0.891 -0.454 -1 0 0 6180.dat
1 15 -214.003 -59.02 -690 0.891 0.454 0 -0.454 0.891 0 0 0 1 43722.dat
1 15 -142.722 -95.34 -690 0.891 0.454 0 -0.454 0.891 0 0 0 1 43723.dat
1 15 -178.362 -77.18 -760 0.891 0.454 0 -0.454 0.891 0 0 0 1 48183.dat
1 71 -156.91 -79.132 -480 0 0.454 0.891 0 0.891 -0.454 -1 0 0 3029.dat
1 71 -246.011 -33.734 -480 0.891 0.454 0 -0.454 0.891 0 0 0 1 30356.dat
1 15 -115.992 -108.958 -600 0.891 0.454 0 -0.454 0.891 0 0 0 1 54384.dat
1 15 -240.733 -45.402 -600 0.891 0.454 0 -0.454 0.891 0 0 0 1 54383.dat
1 15 -276.373 -27.242 -480 0.891 0.454 0 -0.454 0.891 0 0 0 1 54383.dat
1 15 -124.902 -104.418 -480 0 0.454 0.891 0 0.891 -0.454 -1 0 0 6180.dat
1 15 -187.272 -72.64 -500 0 0.454 0.891 0 0.891 -0.454 -1 0 0 88646.dat
1 15 -231.823 -49.942 -500 0 0.454 0.891 0 0.891 -0.454 -1 0 0 87079.dat
1 15 -196.183 -68.1 -440 0.891 0.454 0 -0.454 0.891 0 0 0 1 87079.dat
1 80 -240.733 -45.402 -440 0 0.454 -0.891 0 0.891 0.454 1 0 0 2412b.dat
1 15 -312.013 -9.083 -360 0.891 0.454 0 -0.454 0.891 0 0 0 1 54383.dat
1 15 -231.823 -49.942 -380 -0.891 0.454 0 0.454 0.891 0 0 0 -1 6180.dat
1 15 -124.902 -104.418 -360 0 0.454 0.891 0 0.891 -0.454 -1 0 0 6180.dat
1 15 -169.452 -81.72 -360 0 0.454 0.891 0 0.891 -0.454 -1 0 0 6636.dat
1 80 -112.36 -101.83 -370 0 0.454 0.891 0 0.891 -0.454 -1 0 0 6141.dat
1 72 -112.36 -101.83 -440 0 0.454 0.891 0 0.891 -0.454 -1 0 0 3666.dat
1 15 -103.45 -106.37 -540 0 0.454 -0.891 0 0.891 0.454 1 0 0 51739.dat
1 71 -254.921 -29.194 -240 0 0.454 -0.891 0 0.891 0.454 1 0 0 60479.dat
1 71 -174.73 -70.052 -300 0.891 0.454 0 -0.454 0.891 0 0 0 1 3036.dat
1 15 -231.823 -49.942 -330 0.891 0.454 0 -0.454 0.891 0 0 0 1 6636.dat
1 72 -231.823 -49.942 -310 0.891 0.454 0 -0.454 0.891 0 0 0 1 3666.dat
1 71 -174.73 -70.052 -180 0.891 0.454 0 -0.454 0.891 0 0 0 1 3036.dat
1 71 -317.292 2.586 -240 0.891 0.454 0 -0.454 0.891 0 0 0 1 30356.dat
1 15 -347.655 9.077 -240 0.891 0.454 0 -0.454 0.891 0 0 0 1 54383.dat
1 15 -312.013 -9.083 -240 0 0.454 0.891 0 0.891 -0.454 -1 0 0 6636.dat
1 15 -196.183 -68.1 -240 -0.891 0.454 0 0.454 0.891 0 0 0 -1 6178.dat
1 15 -107.082 -113.498 -60 0 0.454 0.891 0 0.891 -0.454 -1 0 0 2445.dat
1 15 -356.565 13.616 -60 0 0.454 0.891 0 0.891 -0.454 -1 0 0 2445.dat
1 71 -228.191 -42.812 -60 -0.891 0.454 0 0.454 0.891 0 0 0 -1 3456.dat
1 71 -228.191 -42.812 20 -0.891 0.454 0 0.454 0.891 0 0 0 -1 91988.dat
1 80 -94.54 -110.91 50 -0.891 0.454 0 0.454 0.891 0 0 0 -1 6141.dat
1 80 -361.843 25.284 -110 -0.891 0.454 0 0.454 0.891 0 0 0 -1 6141.dat
1 80 -361.843 25.284 30 -0.891 0.454 0 0.454 0.891 0 0 0 -1 6141.dat
1 15 -320.923 -4.543 -140 0 0.454 0.891 0 0.891 -0.454 -1 0 0 87079.dat
1 15 -285.283 -22.702 -140 0 0.454 0.891 0 0.891 -0.454 -1 0 0 87079.dat
1 15 -240.733 -45.402 -120 0 0.454 0.891 0 0.891 -0.454 -1 0 0 88646.dat
1 15 -214.003 -59.02 -170 0.891 0.454 0 -0.454 0.891 0 0 0 1 6636.dat
1 15 -303.103 -13.623 -90 0.891 0.454 0 -0.454 0.891 0 0 0 1 3710.dat
1 15 -151.632 -90.8 -120 0 0.454 0.891 0 0.891 -0.454 -1 0 0 88646.dat
1 15 -142.722 -95.34 -170 0.891 0.454 0 -0.454 0.891 0 0 0 1 3069b.dat
1 80 -187.272 -72.64 -100 0 0.454 -0.891 0 0.891 0.454 1 0 0 2412b.dat
1 80 -205.093 -63.56 -100 0 0.454 -0.891 0 0.891 0.454 1 0 0 2412b.dat
1 72 -178.362 -77.18 -70 0.891 0.454 0 -0.454 0.891 0 0 0 1 3666.dat
1 72 -285.283 -22.702 -70 0.891 0.454 0 -0.454 0.891 0 0 0 1 3666.dat
1 15 -285.283 -22.702 0 0 0.454 -0.891 0 0.891 0.454 1 0 0 3958.dat
1 15 -178.362 -77.18 0 0 0.454 -0.891 0 0.891 0.454 1 0 0 3958.dat
1 71 -260.199 -17.526 -280 0.891 0.454 0 -0.454 0.891 0 0 0 1 30356.dat
1 72 -224.559 -35.684 -140 0.891 0.454 0 -0.454 0.891 0 0 0 1 11203.dat
1 72 -224.559 -35.684 -100 0.891 0.454 0 -0.454 0.891 0 0 0 1 11203.dat
1 25 -278.019 -8.446 -50 0 0.454 0.891 0 0.891 -0.454 -1 0 0 50305.dat
1 25 -295.839 0.634 0 -0.891 0.454 0 0.454 0.891 0 0 0 -1 3795.dat
1 25 -206.739 -44.764 -10 -0.891 0.454 0 0.454 0.891 0 0 0 -1 3023.dat
1 25 -233.469 -31.146 0 0 0.454 -0.891 0 0.891 0.454 1 0 0 3023.dat
1 80 -340.391 23.333 30 -0.891 0.454 0 0.454 0.891 0 0 0 -1 6141.dat
1 72 -171.099 -62.924 -140 0 0.454 -0.891 0 0.891 0.454 1 0 0 2445.dat
1 72 -171.099 -62.924 -380 0 0.454 -0.891 0 0.891 0.454 1 0 0 2445.dat
1 80 -180.009 -58.384 -510 0 0.454 0.891 0 0.891 -0.454 -1 0 0 6141.dat
1 80 -162.189 -67.464 -510 0 0.454 0.891 0 0.891 -0.454 -1 0 0 6141.dat
1 72 -171.099 -62.924 -600 0 0.454 0.891 0 0.891 -0.454 -1 0 0 3034.dat
1 72 -171.099 -62.924 -700 0.891 0.454 0 -0.454 0.891 0 0 0 1 51739.dat
1 71 -117.638 -90.162 -60 0 0.454 0.891 0 0.891 -0.454 -1 0 0 44570.dat
1 71 -117.638 -90.162 -140 0 0.454 0.891 0 0.891 -0.454 -1 0 0 44570.dat
1 71 -117.638 -90.162 -320 0 0.454 0.891 0 0.891 -0.454 -1 0 0 44570.dat
1 0 -144.368 -76.544 -230 0 0.454 0.891 0 0.891 -0.454 -1 0 0 32124.dat
1 25 -299.471 -6.494 70 0.891 0.454 0 -0.454 0.891 0 0 0 1 75144 - subModel-054.ldr
1 15 -130.18 -92.75 70 -0.891 0.454 0 0.454 0.891 0 0 0 -1 75144 - subModel-055.ldr
1 72 -117.638 -90.162 40 -0.891 0.454 0 0.454 0.891 0 0 0 -1 11203.dat
1 72 -260.199 -17.526 40 0.891 0.454 0 -0.454 0.891 0 0 0 1 51739.dat
1 15 -155.264 -97.928 60 0 0.454 0.891 0 0.891 -0.454 -1 0 0 3069b.dat
1 15 -262.185 -43.45 60 0 0.454 0.891 0 0.891 -0.454 -1 0 0 3069b.dat
1 15 -148 -83.672 90 -0.891 0.454 0 0.454 0.891 0 0 0 -1 54200.dat
1 15 -297.825 -25.29 70 -0.891 0.454 0 0.454 0.891 0 0 0 -1 2450.dat
1 15 -119.624 -116.086 70 0 0.454 -0.891 0 0.891 0.454 1 0 0 2450.dat
1 15 -196.183 -68.1 -140 0 0.454 -0.891 0 0.891 0.454 1 0 0 2460.dat
1 15 -181.994 -84.308 -740 0.891 0.454 0 -0.454 0.891 0 0 0 1 48183.dat
1 80 -181.994 -84.308 -710 -0.891 0.454 0 0.454 0.891 0 0 0 -1 2412b.dat
1 15 -181.995 -84.308 -680 -0.891 0.454 0 0.454 0.891 0 0 0 -1 3680.dat
1 71 -181.995 -84.308 -680 -0.89 0.454 0.033 0.454 0.891 -0.017 -0.037 0 -0.999 3679.dat
1 15 -126.888 -130.342 10 0 0.454 -0.891 0 0.891 0.454 1 0 0 2357.dat
1 15 -109.068 -139.422 30 0 0.454 -0.891 0 0.891 0.454 1 0 0 75144 - subModel-056.ldr
1 15 -287.269 -48.626 10 0.891 0.454 0 -0.454 0.891 0 0 0 1 2357.dat
1 15 -305.089 -39.547 30 0 0.454 0.891 0 0.891 -0.454 -1 0 0 3040b.dat
1 71 -164.513 -138.107 30 0.891 0.454 0 -0.454 0.891 0 0 0 1 3245c.dat
1 71 -271.433 -83.63 30 0.891 0.454 0 -0.454 0.891 0 0 0 1 3245c.dat
1 71 -207.078 -89.485 30 -0.891 0.454 0 0.454 0.891 0 0 0 -1 2653.dat
1 15 -298.165 -70.011 30 0 0.454 0.891 0 0.891 -0.454 -1 0 0 3040b.dat
1 15 -137.783 -151.727 30 0 0.454 -0.891 0 0.891 0.454 1 0 0 3040b.dat
1 71 -242.719 -71.326 -20 0 0.454 -0.891 0 0.891 0.454 1 0 0 3001.dat
1 71 -171.438 -107.644 -20 0 0.454 -0.891 0 0.891 0.454 1 0 0 3001.dat
1 19 -271.095 -38.91 -40 0 0.454 -0.891 0 0.891 0.454 1 0 0 3020.dat
1 19 -128.534 -111.546 -40 0 0.454 -0.891 0 0.891 0.454 1 0 0 3020.dat
1 70 -198.168 -94.025 10 0 0.454 -0.891 0 0.891 0.454 1 0 0 3062b.dat
1 70 -215.988 -84.945 10 0 0.454 -0.891 0 0.891 0.454 1 0 0 3062b.dat
1 70 -198.168 -94.025 -50 0 0.454 -0.891 0 0.891 0.454 1 0 0 3062b.dat
1 25 -119.624 -116.086 -20 0 0.454 -0.891 0 0.891 0.454 1 0 0 85984.dat
1 25 -119.624 -116.086 -60 0 0.454 -0.891 0 0.891 0.454 1 0 0 85984.dat
1 25 -280.005 -34.37 -20 0 0.454 0.891 0 0.891 -0.454 -1 0 0 85984.dat
1 25 -280.005 -34.37 -60 0 0.454 0.891 0 0.891 -0.454 -1 0 0 85984.dat
1 1 -265.817 -50.578 -40 0 0.454 0.891 0 0.891 -0.454 -1 0 0 3710.dat
1 1 -141.076 -114.136 -40 0 0.454 0.891 0 0.891 -0.454 -1 0 0 3710.dat
1 15 -306.735 -20.751 10 0 0.454 0.891 0 0.891 -0.454 -1 0 0 92946.dat
1 15 -306.735 -20.751 -10 0 0.454 0.891 0 0.891 -0.454 -1 0 0 92946.dat
1 15 -306.735 -20.751 -30 0 0.454 0.891 0 0.891 -0.454 -1 0 0 92946.dat
1 15 -306.735 -20.751 -50 0 0.454 0.891 0 0.891 -0.454 -1 0 0 92946.dat
1 15 -306.735 -20.751 -70 0 0.454 0.891 0 0.891 -0.454 -1 0 0 92946.dat
1 15 -306.735 -20.751 -90 0 0.454 0.891 0 0.891 -0.454 -1 0 0 92946.dat
1 15 -128.534 -111.546 -90 0.891 0.454 0 -0.454 0.891 0 0 0 1 3710.dat
1 15 -262.185 -43.45 -90 0.891 0.454 0 -0.454 0.891 0 0 0 1 3623.dat
1 71 -207.078 -89.485 -70 0.891 0.454 0 -0.454 0.891 0 0 0 1 2653.dat
1 14 -162.528 -112.184 -70 0.891 0.454 0 -0.454 0.891 0 0 0 1 6541.dat
1 14 -251.629 -66.786 -70 0.891 0.454 0 -0.454 0.891 0 0 0 1 6541.dat
1 28 -301.457 -32.419 -10 0.891 0.454 0 -0.454 0.891 0 0 0 1 3024.dat
1 25 -246.351 -78.454 -60 0.891 0.454 0 -0.454 0.891 0 0 0 1 3022.dat
1 320 -219.619 -92.072 -70 0 0.454 -0.891 0 0.891 0.454 1 0 0 15712.dat
1 320 -166.159 -119.311 -70 0 0.454 -0.891 0 0.891 0.454 1 0 0 15712.dat
1 320 -183.979 -110.232 -60 0 0.454 -0.891 0 0.891 0.454 1 0 0 2412b.dat
1 320 -201.799 -101.152 -60 0 0.454 -0.891 0 0.891 0.454 1 0 0 2412b.dat
1 71 -166.159 -119.311 -50 0 0.454 -0.891 0 0.891 0.454 1 0 0 75144 - subModel-057.ldr
1 72 -249.981 -85.582 -50 -0.891 0.454 0 0.454 0.891 0 0 0 -1 30383.dat
1 72 -249.981 -85.582 -70 -0.891 0.454 0 0.454 0.891 0 0 0 -1 30383.dat
1 71 -159.973 -129.197 -70 0 -0.891 0.454 0 0.454 0.891 -1 0 0 30374.dat
1 71 -251.967 -111.506 -70 0 0.454 0.891 0 0.891 -0.454 -1 0 0 4599b.dat
1 71 -251.967 -111.506 -50 0 0.454 -0.891 0 0.891 0.454 1 0 0 4599b.dat
1 70 -262.523 -88.17 -20 0 0.454 -0.891 0 0.891 0.454 1 0 0 75144 - subModel-058.ldr
1 71 -207.078 -89.485 -290 -0.891 0.454 0 0.454 0.891 0 0 0 -1 2653.dat
1 15 -126.888 -130.342 -290 0 0.454 -0.891 0 0.891 0.454 1 0 0 3040b.dat
1 15 -287.269 -48.626 -290 0 0.454 0.891 0 0.891 -0.454 -1 0 0 3040b.dat
1 15 -144.707 -121.264 -290 -0.891 0.454 0 0.454 0.891 0 0 0 -1 4070.dat
1 15 -162.528 -112.184 -290 -0.891 0.454 0 0.454 0.891 0 0 0 -1 4070.dat
1 15 -251.629 -66.786 -290 -0.891 0.454 0 0.454 0.891 0 0 0 -1 4070.dat
1 15 -269.449 -57.706 -290 -0.891 0.454 0 0.454 0.891 0 0 0 -1 4070.dat
1 15 -244.703 -97.25 -290 0 0.454 -0.891 0 0.891 0.454 1 0 0 4070.dat
1 15 -262.523 -88.17 -290 0 0.454 0.891 0 0.891 -0.454 -1 0 0 4286.dat
1 15 -191.243 -124.488 -290 0 0.454 -0.891 0 0.891 0.454 1 0 0 60477.dat
1 80 -255.999 -53.336 -276 0.891 0 0.454 -0.454 0 0.891 0 -1 0 2412b.dat
1 80 -149.078 -107.814 -276 0.891 0 0.454 -0.454 0 0.891 0 -1 0 2412b.dat
1 15 -126.888 -130.342 -310 0 0.454 -0.891 0 0.891 0.454 1 0 0 3040b.dat
1 15 -110.714 -120.626 -330 0 0.454 -0.891 0 0.891 0.454 1 0 0 92946.dat
1 15 -288.915 -29.83 -330 0 0.454 0.891 0 0.891 -0.454 -1 0 0 92946.dat
1 28 -288.915 -29.83 -310 0 0.454 0.891 0 0.891 -0.454 -1 0 0 75144 - subModel-060.ldr
1 80 -144.707 -121.264 -310 0.891 0.454 0 -0.454 0.891 0 0 0 1 75144 - subModel-061.ldr
1 80 -269.449 -57.706 -310 0.891 0.454 0 -0.454 0.891 0 0 0 1 75144 - subModel-061.ldr
1 19 -171.438 -107.644 -310 0.891 0.454 0 -0.454 0.891 0 0 0 1 11211.dat
1 19 -207.078 -89.485 -310 0.891 0.454 0 -0.454 0.891 0 0 0 1 11211.dat
1 19 -242.719 -71.326 -310 0.891 0.454 0 -0.454 0.891 0 0 0 1 11211.dat
1 80 -184.718 -89.654 -328 -0.891 0 0.454 0.454 0 0.891 0 1 0 75144 - subModel-062.ldr
1 72 -251.629 -66.786 -330 0.891 0.454 0 -0.454 0.891 0 0 0 1 75144 - subModel-063.ldr
1 15 -244.703 -97.25 -310 -0.891 0.454 0 0.454 0.891 0 0 0 -1 2357.dat
1 28 -273.081 -64.834 -310 0.891 0.454 0 -0.454 0.891 0 0 0 1 3024.dat
1 72 -283.637 -41.498 -310 0 0.454 0.891 0 0.891 -0.454 -1 0 0 54200.dat
1 72 -121.44 -119.65 -330 0.891 0.454 0 -0.454 0.891 0 0 0 1 30162.dat
1 72 -281.821 -37.934 -330 0.891 0.454 0 -0.454 0.891 0 0 0 1 30162.dat
1 2 -226.883 -106.329 -310 0.891 0.454 0 -0.454 0.891 0 0 0 1 3062b.dat
1 15 -262.523 -88.17 -330 0 0.454 0.891 0 0.891 -0.454 -1 0 0 4286.dat
1 15 -273.081 -64.834 -310 0 0.454 0.891 0 0.891 -0.454 -1 0 0 54200.dat
1 15 -191.243 -124.488 -320 0 0.454 -0.891 0 0.891 0.454 1 0 0 30363.dat
1 15 -135.797 -125.804 -450 -0.891 0.454 0 0.454 0.891 0 0 0 -1 30363.dat
1 71 -197.462 -112.343 -111.291 -0.454 -0.033 -0.89 -0.891 0.017 0.454 0 0.999 -0.037 33299.dat
1 1 -197.791 -112.175 -101.301 0.033 -0.454 -0.89 -0.017 -0.891 0.454 -0.999 0 -0.037 43093.dat
1 71 -215.925 -102.934 -92.033 0.454 -0.89 -0.033 0.891 0.454 0.017 0 -0.037 0.999 60208.dat
1 0 -211.012 -105.437 -240.93 0.033 0.454 0.89 -0.017 0.891 -0.454 -0.999 0 0.037 50451.dat
1 4 -214.936 -103.439 -122.018 0.89 0.454 -0.033 -0.454 0.891 0.017 0.037 0 0.999 6590.dat
1 4 -213.683 -104.076 -159.98 0.89 0.454 -0.033 -0.454 0.891 0.017 0.037 0 0.999 6590.dat
1 71 -214.343 -103.74 -140 -0.454 -0.89 0.033 -0.891 0.454 -0.017 0 -0.037 -0.999 41531.dat
1 0 -193.465 -103.156 -167.332 -0.052 0.033 -0.998 0.999 -0.017 -0.053 -0.019 -0.999 -0.032 75144 - subModel-064.ldr
1 72 -212.298 -104.782 -201.957 -0.89 0.454 0.033 0.454 0.891 -0.017 -0.037 0 -0.999 4185.dat
1 72 -212.034 -104.917 -209.951 -0.89 0.454 0.033 0.454 0.891 -0.017 -0.037 0 -0.999 4185.dat
1 71 -211.572 -105.152 -223.942 -0.89 0.454 0.033 0.454 0.891 -0.017 -0.037 0 -0.999 98585.dat
1 71 -211.144 -105.37 -236.933 0.89 0.454 -0.033 -0.454 0.891 0.017 0.037 0 0.999 32198.dat
1 71 -210.682 -105.605 -250.923 -0.89 0.454 0.033 0.454 0.891 -0.017 -0.037 0 -0.999 32198.dat
1 71 -210.253 -105.824 -263.914 -0.89 0.454 0.033 0.454 0.891 -0.017 -0.037 0 -0.999 98585.dat
1 15 -266.155 -95.298 -310 0 0.454 0.891 0 0.891 -0.454 -1 0 0 63864.dat
1 15 -221.605 -117.997 -300 0.891 0.454 0 -0.454 0.891 0 0 0 1 87079.dat
1 15 -221.605 -117.997 -330 0.891 0.454 0 -0.454 0.891 0 0 0 1 3710.dat
1 71 -207.641 -107.161 -343.159 -0.454 0.89 -0.036 -0.891 -0.454 0.011 -0.007 0.037 0.999 32198.dat
1 71 -207.026 -107.341 -360.147 0.454 0.89 0.036 0.891 -0.454 -0.011 0.007 0.037 -0.999 75144 - 13971.dat
1 72 -205.555 -107.771 -400.816 -0.454 -0.89 0.036 -0.891 0.454 -0.011 -0.007 -0.037 -0.999 59443.dat
1 80 -206.339 -107.542 -379.133 -0.89 -0.454 -0.036 0.454 -0.891 0.011 -0.037 -0.007 0.999 32187.dat
1 72 -217.973 -110.868 10 -0.891 0.454 0 0.454 0.891 0 0 0 -1 3894.dat
1 0 -195.613 -111.038 20 0 0.454 0.891 0 0.891 -0.454 -1 0 0 2780.dat
1 0 -231.253 -92.879 20 0 0.454 0.891 0 0.891 -0.454 -1 0 0 2780.dat
1 71 -217.973 -110.868 30 0.891 0.454 0 -0.454 0.891 0 0 0 1 3701.dat
1 19 -213.433 -101.958 68 0 -0.454 -0.891 0 -0.891 0.454 -1 0 0 75144 - subModel-065.ldr
1 14 -213.433 -101.958 50 -0.999 -0.052 0 -0.052 0.999 0 0 0 -1 75144 - subModel-066.ldr
1 71 -213.433 -101.958 98 0.454 -0.891 0 0.891 0.454 0 0 0 1 41531.dat
1 72 -213.433 -101.958 115 0.454 0.891 0 0.891 -0.454 0 0 0 -1 75144 - subModel-067.ldr
1 72 -213.433 -101.958 141 0.454 0.891 0 0.891 -0.454 0 0 0 -1 10928.dat
1 15 -166.498 -164.032 30 0 0.454 -0.891 0 0.891 0.454 1 0 0 3040b.dat
1 71 -194.875 -131.616 30 -0.891 0.454 0 0.454 0.891 0 0 0 -1 3623.dat
1 71 -248.335 -104.378 30 -0.891 0.454 0 0.454 0.891 0 0 0 -1 3623.dat
1 71 -212.695 -122.536 10 -0.891 0.454 0 0.454 0.891 0 0 0 -1 3623.dat
1 320 -177.055 -140.696 0 0 0.454 -0.891 0 0.891 0.454 1 0 0 2412b.dat
1 320 -248.335 -104.378 0 0 0.454 -0.891 0 0.891 0.454 1 0 0 2412b.dat
1 320 -266.155 -95.298 0 0 0.454 -0.891 0 0.891 0.454 1 0 0 2412b.dat
1 72 -198.507 -138.744 20 0 0.454 -0.891 0 0.891 0.454 1 0 0 11458.dat
1 72 -216.327 -129.664 20 0 0.454 -0.891 0 0.891 0.454 1 0 0 11458.dat
1 72 -234.147 -120.585 20 0 0.454 -0.891 0 0.891 0.454 1 0 0 11458.dat
1 72 -177.055 -140.696 30 -0.891 0.454 0 0.454 0.891 0 0 0 -1 54200.dat
1 72 -276.713 -71.962 -20 0 0.454 0.891 0 0.891 -0.454 -1 0 0 3937.dat
1 72 -276.713 -71.962 -60 0 0.454 0.891 0 0.891 -0.454 -1 0 0 3937.dat
1 71 -219.959 -136.793 10 -0.891 0.454 0 0.454 0.891 0 0 0 -1 3623.dat
1 71 -281.684 -66.141 -60 0 0.951 -0.31 0 0.31 0.951 1 0 0 6134.dat
1 71 -281.684 -66.141 -20 0 0.951 -0.31 0 0.31 0.951 1 0 0 6134.dat
1 71 -251.967 -111.506 -30 -0.891 0.454 0 0.454 0.891 0 0 0 -1 4735.dat
1 71 -269.787 -102.426 -30 -0.891 0.454 0 0.454 0.891 0 0 0 -1 4735.dat
1 72 -286.202 -78.124 -50 0.31 0.951 0 -0.951 0.31 0 0 0 1 75144 - subModel-068.ldr
1 25 -295.492 -49.585 -50 0.31 0.951 0 -0.951 0.31 0 0 0 1 3070b.dat
1 71 -289.293 -68.614 -70 0.31 0.951 0 -0.951 0.31 0 0 0 1 85861.dat
1 71 -295.473 -49.593 -70 0.31 0.951 0 -0.951 0.31 0 0 0 1 85861.dat
1 72 -292.383 -59.104 -30 0.31 0.951 0 -0.951 0.31 0 0 0 1 15573.dat
1 72 -286.202 -78.124 -10 0.31 0.951 0 -0.951 0.31 0 0 0 1 15573.dat
1 72 -301.457 -32.419 -10 0 0.454 0.891 0 0.891 -0.454 -1 0 0 54200.dat
1 1 -299.991 -61.575 -20 0 0.951 0.31 0 0.31 -0.951 -1 0 0 3710.dat
1 71 -299.991 -61.575 -70 -0.31 0.951 0 0.951 0.31 0 0 0 -1 3623.dat
1 71 -293.81 -80.597 -10 0 0.951 -0.31 0 0.31 0.951 1 0 0 3623.dat
1 15 -236.132 -146.51 -70 0.891 0.454 0 -0.454 0.891 0 0 0 1 6636.dat
1 71 -250.321 -130.302 -40 0.891 0.454 0 -0.454 0.891 0 0 0 1 3031.dat
1 15 -280.683 -123.81 -50 0.891 0.454 0 -0.454 0.891 0 0 0 1 3070b.dat
1 15 -262.863 -132.89 -40 0 0.454 0.891 0 0.891 -0.454 -1 0 0 3069b.dat
1 25 -262.863 -132.89 0 0 0.454 0.891 0 0.891 -0.454 -1 0 0 3069b.dat
1 25 -218.313 -155.589 0 -0.891 0.454 0 0.454 0.891 0 0 0 -1 87079.dat
1 15 -218.313 -155.589 -40 -0.891 0.454 0 0.454 0.891 0 0 0 -1 87079.dat
1 71 -187.95 -162.08 10 0 0.454 -0.891 0 0.891 0.454 1 0 0 3623.dat
1 71 -205.771 -153 -60 0 0.454 -0.891 0 0.891 0.454 1 0 0 3023.dat
1 71 -205.771 -153 -20 0 0.454 0.891 0 0.891 -0.454 -1 0 0 18677.dat
1 15 -236.132 -146.51 30 0.891 0.454 0 -0.454 0.891 0 0 0 1 6636.dat
1 71 -277.051 -116.682 20 0 0.454 -0.891 0 0.891 0.454 1 0 0 18677.dat
1 71 -259.231 -125.762 20 0 0.454 -0.891 0 0.891 0.454 1 0 0 18677.dat
1 71 -219.959 -136.793 -10 0.891 0.454 0 -0.454 0.891 0 0 0 1 3623.dat
1 72 -264.509 -114.094 0 0.891 0.454 0 -0.454 0.891 0 0 0 1 11203.dat
1 25 -280.683 -123.81 10 0.891 0.454 0 -0.454 0.891 0 0 0 1 3070b.dat
1 28 -236.871 -125.932 30 -0.891 0.454 0 0.454 0.891 0 0 0 -1 15462.dat
1 15 -291.239 -100.474 30 0 0.454 0.891 0 0.891 -0.454 -1 0 0 3040b.dat
1 71 -183.411 -153.17 -30 -0.416 -0.891 0.182 -0.817 0.454 0.356 -0.4 0 -0.917 75144 - subModel-069.ldr
1 72 -151.971 -135.519 -20 0.891 0.454 0 -0.454 0.891 0 0 0 1 75144 - subModel-070.ldr
1 72 -151.971 -135.519 -60 0.891 0.454 0 -0.454 0.891 0 0 0 1 75144 - subModel-070.ldr
1 72 -268.141 -121.222 -90 0 0.454 0.891 0 0.891 -0.454 -1 0 0 75144 - subModel-071.ldr
1 72 -196.861 -157.54 -90 0 0.454 -0.891 0 0.891 0.454 1 0 0 75144 - subModel-072.ldr
1 25 -280.683 -123.81 -20 0 0.454 0.891 0 0.891 -0.454 -1 0 0 75144 - subModel-073.ldr
1 15 -310.689 -54.535 -40 0 0.951 0.31 0 0.31 -0.951 -1 0 0 3068b.dat
1 15 -301.419 -83.067 -30 0 0.951 0.31 0 0.31 -0.951 -1 0 0 3070b.dat
1 25 -304.509 -73.556 -10 -0.31 0.951 0 0.951 0.31 0 0 0 -1 3069b.dat
1 25 -307.598 -64.044 10 -0.31 0.951 0 0.951 0.31 0 0 0 -1 63864.dat
1 15 -304.511 -73.559 -80 0.31 0.951 0 -0.951 0.31 0 0 0 1 87079.dat
1 15 -236.132 -146.51 -90 -0.891 0.454 0 0.454 0.891 0 0 0 -1 6636.dat
1 47 -149.647 -64.876 -340 -0.891 0.454 0 0.454 0.891 0 0 0 -1 2654.dat
1 47 -149.647 -64.876 -300 -0.891 0.454 0 0.454 0.891 0 0 0 -1 2654.dat
1 72 -149.647 -64.876 -40 -0.891 0.454 0 0.454 0.891 0 0 0 -1 11203.dat
1 72 -149.647 -64.876 -100 -0.891 0.454 0 0.454 0.891 0 0 0 -1 11203.dat
1 72 -149.647 -64.876 -160 -0.891 0.454 0 0.454 0.891 0 0 0 -1 11203.dat
1 72 -201.243 -109.034 -520.029 0.036 0.454 0.89 -0.011 0.891 -0.454 -0.999 0.007 0.037 75144 - subModel-074.ldr
1 72 -185.956 -91.268 -670.007 -0.89 0.454 0.033 0.454 0.891 -0.017 -0.037 0 -0.999 32530.dat
1 15 -185.297 -91.604 -689.993 -0.89 0.454 0.033 0.454 0.891 -0.017 -0.037 0 -0.999 3069b.dat
1 72 -190.933 -113.423 -821.859 -0.033 -0.454 0.89 0.017 -0.891 -0.454 0.999 0 0.037 75144 - subModel-075.ldr
1 71 201.461 -56.431 -680 0.891 -0.454 0 0.454 0.891 0 0 0 1 50305.dat
1 71 148 -83.671 -680 0.891 -0.454 0 0.454 0.891 0 0 0 1 50304.dat
1 19 178.362 -77.179 -700 0 -0.454 -0.891 0 0.891 -0.454 1 0 0 3020.dat
1 15 178.362 -77.179 -760 0.891 -0.454 0 0.454 0.891 0 0 0 1 48183.dat
1 15 142.722 -95.339 -690 0.891 -0.454 0 0.454 0.891 0 0 0 1 43722.dat
1 15 214.003 -59.019 -690 0.891 -0.454 0 0.454 0.891 0 0 0 1 43723.dat
1 15 178.362 -77.179 -600 0 -0.454 -0.891 0 0.891 -0.454 1 0 0 6180.dat
1 71 156.91 -79.131 -480 0 -0.454 -0.891 0 0.891 -0.454 1 0 0 3029.dat
1 71 246.011 -33.732 -480 0.891 -0.454 0 0.454 0.891 0 0 0 1 30355.dat
1 15 115.992 -108.958 -600 0.891 -0.454 0 0.454 0.891 0 0 0 1 54383.dat
1 15 240.733 -45.4 -600 0.891 -0.454 0 0.454 0.891 0 0 0 1 54384.dat
1 15 276.373 -27.24 -480 0.891 -0.454 0 0.454 0.891 0 0 0 1 54384.dat
1 15 124.902 -104.418 -480 0 -0.454 -0.891 0 0.891 -0.454 1 0 0 6180.dat
1 15 187.272 -72.639 -500 0 -0.454 -0.891 0 0.891 -0.454 1 0 0 88646.dat
1 15 231.823 -49.94 -500 0 -0.454 -0.891 0 0.891 -0.454 1 0 0 87079.dat
1 15 196.183 -68.099 -440 -0.891 -0.454 0 -0.454 0.891 0 0 0 -1 87079.dat
1 80 240.733 -45.4 -440 0 -0.454 0.891 0 0.891 0.454 -1 0 0 2412b.dat
1 15 124.902 -104.418 -360 0 -0.454 -0.891 0 0.891 -0.454 1 0 0 6180.dat
1 15 169.452 -81.719 -360 0 -0.454 -0.891 0 0.891 -0.454 1 0 0 6636.dat
1 15 231.823 -49.94 -380 -0.891 -0.454 0 -0.454 0.891 0 0 0 -1 6180.dat
1 15 312.013 -9.08 -360 0.891 -0.454 0 0.454 0.891 0 0 0 1 54384.dat
1 80 112.36 -101.83 -370 0.891 -0.454 0 0.454 0.891 0 0 0 1 6141.dat
1 72 112.36 -101.83 -440 0 -0.454 0.891 0 0.891 0.454 -1 0 0 3666.dat
1 15 103.45 -106.37 -540 0 -0.454 0.891 0 0.891 0.454 -1 0 0 51739.dat
1 71 174.73 -70.051 -300 0.891 -0.454 0 0.454 0.891 0 0 0 1 3036.dat
1 71 254.921 -29.192 -240 0 -0.454 0.891 0 0.891 0.454 -1 0 0 60479.dat
1 15 231.823 -49.94 -330 -0.891 -0.454 0 -0.454 0.891 0 0 0 -1 6636.dat
1 72 231.823 -49.94 -310 -0.891 -0.454 0 -0.454 0.891 0 0 0 -1 3666.dat
1 71 174.73 -70.051 -180 0.891 -0.454 0 0.454 0.891 0 0 0 1 3036.dat
1 71 317.292 2.588 -240 0.891 -0.454 0 0.454 0.891 0 0 0 1 30355.dat
1 15 347.654 9.079 -240 0.891 -0.454 0 0.454 0.891 0 0 0 1 54384.dat
1 15 312.013 -9.08 -240 0 -0.454 -0.891 0 0.891 -0.454 1 0 0 6636.dat
1 15 196.183 -68.099 -240 -0.891 -0.454 0 -0.454 0.891 0 0 0 -1 6178.dat
1 15 107.082 -113.498 -60 0 -0.454 0.891 0 0.891 0.454 -1 0 0 2445.dat
1 15 356.564 13.619 -60 0 -0.454 0.891 0 0.891 0.454 -1 0 0 2445.dat
1 71 228.191 -42.811 -60 -0.891 -0.454 0 -0.454 0.891 0 0 0 -1 3456.dat
1 71 228.191 -42.811 20 -0.891 -0.454 0 -0.454 0.891 0 0 0 -1 91988.dat
1 80 361.842 25.287 -110 0.891 -0.454 0 0.454 0.891 0 0 0 1 6141.dat
1 80 361.842 25.287 30 0.891 -0.454 0 0.454 0.891 0 0 0 1 6141.dat
1 80 94.54 -110.91 50 0.891 -0.454 0 0.454 0.891 0 0 0 1 6141.dat
1 15 320.923 -4.54 -140 0 -0.454 0.891 0 0.891 0.454 -1 0 0 87079.dat
1 15 285.283 -22.7 -140 0 -0.454 0.891 0 0.891 0.454 -1 0 0 87079.dat
1 15 303.103 -13.62 -90 0.891 -0.454 0 0.454 0.891 0 0 0 1 3710.dat
1 15 214.003 -59.019 -170 -0.891 -0.454 0 -0.454 0.891 0 0 0 -1 6636.dat
1 15 240.733 -45.4 -120 0 -0.454 -0.891 0 0.891 -0.454 1 0 0 88646.dat
1 15 151.632 -90.799 -120 0 -0.454 -0.891 0 0.891 -0.454 1 0 0 88646.dat
1 15 142.722 -95.339 -170 0.891 -0.454 0 0.454 0.891 0 0 0 1 3069b.dat
1 80 187.272 -72.639 -100 0 -0.454 0.891 0 0.891 0.454 -1 0 0 2412b.dat
1 80 205.093 -63.559 -100 0 -0.454 0.891 0 0.891 0.454 -1 0 0 2412b.dat
1 72 231.823 -49.94 -70 0.891 -0.454 0 0.454 0.891 0 0 0 1 60479.dat
1 15 178.362 -77.179 0 -0.891 -0.454 0 -0.454 0.891 0 0 0 -1 3958.dat
1 15 285.283 -22.7 0 -0.891 -0.454 0 -0.454 0.891 0 0 0 -1 3958.dat
1 80 340.39 23.335 30 0.891 -0.454 0 0.454 0.891 0 0 0 1 6141.dat
1 25 295.839 0.636 0 0.891 -0.454 0 0.454 0.891 0 0 0 1 3795.dat
1 25 206.739 -44.763 -10 0.891 -0.454 0 0.454 0.891 0 0 0 1 3023.dat
1 25 233.469 -31.144 0 0 -0.454 0.891 0 0.891 0.454 -1 0 0 3023.dat
1 25 278.019 -8.444 -50 0 -0.454 -0.891 0 0.891 -0.454 1 0 0 50304.dat
1 72 224.559 -35.683 -100 0 -0.454 -0.891 0 0.891 -0.454 1 0 0 11203.dat
1 72 224.559 -35.683 -140 0 -0.454 -0.891 0 0.891 -0.454 1 0 0 11203.dat
1 71 260.199 -17.524 -280 0.891 -0.454 0 0.454 0.891 0 0 0 1 30355.dat
1 72 171.099 -62.923 -140 0 -0.454 0.891 0 0.891 0.454 -1 0 0 2445.dat
1 72 171.099 -62.923 -380 0 -0.454 0.891 0 0.891 0.454 -1 0 0 2445.dat
1 80 180.009 -58.383 -510 0.891 -0.454 0 0.454 0.891 0 0 0 1 6141.dat
1 80 162.189 -67.463 -510 0.891 -0.454 0 0.454 0.891 0 0 0 1 6141.dat
1 72 171.099 -62.923 -600 0 -0.454 0.891 0 0.891 0.454 -1 0 0 3034.dat
1 72 171.099 -62.923 -700 0.891 -0.454 0 0.454 0.891 0 0 0 1 51739.dat
1 71 117.638 -90.162 -60 0 -0.454 -0.891 0 0.891 -0.454 1 0 0 44570.dat
1 71 117.638 -90.162 -140 0 -0.454 -0.891 0 0.891 -0.454 1 0 0 44570.dat
1 71 117.638 -90.162 -320 0 -0.454 -0.891 0 0.891 -0.454 1 0 0 44570.dat
1 0 144.368 -76.543 -230 0 -0.454 -0.891 0 0.891 -0.454 1 0 0 32124.dat
1 15 299.471 -6.492 70 0 -0.454 0.891 0 0.891 0.454 -1 0 0 75144 - subModel-077.ldr
1 15 130.18 -92.75 70 0 -0.454 -0.891 0 0.891 -0.454 1 0 0 75144 - subModel-078.ldr
1 72 117.638 -90.162 40 0 -0.454 -0.891 0 0.891 -0.454 1 0 0 11203.dat
1 72 260.199 -17.524 40 0.891 -0.454 0 0.454 0.891 0 0 0 1 51739.dat
1 15 196.183 -68.099 -140 0.891 -0.454 0 0.454 0.891 0 0 0 1 2460.dat
1 15 262.185 -43.448 60 0 -0.454 -0.891 0 0.891 -0.454 1 0 0 3069b.dat
1 15 297.825 -25.288 70 0 -0.454 -0.891 0 0.891 -0.454 1 0 0 2450.dat
1 15 155.264 -97.927 60 0 -0.454 -0.891 0 0.891 -0.454 1 0 0 3069b.dat
1 15 148 -83.671 90 -0.891 -0.454 0 -0.454 0.891 0 0 0 -1 54200.dat
1 15 119.624 -116.086 70 -0.891 -0.454 0 -0.454 0.891 0 0 0 -1 2450.dat
1 15 181.994 -84.307 -740 0.891 -0.454 0 0.454 0.891 0 0 0 1 48183.dat
1 80 181.994 -84.307 -710 0.891 -0.454 0 0.454 0.891 0 0 0 1 2412b.dat
1 15 181.994 -84.307 -680 0.891 -0.454 0 0.454 0.891 0 0 0 1 3680.dat
1 71 181.994 -84.307 -680 0.89 -0.454 0.033 0.454 0.891 0.017 -0.037 0 0.999 3679.dat
1 15 126.888 -130.342 10 0.891 -0.454 0 0.454 0.891 0 0 0 1 2357.dat
1 15 109.068 -139.422 30 0 -0.454 0.891 0 0.891 0.454 -1 0 0 75144 - subModel-056.ldr
1 71 164.514 -138.107 30 -0.891 -0.454 0 -0.454 0.891 0 0 0 -1 3245c.dat
1 71 207.078 -89.483 30 -0.891 -0.454 0 -0.454 0.891 0 0 0 -1 2653.dat
1 71 271.434 -83.628 30 -0.891 -0.454 0 -0.454 0.891 0 0 0 -1 3245c.dat
1 15 287.269 -48.624 10 0 -0.454 -0.891 0 0.891 -0.454 1 0 0 2357.dat
1 15 305.089 -39.544 30 0 -0.454 -0.891 0 0.891 -0.454 1 0 0 3040b.dat
1 15 298.165 -70.008 30 0 -0.454 -0.891 0 0.891 -0.454 1 0 0 3040b.dat
1 15 137.784 -151.727 30 0 -0.454 0.891 0 0.891 0.454 -1 0 0 3040b.dat
1 19 128.534 -111.546 -40 0 -0.454 -0.891 0 0.891 -0.454 1 0 0 3020.dat
1 19 271.095 -38.908 -40 0 -0.454 -0.891 0 0.891 -0.454 1 0 0 3020.dat
1 71 171.438 -107.643 -20 0 -0.454 -0.891 0 0.891 -0.454 1 0 0 3001.dat
1 71 242.719 -71.324 -20 0 -0.454 -0.891 0 0.891 -0.454 1 0 0 3001.dat
1 70 198.168 -94.023 10 0 -0.454 -0.891 0 0.891 -0.454 1 0 0 3062b.dat
1 70 215.988 -84.943 10 0 -0.454 -0.891 0 0.891 -0.454 1 0 0 3062b.dat
1 70 198.168 -94.023 -50 0 -0.454 -0.891 0 0.891 -0.454 1 0 0 3062b.dat
1 1 265.817 -50.576 -40 0 -0.454 -0.891 0 0.891 -0.454 1 0 0 3710.dat
1 25 280.005 -34.368 -20 0 -0.454 -0.891 0 0.891 -0.454 1 0 0 85984.dat
1 25 280.005 -34.368 -60 0 -0.454 -0.891 0 0.891 -0.454 1 0 0 85984.dat
1 1 141.076 -114.135 -40 0 -0.454 -0.891 0 0.891 -0.454 1 0 0 3710.dat
1 25 119.624 -116.086 -60 0 -0.454 0.891 0 0.891 0.454 -1 0 0 85984.dat
1 25 119.624 -116.086 -20 0 -0.454 0.891 0 0.891 0.454 -1 0 0 85984.dat
1 15 306.735 -20.748 10 0 -0.454 -0.891 0 0.891 -0.454 1 0 0 92946.dat
1 15 306.735 -20.748 -10 0 -0.454 -0.891 0 0.891 -0.454 1 0 0 92946.dat
1 15 306.735 -20.748 -30 0 -0.454 -0.891 0 0.891 -0.454 1 0 0 92946.dat
1 15 306.735 -20.748 -50 0 -0.454 -0.891 0 0.891 -0.454 1 0 0 92946.dat
1 15 306.735 -20.748 -70 0 -0.454 -0.891 0 0.891 -0.454 1 0 0 92946.dat
1 15 306.735 -20.748 -90 0 -0.454 -0.891 0 0.891 -0.454 1 0 0 92946.dat
1 28 301.457 -32.416 -10 0 -0.454 -0.891 0 0.891 -0.454 1 0 0 3024.dat
1 15 128.534 -111.546 -90 -0.891 -0.454 0 -0.454 0.891 0 0 0 -1 3710.dat
1 14 162.528 -112.183 -70 -0.891 -0.454 0 -0.454 0.891 0 0 0 -1 6541.dat
1 14 251.629 -66.784 -70 -0.891 -0.454 0 -0.454 0.891 0 0 0 -1 6541.dat
1 15 262.185 -43.448 -90 -0.891 -0.454 0 -0.454 0.891 0 0 0 -1 3623.dat
1 71 207.078 -89.483 -70 0.891 -0.454 0 0.454 0.891 0 0 0 1 2653.dat
1 25 246.351 -78.452 -60 0.891 -0.454 0 0.454 0.891 0 0 0 1 3022.dat
1 320 219.62 -92.071 -70 0 -0.454 0.891 0 0.891 0.454 -1 0 0 15712.dat
1 320 166.16 -119.311 -70 0 -0.454 0.891 0 0.891 0.454 -1 0 0 15712.dat
1 320 183.98 -110.231 -60 0 -0.454 0.891 0 0.891 0.454 -1 0 0 2412b.dat
1 320 201.8 -101.151 -60 0 -0.454 0.891 0 0.891 0.454 -1 0 0 2412b.dat
1 320 166.16 -119.311 -50 0 -0.454 0.891 0 0.891 0.454 -1 0 0 75144 - subModel-057.ldr
1 72 249.982 -85.58 -50 0.891 -0.454 0 0.454 0.891 0 0 0 1 30383.dat
1 72 249.982 -85.58 -70 0.891 -0.454 0 0.454 0.891 0 0 0 1 30383.dat
1 71 159.974 -129.197 -70 0 0.891 0.454 0 0.454 -0.891 -1 0 0 30374.dat
1 71 251.968 -111.504 -50 0 -0.454 0.891 0 0.891 0.454 -1 0 0 4599b.dat
1 71 251.968 -111.504 -70 0 -0.454 -0.891 0 0.891 -0.454 1 0 0 4599b.dat
1 14 262.524 -88.168 -20 0 -0.454 0.891 0 0.891 0.454 -1 0 0 75144 - subModel-079.ldr
1 15 126.888 -130.342 -290 0 -0.454 0.891 0 0.891 0.454 -1 0 0 3040b.dat
1 15 287.269 -48.624 -290 0 -0.454 -0.891 0 0.891 -0.454 1 0 0 3040b.dat
1 71 207.078 -89.483 -290 -0.891 -0.454 0 -0.454 0.891 0 0 0 -1 2653.dat
1 15 251.629 -66.784 -290 -0.891 -0.454 0 -0.454 0.891 0 0 0 -1 4070.dat
1 15 269.449 -57.704 -290 -0.891 -0.454 0 -0.454 0.891 0 0 0 -1 4070.dat
1 15 144.708 -121.263 -290 -0.891 -0.454 0 -0.454 0.891 0 0 0 -1 4070.dat
1 15 162.528 -112.183 -290 -0.891 -0.454 0 -0.454 0.891 0 0 0 -1 4070.dat
1 15 262.524 -88.168 -290 0 -0.454 -0.891 0 0.891 -0.454 1 0 0 4286.dat
1 15 191.244 -124.487 -290 0 -0.454 0.891 0 0.891 0.454 -1 0 0 60477.dat
1 15 244.704 -97.248 -290 0 -0.454 0.891 0 0.891 0.454 -1 0 0 4070.dat
1 80 149.078 -107.813 -276 -0.891 0 0.454 -0.454 0 -0.891 0 -1 0 2412b.dat
1 80 255.999 -53.334 -276 -0.891 0 0.454 -0.454 0 -0.891 0 -1 0 2412b.dat
1 15 126.888 -130.342 -310 0 -0.454 0.891 0 0.891 0.454 -1 0 0 3040b.dat
1 15 110.714 -120.626 -330 0 -0.454 0.891 0 0.891 0.454 -1 0 0 92946.dat
1 15 288.915 -29.828 -330 0 -0.454 -0.891 0 0.891 -0.454 1 0 0 92946.dat
1 28 288.915 -29.828 -310 0 -0.454 -0.891 0 0.891 -0.454 1 0 0 75144 - subModel-081.ldr
1 28 144.708 -121.263 -310 0.891 -0.454 0 0.454 0.891 0 0 0 1 75144 - subModel-061.ldr
1 19 171.438 -107.643 -310 0.891 -0.454 0 0.454 0.891 0 0 0 1 11211.dat
1 19 207.078 -89.483 -310 0.891 -0.454 0 0.454 0.891 0 0 0 1 11211.dat
1 19 242.719 -71.324 -310 0.891 -0.454 0 0.454 0.891 0 0 0 1 11211.dat
1 28 269.449 -57.704 -310 0.891 -0.454 0 0.454 0.891 0 0 0 1 75144 - subModel-061.ldr
1 80 184.718 -89.653 -328 0.891 0 0.454 0.454 0 -0.891 0 1 0 75144 - subModel-082.ldr
1 72 233.809 -75.864 -330 0.891 -0.454 0 0.454 0.891 0 0 0 1 75144 - subModel-083.ldr
1 15 244.704 -97.248 -310 0 -0.454 0.891 0 0.891 0.454 -1 0 0 2357.dat
1 72 283.637 -41.496 -310 0 -0.454 -0.891 0 0.891 -0.454 1 0 0 54200.dat
1 28 273.081 -64.832 -310 0 -0.454 -0.891 0 0.891 -0.454 1 0 0 3024.dat
1 2 226.884 -106.328 -310 0 -0.454 -0.891 0 0.891 -0.454 1 0 0 3062b.dat
1 72 281.821 -37.932 -330 0.891 -0.454 0 0.454 0.891 0 0 0 1 30162.dat
1 72 121.44 -119.65 -330 0.891 -0.454 0 0.454 0.891 0 0 0 1 30162.dat
1 15 273.081 -64.832 -310 0 -0.454 -0.891 0 0.891 -0.454 1 0 0 54200.dat
1 15 262.524 -88.168 -330 0 -0.454 -0.891 0 0.891 -0.454 1 0 0 4286.dat
1 15 191.244 -124.487 -320 0 -0.454 0.891 0 0.891 0.454 -1 0 0 30363.dat
1 71 197.458 -112.343 -111.279 -0.454 0.033 0.89 0.891 0.017 0.454 0 0.999 -0.037 33299.dat
1 1 197.787 -112.175 -101.286 -0.033 -0.454 0.89 -0.017 0.891 0.454 -0.999 0 -0.037 43093.dat
1 71 215.925 -102.933 -92.033 0.454 0.89 0.033 -0.891 0.454 0.017 0 -0.037 0.999 60208.dat
1 0 211.012 -105.436 -240.93 -0.033 0.454 -0.89 -0.017 -0.891 -0.454 -0.999 0 0.037 50451.dat
1 4 214.936 -103.437 -122.012 -0.89 0.454 0.033 -0.454 -0.891 0.017 0.037 0 0.999 6590.dat
1 4 213.683 -104.075 -159.986 -0.89 0.454 0.033 -0.454 -0.891 0.017 0.037 0 0.999 6590.dat
1 71 214.342 -103.739 -140 -0.454 0.89 -0.033 0.891 0.454 -0.017 0 -0.037 -0.999 41531.dat
1 0 202.541 -120.974 -167.331 0.839 -0.033 0.544 -0.546 -0.017 0.838 -0.019 -0.999 -0.032 75144 - subModel-064.ldr
1 72 212.297 -104.781 -201.957 0.89 0.454 -0.033 0.454 -0.891 -0.017 -0.037 0 -0.999 4185.dat
1 72 212.034 -104.916 -209.951 0.89 0.454 -0.033 0.454 -0.891 -0.017 -0.037 0 -0.999 4185.dat
1 71 211.572 -105.151 -223.942 0.89 0.454 -0.033 0.454 -0.891 -0.017 -0.037 0 -0.999 98585.dat
1 71 211.143 -105.369 -236.933 -0.89 0.454 0.033 -0.454 -0.891 0.017 0.037 0 0.999 32198.dat
1 71 210.682 -105.604 -250.923 0.89 0.454 -0.033 0.454 -0.891 -0.017 -0.037 0 -0.999 32198.dat
1 71 210.253 -105.823 -263.914 0.89 0.454 -0.033 0.454 -0.891 -0.017 -0.037 0 -0.999 98585.dat
1 15 221.766 -117.914 -300.522 -0.891 -0.454 0.015 -0.454 0.891 0.008 -0.017 0 -1 87079.dat
1 15 266.467 -95.138 -309.997 0.015 -0.454 0.891 0.008 0.891 0.454 -1 0 0.017 63864.dat
1 15 221.61 -117.993 -330.524 0.891 -0.454 -0.015 0.454 0.891 -0.008 0.017 0 1 3710.dat
1 71 207.641 -107.16 -343.159 -0.454 -0.89 0.036 0.891 -0.454 0.011 0.007 0.037 0.999 32198.dat
1 71 207.025 -107.34 -360.147 -0.454 0.89 -0.036 0.891 0.454 -0.011 0.007 -0.037 -0.999 75144 - 13971.dat
1 72 205.554 -107.77 -400.816 -0.454 0.89 -0.036 0.891 0.454 -0.011 0.007 -0.037 -0.999 59443.dat
1 80 206.339 -107.541 -379.133 0.454 0.89 0.036 -0.891 0.454 0.011 -0.007 -0.037 0.999 32187.dat
1 72 217.974 -110.867 10 -0.891 -0.454 0 -0.454 0.891 0 0 0 -1 3894.dat
1 0 231.254 -92.878 20 0 -0.454 0.891 0 0.891 0.454 -1 0 0 2780.dat
1 0 195.615 -111.038 20 0 -0.454 0.891 0 0.891 0.454 -1 0 0 2780.dat
1 71 217.974 -110.867 30 0.891 -0.454 0 0.454 0.891 0 0 0 1 3701.dat
1 19 213.434 -101.957 68 0 0.454 -0.891 0 -0.891 -0.454 -1 0 0 75144 - subModel-065.ldr
1 14 213.434 -101.957 50 -0.546 -0.839 0 -0.839 0.546 0 0 0 -1 75144 - subModel-066.ldr
1 71 213.434 -101.957 98 -0.454 -0.891 0 0.891 -0.454 0 0 0 1 41531.dat
1 72 213.434 -101.957 115 -0.454 0.891 0 0.891 0.454 0 0 0 -1 75144 - subModel-067.ldr
1 72 213.434 -101.957 141 -0.454 0.891 0 0.891 0.454 0 0 0 -1 10928.dat
1 15 166.499 -164.031 30 0 -0.454 0.891 0 0.891 0.454 -1 0 0 3040b.dat
1 71 194.876 -131.615 30 0.891 -0.454 0 0.454 0.891 0 0 0 1 3623.dat
1 71 248.336 -104.376 30 0.891 -0.454 0 0.454 0.891 0 0 0 1 3623.dat
1 71 212.696 -122.535 10 0.891 -0.454 0 0.454 0.891 0 0 0 1 3623.dat
1 320 177.056 -140.695 0 0 -0.454 -0.891 0 0.891 -0.454 1 0 0 2412b.dat
1 320 248.336 -104.376 0 0 -0.454 -0.891 0 0.891 -0.454 1 0 0 2412b.dat
1 320 266.156 -95.296 0 0 -0.454 -0.891 0 0.891 -0.454 1 0 0 2412b.dat
1 72 177.056 -140.695 30 -0.891 -0.454 0 -0.454 0.891 0 0 0 -1 54200.dat
1 72 198.508 -138.743 20 0 -0.454 -0.891 0 0.891 -0.454 1 0 0 11458.dat
1 72 216.328 -129.663 20 0 -0.454 -0.891 0 0.891 -0.454 1 0 0 11458.dat
1 72 234.148 -120.584 20 0 -0.454 -0.891 0 0.891 -0.454 1 0 0 11458.dat
1 72 276.713 -71.96 -20 0 -0.454 -0.891 0 0.891 -0.454 1 0 0 3937.dat
1 72 276.713 -71.96 -60 0 -0.454 -0.891 0 0.891 -0.454 1 0 0 3937.dat
1 71 219.96 -136.792 10 -0.891 -0.454 0 -0.454 0.891 0 0 0 -1 3623.dat
1 71 253.784 -115.068 -30 -0.891 -0.454 0 -0.454 0.891 0 0 0 -1 4735.dat
1 71 269.788 -102.424 -30 -0.891 -0.454 0 -0.454 0.891 0 0 0 -1 4735.dat
1 71 281.683 -66.14 -60 0 -0.951 0.309 0 0.309 0.951 -1 0 0 6134.dat
1 71 281.683 -66.14 -20 0 -0.951 0.309 0 0.309 0.951 -1 0 0 6134.dat
1 71 289.292 -68.612 -70 0 -0.951 0.309 0 0.309 0.951 -1 0 0 85861.dat
1 71 295.472 -49.591 -70 0 -0.951 0.309 0 0.309 0.951 -1 0 0 85861.dat
1 25 295.472 -49.591 -50 0 -0.951 0.309 0 0.309 0.951 -1 0 0 3070b.dat
1 25 286.202 -78.123 -50 -0.309 -0.951 0 -0.951 0.309 0 0 0 -1 75144 - subModel-068.ldr
1 72 292.382 -59.102 -30 -0.309 -0.951 0 -0.951 0.309 0 0 0 -1 15573.dat
1 72 286.202 -78.123 -10 -0.309 -0.951 0 -0.951 0.309 0 0 0 -1 15573.dat
1 1 299.99 -61.573 -20 0 -0.951 -0.309 0 0.309 -0.951 1 0 0 3710.dat
1 71 293.81 -80.595 -10 0 -0.951 -0.309 0 0.309 -0.951 1 0 0 3623.dat
1 71 299.993 -61.574 -70 0.309 -0.951 0 0.951 0.309 0 0 0 1 3623.dat
1 71 250.322 -130.3 -40 0.891 -0.454 0 0.454 0.891 0 0 0 1 3031.dat
1 15 236.134 -146.508 -70 0.891 -0.454 0 0.454 0.891 0 0 0 1 6636.dat
1 15 280.684 -123.808 -50 0.891 -0.454 0 0.454 0.891 0 0 0 1 3070b.dat
1 25 262.864 -132.888 0 0 -0.454 -0.891 0 0.891 -0.454 1 0 0 3069b.dat
1 15 262.864 -132.888 -40 0 -0.454 -0.891 0 0.891 -0.454 1 0 0 3069b.dat
1 15 218.314 -155.588 -40 -0.891 -0.454 0 -0.454 0.891 0 0 0 -1 87079.dat
1 25 218.314 -155.588 0 -0.891 -0.454 0 -0.454 0.891 0 0 0 -1 87079.dat
1 71 187.951 -162.079 10 0 -0.454 -0.891 0 0.891 -0.454 1 0 0 3623.dat
1 71 205.772 -152.999 -60 0 -0.454 -0.891 0 0.891 -0.454 1 0 0 3023.dat
1 71 205.772 -152.999 -20 0 -0.454 0.891 0 0.891 0.454 -1 0 0 18677.dat
1 15 236.134 -146.508 30 0.891 -0.454 0 0.454 0.891 0 0 0 1 6636.dat
1 71 277.052 -116.68 20 0 -0.454 -0.891 0 0.891 -0.454 1 0 0 18677.dat
1 71 259.232 -125.76 20 0 -0.454 -0.891 0 0.891 -0.454 1 0 0 18677.dat
1 71 219.96 -136.792 -10 0.891 -0.454 0 0.454 0.891 0 0 0 1 3623.dat
1 72 264.51 -114.092 0 0.891 -0.454 0 0.454 0.891 0 0 0 1 11203.dat
1 25 280.684 -123.808 10 0.891 -0.454 0 0.454 0.891 0 0 0 1 3070b.dat
1 28 236.872 -125.93 30 0.891 -0.454 0 0.454 0.891 0 0 0 1 15462.dat
1 15 291.24 -100.472 30 0 -0.454 -0.891 0 0.891 -0.454 1 0 0 3040b.dat
1 14 183.412 -153.169 -30 -0.416 0.891 -0.182 0.817 0.454 0.356 0.4 0 -0.917 75144 - subModel-069.ldr
1 14 151.972 -135.519 -20 -0.891 -0.454 0 -0.454 0.891 0 0 0 -1 75144 - subModel-070.ldr
1 14 151.972 -135.519 -60 -0.891 -0.454 0 -0.454 0.891 0 0 0 -1 75144 - subModel-070.ldr
1 14 268.142 -121.22 -90 0 -0.454 -0.891 0 0.891 -0.454 1 0 0 75144 - subModel-072.ldr
1 14 196.862 -157.539 -90 0 -0.454 0.891 0 0.891 0.454 -1 0 0 75144 - subModel-071.ldr
1 25 280.684 -123.808 -20 0 -0.454 -0.891 0 0.891 -0.454 1 0 0 75144 - subModel-084.ldr
1 25 304.511 -73.556 -10 -0.309 -0.951 0 -0.951 0.309 0 0 0 -1 3069b.dat
1 25 307.596 -64.044 10 -0.309 -0.951 0 -0.951 0.309 0 0 0 -1 63864.dat
1 15 310.688 -54.533 -40 -0.309 -0.951 0 -0.951 0.309 0 0 0 -1 3068b.dat
1 15 301.418 -83.065 -30 -0.309 -0.951 0 -0.951 0.309 0 0 0 -1 3070b.dat
1 15 304.513 -73.558 -80 -0.309 -0.951 0 -0.951 0.309 0 0 0 -1 87079.dat
1 15 236.134 -146.508 -90 -0.891 -0.454 0 -0.454 0.891 0 0 0 -1 6636.dat
1 72 149.647 -64.875 -40 -0.891 -0.454 0 -0.454 0.891 0 0 0 -1 11203.dat
1 72 149.647 -64.875 -100 -0.891 -0.454 0 -0.454 0.891 0 0 0 -1 11203.dat
1 72 149.647 -64.875 -160 -0.891 -0.454 0 -0.454 0.891 0 0 0 -1 11203.dat
1 47 149.647 -64.875 -300 -0.891 -0.454 0 -0.454 0.891 0 0 0 -1 2654.dat
1 47 149.647 -64.875 -340 -0.891 -0.454 0 -0.454 0.891 0 0 0 -1 2654.dat
1 72 201.243 -109.033 -520.029 -0.036 -0.454 0.89 -0.011 0.891 0.454 -0.999 0.007 -0.037 75144 - subModel-074.ldr
1 72 185.956 -91.267 -670.007 0.89 -0.454 0.033 0.454 0.891 0.017 -0.037 0 0.999 32530.dat
1 15 185.297 -91.603 -689.993 0.89 -0.454 0.033 0.454 0.891 0.017 -0.037 0 0.999 3069b.dat
1 72 190.933 -113.422 -821.859 0.033 0.454 0.89 0.017 -0.891 0.454 0.999 0 -0.037 75144 - subModel-075.ldr
1 71 -120.059 -144.678 -40 0 -0.326 -0.945 0 0.945 -0.326 1 0 0 3031.dat
1 15 -89.089 -142.467 -40 0 -0.326 -0.945 0 0.945 -0.326 1 0 0 6636.dat
1 72 -101.15 -138.161 10 -0.945 -0.326 0 -0.326 0.945 0 0 0 -1 3023.dat
1 25 -136.361 -158.757 0 -0.945 -0.326 0 -0.326 0.945 0 0 0 -1 87079.dat
1 15 -136.361 -158.757 -60 0.945 -0.326 0 0.326 0.945 0 0 0 1 6179.dat
1 71 120.06 -144.677 -40 -0.945 0.326 0 0.326 0.945 0 0 0 -1 3031.dat
1 15 89.09 -142.47 -40 0 0.326 0.945 0 0.945 -0.326 -1 0 0 6636.dat
1 72 101.15 -138.163 10 0.945 0.326 0 -0.326 0.945 0 0 0 1 3023.dat
1 25 136.363 -158.755 0 0.945 0.326 0 -0.326 0.945 0 0 0 1 87079.dat
1 15 136.363 -158.755 -60 0.945 0.326 0 -0.326 0.945 0 0 0 1 6179.dat
1 72 -20 -50 52 0 1 0 -1 0 0 0 0 1 3795.dat
1 72 -12 -100 52 0 1 0 0 0 1 1 0 0 44301.dat
1 72 -12 -80 52 0 1 0 0 0 1 1 0 0 44301.dat
1 72 -12 -20 52 0 1 0 0 0 1 1 0 0 44301.dat
1 72 -12 0 52 0 1 0 0 0 1 1 0 0 44301.dat
1 72 -12 -50 52 0 1 0 1 0 0 0 0 -1 3176.dat
1 80 -12 -50 82 0 -1 0 1 0 0 0 0 1 6141.dat
1 72 -28 -10 72 0 1 0 1 0 0 0 0 -1 75144 - subModel-085.ldr
1 72 -28 -90 72 0 1 0 1 0 0 0 0 -1 6179.dat
1 72 -36 -80 52 0 1 0 0 0 1 1 0 0 44301.dat
1 72 -36 -30 52 0 1 0 1 0 0 0 0 -1 3020.dat
1 72 -44 -70 52 0 1 0 1 0 0 0 0 -1 3022.dat
1 0 -44 -30 62 0 1 0 1 0 0 0 0 -1 50949.dat
1 80 -44 0 52 0 1 0 0 0 -1 -1 0 0 32028.dat
1 57 -44 -30 42 0 1 0 -1 0 0 0 0 1 3023.dat
1 72 -52 -10 72 0 1 0 1 0 0 0 0 -1 6179.dat
1 72 -52 -90 72 0 1 0 1 0 0 0 0 -1 6179.dat
1 72 -60 -10 52 0 1 0 1 0 0 0 0 -1 3022.dat
1 72 -60 -80 52 0 1 0 0 0 1 1 0 0 44301.dat
1 0 -60 -50 42 0 1 0 -1 0 0 0 0 1 93274.dat
1 72 -60 -50 62 0 1 0 -1 0 0 0 0 1 75144 - subModel-086.ldr
1 80 -68 0 52 0 1 0 0 0 -1 -1 0 0 32028.dat
1 0 -68 -30 62 0 1 0 1 0 0 0 0 -1 50949.dat
1 0 -68 -30 42 0 1 0 -1 0 0 0 0 1 99207.dat
1 0 -68 -70 42 0 1 0 -1 0 0 0 0 1 99207.dat
1 72 -76 -10 72 0 1 0 1 0 0 0 0 -1 6179.dat
1 72 -76 -90 72 0 1 0 1 0 0 0 0 -1 6179.dat
1 72 -84 -30 52 0 1 0 1 0 0 0 0 -1 3020.dat
1 80 -92 0 52 0 1 0 0 0 -1 -1 0 0 32028.dat
1 80 -92 -60 52 0 1 0 0 0 1 1 0 0 32028.dat
1 57 -92 -30 42 0 1 0 1 0 0 0 0 -1 3023.dat
1 80 -92 -20 62 0 1 0 1 0 0 0 0 -1 6141.dat
1 80 -92 -40 62 0 1 0 1 0 0 0 0 -1 6141.dat
1 72 -100 -50 72 0 1 0 1 0 0 0 0 -1 6179.dat
1 72 -100 10 72 0 1 0 0 0 1 1 0 0 3020.dat
1 72 -108 -20 52 0 1 0 -1 0 0 0 0 1 75144 - subModel-087.ldr
1 72 -124 -30 72 0 1 0 1 0 0 0 0 -1 6179.dat
1 80 -30 -70 20 0 0 1 1 0 0 0 1 0 2412b.dat
1 80 -50 -70 20 0 0 1 1 0 0 0 1 0 2412b.dat
1 80 -90 -30 20 0 0 1 1 0 0 0 1 0 2412b.dat
1 80 -70 -30 20 0 0 1 1 0 0 0 1 0 2412b.dat
1 0 -40 -30 20 0 0 1 1 0 0 0 1 0 2460.dat
1 0 -80 -70 20 0 0 1 1 0 0 0 1 0 2460.dat
1 72 4 -10 72 0 -1 0 -1 0 0 0 0 -1 6179.dat
1 72 4 -90 72 0 -1 0 -1 0 0 0 0 -1 6179.dat
1 72 12 -50 52 0 -1 0 -1 0 0 0 0 -1 3176.dat
1 72 12 -20 52 0 -1 0 0 0 -1 1 0 0 44301.dat
1 72 12 0 52 0 -1 0 0 0 -1 1 0 0 44301.dat
1 72 12 -80 52 0 -1 0 0 0 -1 1 0 0 44301.dat
1 72 12 -100 52 0 -1 0 0 0 -1 1 0 0 44301.dat
1 72 20 -50 52 0 -1 0 -1 0 0 0 0 -1 3795.dat
1 80 12 -50 82 0 1 0 -1 0 0 0 0 1 6141.dat
1 72 28 -90 72 0 -1 0 -1 0 0 0 0 -1 6179.dat
1 72 28 -10 72 0 -1 0 -1 0 0 0 0 -1 75144 - subModel-085.ldr
1 72 36 -30 52 0 -1 0 -1 0 0 0 0 -1 3020.dat
1 72 36 -80 52 0 -1 0 0 0 -1 1 0 0 44301.dat
1 72 44 -70 52 0 -1 0 0 0 -1 1 0 0 3022.dat
1 0 44 -30 62 0 -1 0 -1 0 0 0 0 -1 50949.dat
1 57 44 -30 42 0 -1 0 -1 0 0 0 0 -1 3023.dat
1 80 44 0 52 0 -1 0 0 0 -1 1 0 0 32028.dat
1 72 52 -90 72 0 -1 0 -1 0 0 0 0 -1 6179.dat
1 72 52 -10 72 0 -1 0 -1 0 0 0 0 -1 6179.dat
1 72 60 -80 52 0 -1 0 0 0 -1 1 0 0 44301.dat
1 0 60 -50 42 0 -1 0 1 0 0 0 0 1 93274.dat
1 72 60 -10 52 0 -1 0 1 0 0 0 0 1 3022.dat
1 72 60 -50 62 0 -1 0 -1 0 0 0 0 -1 75144 - subModel-086.ldr
1 0 68 -30 62 0 -1 0 -1 0 0 0 0 -1 50949.dat
1 80 68 0 52 0 -1 0 0 0 -1 1 0 0 32028.dat
1 0 68 -30 42 0 -1 0 1 0 0 0 0 1 99207.dat
1 0 68 -70 42 0 -1 0 1 0 0 0 0 1 99207.dat
1 72 76 -90 72 0 -1 0 -1 0 0 0 0 -1 6179.dat
1 72 76 -10 72 0 -1 0 -1 0 0 0 0 -1 6179.dat
1 72 84 -30 52 0 -1 0 1 0 0 0 0 1 3020.dat
1 80 92 0 52 0 -1 0 0 0 -1 1 0 0 32028.dat
1 80 92 -60 52 0 -1 0 0 0 1 -1 0 0 32028.dat
1 57 92 -30 42 0 -1 0 -1 0 0 0 0 -1 3023.dat
1 80 92 -40 62 0 -1 0 -1 0 0 0 0 -1 6141.dat
1 80 92 -20 62 0 -1 0 -1 0 0 0 0 -1 6141.dat
1 72 100 -50 72 0 -1 0 -1 0 0 0 0 -1 6179.dat
1 72 100 10 72 0 -1 0 0 0 -1 1 0 0 3020.dat
1 72 108 -20 52 0 -1 0 -1 0 0 0 0 -1 75144 - subModel-087.ldr
1 72 124 -30 72 0 -1 0 -1 0 0 0 0 -1 6179.dat
1 80 90 -30 20 0 0 -1 -1 0 0 0 1 0 2412b.dat
1 80 70 -30 20 0 0 -1 -1 0 0 0 1 0 2412b.dat
1 80 50 -70 20 0 0 -1 -1 0 0 0 1 0 2412b.dat
1 80 30 -70 20 0 0 -1 -1 0 0 0 1 0 2412b.dat
1 0 40 -30 20 0 0 -1 -1 0 0 0 1 0 2460.dat
1 0 80 -70 20 0 0 -1 -1 0 0 0 1 0 2460.dat
1 0 0 -184 -10 1 0 0 0 -1 0 0 0 -1 4595.dat
1 0 18 -194 0 0 -1 0 0 0 -1 1 0 0 11253.dat
1 0 -18 -194 0 0 1 0 0 0 1 1 0 0 11253.dat
1 0 -18 -194 -20 0 1 0 0 0 -1 -1 0 0 4085c.dat
1 0 18 -194 -20 0 -1 0 0 0 -1 1 0 0 4085c.dat
1 0 0 -192 -40 -1 0 0 0 -1 0 0 0 1 75144 - subModel-088.ldr
1 0 0 -174 20 -1 0 0 0 -1 0 0 0 1 75144 - subModel-089.ldr
1 0 0 -200 -10 0 0 1 0 -1 0 1 0 0 3938.dat
1 0 0 -194 70 0 0 1 0 -1 0 1 0 0 75144 - subModel-090.ldr
1 0 0 -174 -20 0 0 -1 0 1 0 1 0 0 4697b.dat
1 15 -70 -128 -260 0 0 1 0 1 0 -1 0 0 4510.dat
1 72 -50 -128 -200 0 0 -1 0 1 0 1 0 0 3023.dat
1 15 -50 -200 -190 0 0 1 0 1 0 -1 0 0 4460b.dat
1 47 -50 -200 -300 0 0 1 0 1 0 -1 0 0 24607.dat
1 15 -70 -128 -420 0 0 1 0 1 0 -1 0 0 4510.dat
1 72 -50 -128 -400 0 0 -1 0 1 0 1 0 0 3023.dat
1 15 -50 -200 -410 0 0 1 0 1 0 -1 0 0 4460b.dat
1 15 0 -136 -480 1 0 0 0 1 0 0 0 1 75144 - subModel-091.ldr
1 15 70 -128 -260 0 0 -1 0 1 0 1 0 0 4510.dat
1 72 50 -128 -200 0 0 -1 0 1 0 1 0 0 3023.dat
1 15 50 -200 -190 0 0 -1 0 1 0 1 0 0 4460b.dat
1 47 50 -200 -300 0 0 -1 0 1 0 1 0 0 24607.dat
1 15 70 -128 -420 0 0 -1 0 1 0 1 0 0 4510.dat
1 72 50 -128 -380 0 0 -1 0 1 0 1 0 0 3023.dat
1 15 50 -200 -410 0 0 -1 0 1 0 1 0 0 4460b.dat
1 15 -50 -208 -380 0 0 -1 0 1 0 1 0 0 6636.dat
1 15 50 -208 -380 0 0 -1 0 1 0 1 0 0 6636.dat
1 71 0 -192 -220 0 0 -1 0 1 0 1 0 0 3031.dat
1 71 0 -200 -260 0 0 -1 0 1 0 1 0 0 3032.dat
1 71 -20 -200 -190 -1 0 0 0 1 0 0 0 -1 44567.dat
1 71 20 -200 -190 -1 0 0 0 1 0 0 0 -1 44567.dat
1 72 0 -192 -310 -1 0 0 0 1 0 0 0 -1 3023.dat
1 15 0 -208 -290 -1 0 0 0 1 0 0 0 -1 6636.dat
1 15 0 -208 -270 -1 0 0 0 1 0 0 0 -1 6636.dat
1 15 0 -208 -220 1 0 0 0 1 0 0 0 1 6180.dat
1 15 0 -198 -332 -1 0 0 0 0 1 0 1 0 75144 - subModel-092.ldr
1 15 -40 -208 -310 -1 0 0 0 1 0 0 0 -1 3069b.dat
1 15 40 -208 -310 -1 0 0 0 1 0 0 0 -1 3069b.dat
