0
0 // LPub3D step custom colours
0 !COLOUR LPub3D_Highlight_Dark_Bluish_Grey CODE 11072 VALUE #646464 EDGE #FFFFFF00 ALPHA 255
0 !COLOUR LPub3D_Highlight_Trans_Orange CODE 11057 VALUE #F08F1C EDGE #FFFFFF00 ALPHA 128
0 !COLOUR LPub3D_Highlight_Light_Bluish_Grey CODE 11071 VALUE #969696 EDGE #FFFFFF00 ALPHA 255
0
0 !SILHOUETTE 1 #FFFFFF00
1 11071 -10 0 0 0 0 -1 0 1 0 1 0 0 47905.dat
1 11057 -10 -8 0 0 0 -1 0 1 0 1 0 0 30039.dat
1 11072 4 10 0 0 -1 0 -1 0 0 0 0 -1 30162.dat
1 11072 -24 10 0 0 1 0 1 0 0 0 0 -1 30162.dat
0 !SILHOUETTE
