0
0 // LPub3D step custom colours
0 !COLOUR LPub3D_Highlight_Light_Bluish_Grey CODE 11071 VALUE #969696 EDGE #FFFFFF00 ALPHA 255
0 !COLOUR LPub3D_Highlight_Metallic_Silver CODE 11080 VALUE #767676 EDGE #FFFFFF00 ALPHA 255
0 !COLOUR LPub3D_Highlight_Dark_Bluish_Grey CODE 11072 VALUE #646464 EDGE #FFFFFF00 ALPHA 255
0 !COLOUR LPub3D_Highlight_Black CODE 1100 VALUE #1B2A34 EDGE #FFFFFF00 ALPHA 255
0
0 !SILHOUETTE 1 #FFFFFF00
1 1100 0 0 0 1 0 0 0 -1 0 0 0 -1 87079.dat
1 1100 0 0 -40 1 0 0 0 -1 0 0 0 -1 87079.dat
1 11072 0 -8 -30 0 0 1 0 -1 0 1 0 0 3021.dat
1 11072 -30 -8 -40 0 0 -1 0 -1 0 -1 0 0 60478.dat
1 11072 30 -8 -40 0 0 -1 0 -1 0 -1 0 0 60478.dat
1 11080 30 -8 -10 0 0 -1 0 -1 0 -1 0 0 6141.dat
1 11080 -30 -8 -10 0 0 -1 0 -1 0 -1 0 0 6141.dat
1 11071 0 39.988 -59.995 -1 0 0 0 0 1 0 1 0 "75144 - submodel-029-highlight.ldr"
0 !SILHOUETTE
