0
0 // LPub3D step custom colours
0 !COLOUR LPub3D_Highlight_Blue CODE 1101 VALUE #1E5AA8 EDGE #FFFFFF00 ALPHA 255
0 !COLOUR LPub3D_Highlight_Black CODE 1100 VALUE #1B2A34 EDGE #FFFFFF00 ALPHA 255
0
0 !SILHOUETTE 1 #FFFFFF00
1 1100 0 0 0 1 0 0 0 1 0 0 0 1 3701.dat
1 1100 -20 10 -10 0 0 -1 0 1 0 1 0 0 2780.dat
1 1101 20 10 -20 0 0 -1 0 -1 0 -1 0 0 6558.dat
1 1100 0 0 -20 1 0 0 0 1 0 0 0 1 3701.dat
1 1100 0 -8 -10 1 0 0 0 1 0 0 0 1 3020.dat
1 1100 -20 -16 -10 1 0 0 0 1 0 0 0 1 3068b.dat
0 !SILHOUETTE
