0
0 // LPub3D step custom colours
0 !COLOUR LPub3D_Fade_Dark_Bluish_Grey CODE 10072 VALUE #646464 EDGE #33333380 ALPHA 128
0 !COLOUR LPub3D_Fade_Dark_Tan CODE 10028 VALUE #897D62 EDGE #33333380 ALPHA 128
0 !COLOUR LPub3D_Fade_Light_Bluish_Grey CODE 10071 VALUE #969696 EDGE #33333380 ALPHA 128
0
0 !FADE 50
1 10071 0 0 0 0 0 -1 0 1 0 1 0 0 3020.dat
1 10028 10 -8 20 0 0 -1 0 1 0 1 0 0 3023.dat
1 10028 -10 -8 20 0 0 -1 0 1 0 1 0 0 3023.dat
1 10072 0 -8 -10 -1 0 0 0 1 0 0 0 -1 15573.dat
1 10071 0 8 -40 1 0 0 0 1 0 0 0 1 15068.dat
0 !FADE
