0
0 // LPub3D step custom colours
0 !COLOUR LPub3D_Highlight_White CODE 11015 VALUE #F4F4F4 EDGE #FFFFFF00 ALPHA 255
0 !COLOUR LPub3D_Highlight_Orange CODE 11025 VALUE #D67923 EDGE #FFFFFF00 ALPHA 255
0 !COLOUR LPub3D_Highlight_Light_Bluish_Grey CODE 11071 VALUE #969696 EDGE #FFFFFF00 ALPHA 255
0
0 !SILHOUETTE 1 #FFFFFF00
1 11071 0 0 0 -1 0 0 0 1 0 0 0 -1 50305.dat
1 11025 -20 -8 -70 -1 0 0 0 1 0 0 0 -1 63864.dat
1 11015 -20 -8 -50 -1 0 0 0 1 0 0 0 -1 3623.dat
1 11015 -20 -8 20 -1 0 0 0 1 0 0 0 -1 54384.dat
0 !SILHOUETTE
