0
0 // LPub3D step custom colours
0 !COLOUR LPub3D_Fade_Metallic_Silver CODE 10080 VALUE #767676 EDGE #33333380 ALPHA 128
0 !COLOUR LPub3D_Fade_Dark_Bluish_Grey CODE 10072 VALUE #646464 EDGE #33333380 ALPHA 128
0 !COLOUR LPub3D_Fade_Light_Bluish_Grey CODE 10071 VALUE #969696 EDGE #33333380 ALPHA 128
0 !COLOUR LPub3D_Fade_White CODE 10015 VALUE #F4F4F4 EDGE #33333380 ALPHA 128
0
0 !FADE 50
1 10015 0 0 0 -1 0 0 0 1 0 0 0 -1 2419.dat
1 10015 20 -8 -10 -1 0 0 0 1 0 0 0 -1 87079.dat
1 10015 20 -8 50 -1 0 0 0 1 0 0 0 -1 30503.dat
1 10015 50 0 50 0 0 1 0 1 0 -1 0 0 2419.dat
1 10015 70 -8 30 0 0 1 0 1 0 -1 0 0 6636.dat
1 10071 70 8 30 0 0 -1 0 1 0 1 0 0 "75144 - 14704.dat"
1 10015 20 8 30 -1 0 0 0 1 0 0 0 -1 30503.dat
1 10072 60 16 30 0 0 -1 0 1 0 1 0 0 11203.dat
1 10080 10 16 0 1 0 0 0 1 0 0 0 1 93555.dat
1 10080 -10 16 0 1 0 0 0 1 0 0 0 1 93555.dat
1 10080 30 16 0 1 0 0 0 1 0 0 0 1 93555.dat
0 !FADE
