0
0 // LPub3D step custom colours
0 !COLOUR LPub3D_Fade_Light_Bluish_Grey CODE 10071 VALUE #969696 EDGE #33333380 ALPHA 128
0 !COLOUR LPub3D_Fade_Metallic_Silver CODE 10080 VALUE #767676 EDGE #33333380 ALPHA 128
0 !COLOUR LPub3D_Fade_Dark_Bluish_Grey CODE 10072 VALUE #646464 EDGE #33333380 ALPHA 128
0 !COLOUR LPub3D_Fade_Black CODE 1000 VALUE #1B2A34 EDGE #80808080 ALPHA 128
0
0 !FADE 50
1 1000 0 0 0 1 0 0 0 -1 0 0 0 -1 87079.dat
1 1000 0 0 -40 1 0 0 0 -1 0 0 0 -1 87079.dat
1 10072 0 -8 -30 0 0 1 0 -1 0 1 0 0 3021.dat
1 10072 -30 -8 -40 0 0 -1 0 -1 0 -1 0 0 60478.dat
1 10072 30 -8 -40 0 0 -1 0 -1 0 -1 0 0 60478.dat
1 10080 30 -8 -10 0 0 -1 0 -1 0 -1 0 0 6141.dat
1 10080 -30 -8 -10 0 0 -1 0 -1 0 -1 0 0 6141.dat
1 10071 0 39.988 -59.995 -1 0 0 0 0 1 0 1 0 "75144 - submodel-029-fade.ldr"
0 !FADE
