0
0 // LPub3D step custom colours
0 !COLOUR LPub3D_Fade_Light_Bluish_Grey CODE 10071 VALUE #969696 EDGE #33333380 ALPHA 128
0 !COLOUR LPub3D_Fade_Dark_Bluish_Grey CODE 10072 VALUE #646464 EDGE #33333380 ALPHA 128
0 !COLOUR LPub3D_Fade_Black CODE 1000 VALUE #1B2A34 EDGE #80808080 ALPHA 128
0
0 !FADE 50
1 1000 0 0 0 -1 0 0 0 -1 0 0 0 1 87079.dat
1 1000 0 0 -30 -1 0 0 0 -1 0 0 0 1 2431.dat
1 10072 0 -8 -10 0 0 -1 0 -1 0 -1 0 0 3021.dat
1 10071 30 -8 -20 0 0 -1 0 -1 0 -1 0 0 63868.dat
1 10071 -30 -8 -20 0 0 -1 0 -1 0 -1 0 0 63868.dat
1 10071 20 -16 -10 1 0 0 0 -1 0 0 0 -1 6134.dat
1 10071 -20 -16 -10 1 0 0 0 -1 0 0 0 -1 6134.dat
0 !FADE
