0
0 // LPub3D step custom colours
0 !COLOUR LPub3D_Highlight_Light_Bluish_Grey CODE 11071 VALUE #969696 EDGE #FFFFFF00 ALPHA 255
0 !COLOUR LPub3D_Highlight_Blue CODE 1101 VALUE #1E5AA8 EDGE #FFFFFF00 ALPHA 255
0 !COLOUR LPub3D_Highlight_Dark_Bluish_Grey CODE 11072 VALUE #646464 EDGE #FFFFFF00 ALPHA 255
0
0 !SILHOUETTE 1 #FFFFFF00
1 11072 0 0 0 1 0 0 0 1 0 0 0 1 4185.dat
1 11072 0 0 -8 1 0 0 0 1 0 0 0 1 4185.dat
1 1101 -17.321 -10 -13 0 0 1 0 1 0 -1 0 0 4274.dat
1 1101 0 -20 -13 0 0 1 0 1 0 -1 0 0 4274.dat
1 1101 17.321 -10 -13 0 0 1 0 1 0 -1 0 0 4274.dat
1 1101 17.321 10 -13 0 0 1 0 1 0 -1 0 0 4274.dat
1 1101 0 20 -13 0 0 1 0 1 0 -1 0 0 4274.dat
1 1101 -17.321 10 -13 0 0 1 0 1 0 -1 0 0 4274.dat
1 11071 -17.321 -10 -21 0 0 1 1 0 0 0 1 0 85861.dat
1 11071 0 -20 -21 0 0 1 1 0 0 0 1 0 85861.dat
1 11071 17.321 -10 -21 0 0 1 1 0 0 0 1 0 85861.dat
1 11071 17.321 10 -21 0 0 1 1 0 0 0 1 0 85861.dat
1 11071 0 20 -21 0 0 1 1 0 0 0 1 0 85861.dat
1 11071 -17.321 10 -21 0 0 1 1 0 0 0 1 0 85861.dat
0 !SILHOUETTE
