0
0 // LPub3D step custom colours
0 !COLOUR LPub3D_Fade_Dark_Bluish_Grey CODE 10072 VALUE #646464 EDGE #33333380 ALPHA 128
0 !COLOUR LPub3D_Fade_Trans_Orange CODE 10057 VALUE #F08F1C EDGE #9E5C0A40 ALPHA 64
0 !COLOUR LPub3D_Fade_Light_Bluish_Grey CODE 10071 VALUE #969696 EDGE #33333380 ALPHA 128
0
0 !FADE 50
1 10071 -10 0 0 0 0 -1 0 1 0 1 0 0 47905.dat
1 10057 -10 -8 0 0 0 -1 0 1 0 1 0 0 30039.dat
1 10072 4 10 0 0 -1 0 -1 0 0 0 0 -1 30162.dat
1 10072 -24 10 0 0 1 0 1 0 0 0 0 -1 30162.dat
0 !FADE
