0
0 // LPub3D step custom colours
0 !COLOUR LPub3D_Fade_Light_Bluish_Grey CODE 10071 VALUE #969696 EDGE #33333380 ALPHA 128
0 !COLOUR LPub3D_Fade_Blue CODE 1001 VALUE #1E5AA8 EDGE #33333380 ALPHA 128
0 !COLOUR LPub3D_Fade_Dark_Bluish_Grey CODE 10072 VALUE #646464 EDGE #33333380 ALPHA 128
0
0 !FADE 50
1 10072 0 0 0 1 0 0 0 1 0 0 0 1 4185.dat
1 10072 0 0 -8 1 0 0 0 1 0 0 0 1 4185.dat
1 1001 -17.321 -10 -13 0 0 1 0 1 0 -1 0 0 4274.dat
1 1001 0 -20 -13 0 0 1 0 1 0 -1 0 0 4274.dat
1 1001 17.321 -10 -13 0 0 1 0 1 0 -1 0 0 4274.dat
1 1001 17.321 10 -13 0 0 1 0 1 0 -1 0 0 4274.dat
1 1001 0 20 -13 0 0 1 0 1 0 -1 0 0 4274.dat
1 1001 -17.321 10 -13 0 0 1 0 1 0 -1 0 0 4274.dat
1 10071 -17.321 -10 -21 0 0 1 1 0 0 0 1 0 85861.dat
1 10071 0 -20 -21 0 0 1 1 0 0 0 1 0 85861.dat
1 10071 17.321 -10 -21 0 0 1 1 0 0 0 1 0 85861.dat
1 10071 17.321 10 -21 0 0 1 1 0 0 0 1 0 85861.dat
1 10071 0 20 -21 0 0 1 1 0 0 0 1 0 85861.dat
1 10071 -17.321 10 -21 0 0 1 1 0 0 0 1 0 85861.dat
0 !FADE
