0
0 // LPub3D step custom colours
0 !COLOUR LPub3D_Fade_White CODE 10015 VALUE #F4F4F4 EDGE #33333380 ALPHA 128
0 !COLOUR LPub3D_Fade_Dark_Tan CODE 10028 VALUE #897D62 EDGE #33333380 ALPHA 128
0 !COLOUR LPub3D_Fade_Dark_Bluish_Grey CODE 10072 VALUE #646464 EDGE #33333380 ALPHA 128
0
0 !FADE 50
1 10072 0 0 0 1 0 0 0 1 0 0 0 1 3710.dat
1 10072 0 -8 0 1 0 0 0 1 0 0 0 1 3710.dat
1 10028 0 -32 0 1 0 0 0 1 0 0 0 1 30136.dat
1 10015 30 -32 0 0 0 -1 0 1 0 1 0 0 87087.dat
1 10015 -30 -32 0 0 0 1 0 1 0 -1 0 0 87087.dat
1 10072 0 -40 0 1 0 0 0 1 0 0 0 1 3710.dat
1 10072 0 -48 0 1 0 0 0 1 0 0 0 1 3710.dat
1 10015 -30 -72 0 0 0 1 0 1 0 -1 0 0 87087.dat
1 10028 0 -72 0 1 0 0 0 1 0 0 0 1 30136.dat
1 10015 30 -72 0 0 0 -1 0 1 0 1 0 0 87087.dat
1 10072 -20 -80 0 1 0 0 0 1 0 0 0 1 15573.dat
1 10072 20 -80 0 1 0 0 0 1 0 0 0 1 15573.dat
1 10072 48 -20 0 0 -1 0 -1 0 0 0 0 -1 "75144 - submodel-031-fade.ldr"
1 10072 -48 -20 0 0 1 0 -1 0 0 0 0 1 "75144 - submodel-031-fade.ldr"
0 !FADE
