0
0 // LPub3D step custom colours
0 !COLOUR LPub3D_Highlight_Dark_Bluish_Grey CODE 11072 VALUE #646464 EDGE #FFFFFF00 ALPHA 255
0 !COLOUR LPub3D_Highlight_Light_Bluish_Grey CODE 11071 VALUE #969696 EDGE #FFFFFF00 ALPHA 255
0 !COLOUR LPub3D_Highlight_Metallic_Silver CODE 11080 VALUE #767676 EDGE #FFFFFF00 ALPHA 255
0 !COLOUR LPub3D_Highlight_White CODE 11015 VALUE #F4F4F4 EDGE #FFFFFF00 ALPHA 255
0
0 !SILHOUETTE 1 #FFFFFF00
1 11015 0 0 0 1 0 0 0 1 0 0 0 1 3710.dat
1 11080 20 -8 0 1 0 0 0 1 0 0 0 1 32028.dat
1 11071 -10 -8 0 1 0 0 0 1 0 0 0 1 85861.dat
1 11072 -30 -8 0 1 0 0 0 1 0 0 0 1 15712.dat
1 11080 20 -16 0 1 0 0 0 1 0 0 0 1 2412b.dat
0 !SILHOUETTE
