0
0 // LPub3D step custom colours
0 !COLOUR LPub3D_Fade_Black CODE 1000 VALUE #1B2A34 EDGE #80808080 ALPHA 128
0 !COLOUR LPub3D_Fade_Yellow CODE 10014 VALUE #FAC80A EDGE #33333380 ALPHA 128
0 !COLOUR LPub3D_Fade_Light_Bluish_Grey CODE 10071 VALUE #969696 EDGE #33333380 ALPHA 128
0 !COLOUR LPub3D_Fade_Dark_Bluish_Grey CODE 10072 VALUE #646464 EDGE #33333380 ALPHA 128
0 !COLOUR LPub3D_Fade_Orange CODE 10025 VALUE #D67923 EDGE #33333380 ALPHA 128
0
0 !FADE 50
1 10025 0 0 0 0 0 1 0 -1 0 1 0 0 3021.dat
1 10072 0 -8 30 0 0 1 0 -1 0 1 0 0 11203.dat
1 10025 0 0 50 -1 0 0 0 -1 0 0 0 1 3795.dat
1 10071 0 -8 0 -1 0 0 0 -1 0 0 0 1 3666.dat
1 10014 40 -8 30 0 0 1 0 -1 0 1 0 0 10247.dat
1 10014 -40 -8 30 0 0 1 0 -1 0 1 0 0 10247.dat
1 10072 -40 -16 10 0 0 1 0 -1 0 1 0 0 11203.dat
1 10072 40 -16 10 0 0 1 0 -1 0 1 0 0 11203.dat
1 10025 -40 0 0 -1 0 0 0 -1 0 0 0 1 43723.dat
1 10025 40 0 0 -1 0 0 0 -1 0 0 0 1 43722.dat
1 1000 40 -18 50 0 0 -1 0 -1 0 -1 0 0 6628.dat
1 1000 -40 -18 50 0 0 -1 0 -1 0 -1 0 0 6628.dat
0 !FADE
