0
0 // LPub3D step custom colours
0 !COLOUR LPub3D_Fade_White CODE 10015 VALUE #F4F4F4 EDGE #33333380 ALPHA 128
0 !COLOUR LPub3D_Fade_Yellow CODE 10014 VALUE #FAC80A EDGE #33333380 ALPHA 128
0 !COLOUR LPub3D_Fade_Black CODE 1000 VALUE #1B2A34 EDGE #80808080 ALPHA 128
0 !COLOUR LPub3D_Fade_Red CODE 1004 VALUE #B40000 EDGE #33333380 ALPHA 128
0 !COLOUR LPub3D_Fade_Blue CODE 1001 VALUE #1E5AA8 EDGE #33333380 ALPHA 128
0 !COLOUR LPub3D_Fade_Dark_Bluish_Grey CODE 10072 VALUE #646464 EDGE #33333380 ALPHA 128
0
0 !FADE 50
1 10072 0 0 0 1 0 0 0 1 0 0 0 1 3894.dat
1 1001 -20 10 0 0 0 -1 0 1 0 1 0 0 6558.dat
1 1001 20 10 0 0 0 -1 0 1 0 1 0 0 6558.dat
1 1004 0 0 20 -1 0 0 0 1 0 0 0 -1 3701.dat
1 1000 0 0 -90 0 0 1 0 1 0 -1 0 0 32532.dat
1 1001 50 10 -130 -1 0 0 0 1 0 0 0 -1 6558.dat
1 1001 -50 10 -130 1 0 0 0 -1 0 0 0 -1 6558.dat
1 1000 60 10 -50 1 0 0 0 -1 0 0 0 -1 2780.dat
1 1000 -60 10 -50 1 0 0 0 -1 0 0 0 -1 2780.dat
1 10014 70 0 -70 0 0 1 0 1 0 -1 0 0 3702.dat
1 10014 -70 0 -70 0 0 1 0 1 0 -1 0 0 3702.dat
1 10015 -30 0 -130 0 0 1 0 1 0 -1 0 0 3700.dat
1 10015 30 0 -130 0 0 1 0 1 0 -1 0 0 3700.dat
0 !FADE
