0
0 // LPub3D step custom colours
0 !COLOUR LPub3D_Fade_Dark_Bluish_Grey CODE 10072 VALUE #646464 EDGE #33333380 ALPHA 128
0 !COLOUR LPub3D_Fade_Light_Bluish_Grey CODE 10071 VALUE #969696 EDGE #33333380 ALPHA 128
0 !COLOUR LPub3D_Fade_Metallic_Silver CODE 10080 VALUE #767676 EDGE #33333380 ALPHA 128
0 !COLOUR LPub3D_Fade_White CODE 10015 VALUE #F4F4F4 EDGE #33333380 ALPHA 128
0
0 !FADE 50
1 10015 0 0 0 1 0 0 0 1 0 0 0 1 3710.dat
1 10080 20 -8 0 -1 0 0 0 1 0 0 0 -1 32028.dat
1 10071 -10 -8 0 -1 0 0 0 1 0 0 0 -1 85861.dat
1 10072 -30 -8 0 -1 0 0 0 1 0 0 0 -1 15712.dat
1 10080 20 -16 0 -1 0 0 0 1 0 0 0 -1 2412b.dat
0 !FADE
