1 25 0 -32 -30 0 0 -1 0 1 0 1 0 0 973ps1.dat
1 148 0 -56 -30 0 0 -1 0 1 0 1 0 0 30370.dat
1 78 0 -56 -30 0 0 -1 0 1 0 1 0 0 3626bp68.dat
1 25 0 -23 -14.448 -0.12 0.697 -0.707 -0.12 0.697 0.707 0.985 0.17 0 3819.dat
1 25 0 -23 -45.552 0 0 -1 0.17 0.985 0 0.985 -0.17 0 3818.dat
1 15 9.884 -5.24 -53.688 0 -0.707 -0.707 0.17 0.697 -0.697 0.985 -0.12 0.12 3820.dat
1 15 19.547 -17.431 -6.312 -0.119 0.022 -0.993 0.122 0.992 0.007 0.985 -0.12 -0.12 3820.dat
1 25 0 0 -30 0 0 -1 0 1 0 1 0 0 3815c01.dat
1 15 35.266 -17.347 -4.436 -0.966 0.119 0.228 -0.241 -0.121 -0.962 -0.086 -0.984 0.146 30304.dat
