0
0 // LPub3D step custom colours
0 !COLOUR LPub3D_Fade_Yellow CODE 10014 VALUE #FAC80A EDGE #33333380 ALPHA 128
0 !COLOUR LPub3D_Fade_Blue CODE 1001 VALUE #1E5AA8 EDGE #33333380 ALPHA 128
0 !COLOUR LPub3D_Fade_Light_Bluish_Grey CODE 10071 VALUE #969696 EDGE #33333380 ALPHA 128
0
0 !FADE 50
1 10071 0 0 0 1 0 0 0 1 0 0 0 1 60208.dat
1 1001 -17.321 -10 -20 0 0 1 0 1 0 -1 0 0 6558.dat
1 1001 17.321 10 -20 0 0 1 0 1 0 -1 0 0 6558.dat
1 10071 0 0 -20 0.866 -0.5 0 0.5 0.866 0 0 0 1 98585.dat
1 10014 -12.321 -18.66 -40 0.866 -0.5 0 0.5 0.866 0 0 0 1 6541.dat
1 10014 22.321 1.34 -40 0.866 -0.5 0 0.5 0.866 0 0 0 1 6541.dat
0 !FADE
