0
0 // LPub3D step custom colours
0 !COLOUR LPub3D_Highlight_Reddish_Brown CODE 11070 VALUE #5F3109 EDGE #FFFFFF00 ALPHA 255
0 !COLOUR LPub3D_Highlight_Blue CODE 1101 VALUE #1E5AA8 EDGE #FFFFFF00 ALPHA 255
0 !COLOUR LPub3D_Highlight_Dark_Bluish_Grey CODE 11072 VALUE #646464 EDGE #FFFFFF00 ALPHA 255
0
0 !SILHOUETTE 1 #FFFFFF00
1 11072 0 0 0 1 0 0 0 1 0 0 0 1 32000.dat
1 1101 10 10 -10 0 0 1 0 1 0 -1 0 0 4274.dat
1 11070 -10 -8 0 0 0 1 0 1 0 -1 0 0 98138.dat
1 11070 10 10 -18 0 0 1 1 0 0 0 1 0 98138.dat
0 !SILHOUETTE
