0
0 // LPub3D step custom colours
0 !COLOUR LPub3D_Highlight_Black CODE 1100 VALUE #1B2A34 EDGE #FFFFFF00 ALPHA 255
0 !COLOUR LPub3D_Highlight_Yellow CODE 11014 VALUE #FAC80A EDGE #FFFFFF00 ALPHA 255
0 !COLOUR LPub3D_Highlight_Light_Bluish_Grey CODE 11071 VALUE #969696 EDGE #FFFFFF00 ALPHA 255
0 !COLOUR LPub3D_Highlight_Metallic_Silver CODE 11080 VALUE #767676 EDGE #FFFFFF00 ALPHA 255
0
0 !SILHOUETTE 1 #FFFFFF00
1 11080 0 0 0 0 -1 0 1 0 0 0 0 1 4589.dat
1 11071 8 0 0 0 -1 0 1 0 0 0 0 1 3957b.dat
1 11014 17 0 0 0 0 -1 1 0 0 0 -1 0 32123a.dat
1 11080 26 0 0 0 0 1 1 0 0 0 1 0 32187.dat
1 11080 44 0 0 0 0 -1 1 0 0 0 -1 0 32187.dat
1 11014 53 0 0 0 0 -1 1 0 0 0 -1 0 32123a.dat
1 11071 82 0 0 -1 0 0 0 1 0 0 0 -1 "75144 - submodel-076-highlight.ldr"
1 1100 102 0 0 -1 0 0 0 0 -1 0 -1 0 2780.dat
1 11071 122 0 0 -1 0 0 0 1 0 0 0 -1 "75144 - submodel-076-highlight.ldr"
1 1100 152 0 0 1 0 0 0 0 1 0 -1 0 18651.dat
0 !SILHOUETTE
