1 72 0 0 0 1 0 0 0 1 0 0 0 1 4185.dat
1 72 0 0 -8 1 0 0 0 1 0 0 0 1 4185.dat
1 1 -17.321 -10 -13 0 0 1 0 1 0 -1 0 0 4274.dat
1 1 0 -20 -13 0 0 1 0 1 0 -1 0 0 4274.dat
1 1 17.321 -10 -13 0 0 1 0 1 0 -1 0 0 4274.dat
1 1 17.321 10 -13 0 0 1 0 1 0 -1 0 0 4274.dat
1 1 0 20 -13 0 0 1 0 1 0 -1 0 0 4274.dat
1 1 -17.321 10 -13 0 0 1 0 1 0 -1 0 0 4274.dat
1 71 -17.321 -10 -21 0 0 1 1 0 0 0 1 0 85861.dat
1 71 0 -20 -21 0 0 1 1 0 0 0 1 0 85861.dat
1 71 17.321 -10 -21 0 0 1 1 0 0 0 1 0 85861.dat
1 71 17.321 10 -21 0 0 1 1 0 0 0 1 0 85861.dat
1 71 0 20 -21 0 0 1 1 0 0 0 1 0 85861.dat
1 71 -17.321 10 -21 0 0 1 1 0 0 0 1 0 85861.dat
