0
0 // LPub3D step custom colours
0 !COLOUR LPub3D_Highlight_Dark_Bluish_Grey CODE 11072 VALUE #646464 EDGE #FFFFFF00 ALPHA 255
0 !COLOUR LPub3D_Highlight_Blue CODE 1101 VALUE #1E5AA8 EDGE #FFFFFF00 ALPHA 255
0 !COLOUR LPub3D_Highlight_Black CODE 1100 VALUE #1B2A34 EDGE #FFFFFF00 ALPHA 255
0 !COLOUR LPub3D_Highlight_Light_Bluish_Grey CODE 11071 VALUE #969696 EDGE #FFFFFF00 ALPHA 255
0
0 !SILHOUETTE 1 #FFFFFF00
1 11071 0 0 0 -1 0 0 0 -1 0 0 0 1 62462.dat
1 1100 -20 0 0 -1 0 0 0 -1 0 0 0 1 2780.dat
1 1100 20 0 0 -1 0 0 0 -1 0 0 0 1 2780.dat
1 11071 40 0 0 -1 0 0 0 -1 0 0 0 1 62462.dat
1 11071 -40 0 0 -1 0 0 0 -1 0 0 0 1 62462.dat
1 1100 -60 0 0 -1 0 0 0 -1 0 0 0 1 2780.dat
1 1100 60 0 0 -1 0 0 0 -1 0 0 0 1 2780.dat
1 11071 -80 0 0 -1 0 0 0 -1 0 0 0 1 62462.dat
1 11071 80 0 0 -1 0 0 0 -1 0 0 0 1 62462.dat
1 1101 -100 0 0 -1 0 0 0 -1 0 0 0 1 43093.dat
1 1101 100 0 0 1 0 0 0 -1 0 0 0 -1 43093.dat
1 11072 120 0 0 0 0 1 0 -1 0 1 0 0 59443.dat
0 !SILHOUETTE
