0
0 // LPub3D step custom colours
0 !COLOUR LPub3D_Highlight_Black CODE 1100 VALUE #1B2A34 EDGE #FFFFFF00 ALPHA 255
0 !COLOUR LPub3D_Highlight_Yellow CODE 11014 VALUE #FAC80A EDGE #FFFFFF00 ALPHA 255
0 !COLOUR LPub3D_Highlight_Light_Bluish_Grey CODE 11071 VALUE #969696 EDGE #FFFFFF00 ALPHA 255
0 !COLOUR LPub3D_Highlight_Dark_Bluish_Grey CODE 11072 VALUE #646464 EDGE #FFFFFF00 ALPHA 255
0 !COLOUR LPub3D_Highlight_Orange CODE 11025 VALUE #D67923 EDGE #FFFFFF00 ALPHA 255
0
0 !SILHOUETTE 1 #FFFFFF00
1 11025 0 0 0 0 0 1 0 -1 0 1 0 0 3021.dat
1 11072 0 -8 30 0 0 1 0 -1 0 1 0 0 11203.dat
1 11025 0 0 50 -1 0 0 0 -1 0 0 0 1 3795.dat
1 11071 0 -8 0 -1 0 0 0 -1 0 0 0 1 3666.dat
1 11014 40 -8 30 0 0 1 0 -1 0 1 0 0 10247.dat
1 11014 -40 -8 30 0 0 1 0 -1 0 1 0 0 10247.dat
1 11072 -40 -16 10 0 0 1 0 -1 0 1 0 0 11203.dat
1 11072 40 -16 10 0 0 1 0 -1 0 1 0 0 11203.dat
1 11025 -40 0 0 -1 0 0 0 -1 0 0 0 1 43723.dat
1 11025 40 0 0 -1 0 0 0 -1 0 0 0 1 43722.dat
1 1100 40 -18 50 0 0 -1 0 -1 0 -1 0 0 6628.dat
1 1100 -40 -18 50 0 0 -1 0 -1 0 -1 0 0 6628.dat
0 !SILHOUETTE
