0
0 // LPub3D step custom colours
0 !COLOUR LPub3D_Highlight_White CODE 11015 VALUE #F4F4F4 EDGE #FFFFFF00 ALPHA 255
0 !COLOUR LPub3D_Highlight_Yellow CODE 11014 VALUE #FAC80A EDGE #FFFFFF00 ALPHA 255
0 !COLOUR LPub3D_Highlight_Black CODE 1100 VALUE #1B2A34 EDGE #FFFFFF00 ALPHA 255
0 !COLOUR LPub3D_Highlight_Red CODE 1104 VALUE #B40000 EDGE #FFFFFF00 ALPHA 255
0 !COLOUR LPub3D_Highlight_Blue CODE 1101 VALUE #1E5AA8 EDGE #FFFFFF00 ALPHA 255
0 !COLOUR LPub3D_Highlight_Dark_Bluish_Grey CODE 11072 VALUE #646464 EDGE #FFFFFF00 ALPHA 255
0
0 !SILHOUETTE 1 #FFFFFF00
1 11072 0 0 0 1 0 0 0 1 0 0 0 1 3894.dat
1 1101 -20 10 0 0 0 -1 0 1 0 1 0 0 6558.dat
1 1101 20 10 0 0 0 -1 0 1 0 1 0 0 6558.dat
1 1104 0 0 20 -1 0 0 0 1 0 0 0 -1 3701.dat
1 1100 0 0 -90 0 0 1 0 1 0 -1 0 0 32532.dat
1 1101 50 10 -130 -1 0 0 0 1 0 0 0 -1 6558.dat
1 1101 -50 10 -130 1 0 0 0 -1 0 0 0 -1 6558.dat
1 1100 60 10 -50 1 0 0 0 -1 0 0 0 -1 2780.dat
1 1100 -60 10 -50 1 0 0 0 -1 0 0 0 -1 2780.dat
1 11014 70 0 -70 0 0 1 0 1 0 -1 0 0 3702.dat
1 11014 -70 0 -70 0 0 1 0 1 0 -1 0 0 3702.dat
1 11015 -30 0 -130 0 0 1 0 1 0 -1 0 0 3700.dat
1 11015 30 0 -130 0 0 1 0 1 0 -1 0 0 3700.dat
0 !SILHOUETTE
