0
0 // LPub3D step custom colours
0 !COLOUR LPub3D_Fade_Black CODE 1000 VALUE #1B2A34 EDGE #80808080 ALPHA 128
0 !COLOUR LPub3D_Fade_Yellow CODE 10014 VALUE #FAC80A EDGE #33333380 ALPHA 128
0 !COLOUR LPub3D_Fade_Light_Bluish_Grey CODE 10071 VALUE #969696 EDGE #33333380 ALPHA 128
0 !COLOUR LPub3D_Fade_Metallic_Silver CODE 10080 VALUE #767676 EDGE #33333380 ALPHA 128
0
0 !FADE 50
1 10080 0 0 0 0 -1 0 1 0 0 0 0 1 4589.dat
1 10071 8 0 0 0 -1 0 1 0 0 0 0 1 3957b.dat
1 10014 17 0 0 0 0 -1 1 0 0 0 -1 0 32123a.dat
1 10080 26 0 0 0 0 1 1 0 0 0 1 0 32187.dat
1 10080 44 0 0 0 0 -1 1 0 0 0 -1 0 32187.dat
1 10014 53 0 0 0 0 -1 1 0 0 0 -1 0 32123a.dat
1 10071 82 0 0 -1 0 0 0 1 0 0 0 -1 "75144 - submodel-076-fade.ldr"
1 1000 102 0 0 -1 0 0 0 0 -1 0 -1 0 2780.dat
1 10071 122 0 0 -1 0 0 0 1 0 0 0 -1 "75144 - submodel-076-fade.ldr"
1 1000 152 0 0 1 0 0 0 0 1 0 -1 0 18651.dat
0 !FADE
