0
0 // LPub3D step custom colours
0 !COLOUR LPub3D_Highlight_Metallic_Silver CODE 11080 VALUE #767676 EDGE #FFFFFF00 ALPHA 255
0 !COLOUR LPub3D_Highlight_Dark_Bluish_Grey CODE 11072 VALUE #646464 EDGE #FFFFFF00 ALPHA 255
0 !COLOUR LPub3D_Highlight_Light_Bluish_Grey CODE 11071 VALUE #969696 EDGE #FFFFFF00 ALPHA 255
0 !COLOUR LPub3D_Highlight_White CODE 11015 VALUE #F4F4F4 EDGE #FFFFFF00 ALPHA 255
0
0 !SILHOUETTE 1 #FFFFFF00
1 11015 0 0 0 0 0 1 0 1 0 -1 0 0 2419.dat
1 11015 10 -8 -20 0 0 1 0 1 0 -1 0 0 87079.dat
1 11015 -50 -8 -20 -1 0 0 0 1 0 0 0 -1 30503.dat
1 11015 -50 0 -50 -1 0 0 0 1 0 0 0 -1 2419.dat
1 11015 -30 -8 -70 -1 0 0 0 1 0 0 0 -1 6636.dat
1 11015 -30 8 -20 -1 0 0 0 1 0 0 0 -1 30503.dat
1 11071 -30 8 -70 1 0 0 0 1 0 0 0 1 "75144 - 14704.dat"
1 11072 -30 16 -60 1 0 0 0 1 0 0 0 1 11203.dat
1 11080 0 16 10 0 0 -1 0 1 0 1 0 0 93555.dat
1 11080 0 16 -10 0 0 -1 0 1 0 1 0 0 93555.dat
1 11080 0 16 -30 0 0 -1 0 1 0 1 0 0 93555.dat
0 !SILHOUETTE
