0
0 // LPub3D step custom colours
0 !COLOUR LPub3D_Highlight_Black CODE 1100 VALUE #1B2A34 EDGE #FFFFFF00 ALPHA 255
0 !COLOUR LPub3D_Highlight_Light_Nougat CODE 11078 VALUE #FFC995 EDGE #FFFFFF00 ALPHA 255
0 !COLOUR LPub3D_Highlight_White CODE 11015 VALUE #F4F4F4 EDGE #FFFFFF00 ALPHA 255
0 !COLOUR LPub3D_Highlight_Orange CODE 11025 VALUE #D67923 EDGE #FFFFFF00 ALPHA 255
0
0 !SILHOUETTE 1 #FFFFFF00
1 11025 0 -32 -30 0 0 -1 0 1 0 1 0 0 973ps1-highlight.dat
1 11015 0 -56 -30 0 0 -1 0 1 0 1 0 0 30370ps2-highlight.dat
1 11078 0 -56 -30 0 0 -1 0 1 0 1 0 0 3626bp68-highlight.dat
1 11025 0 -23 -14.448 -0.12 0.697 -0.707 -0.12 0.697 0.707 0.985 0.17 0 3819.dat
1 11025 0 -23 -45.552 0 0 -1 0.17 0.985 0 0.985 -0.17 0 3818.dat
1 11015 9.884 -5.24 -53.688 0 -0.707 -0.707 0.17 0.697 -0.697 0.985 -0.12 0.12 3820.dat
1 11015 19.547 -17.431 -6.312 -0.118 0.022 -0.993 0.122 0.993 0.007 0.985 -0.12 -0.12 3820.dat
1 11025 0 0 -30 0 0 -1 0 1 0 1 0 0 3815c01.dat
1 1100 29.923 -20.725 -4.66 -0.118 -0.227 -0.967 0.122 0.963 -0.242 0.985 -0.146 -0.086 "75144 - 92738.dat"
0 !SILHOUETTE
