0
0 // LPub3D step custom colours
0 !COLOUR LPub3D_Highlight_Dark_Red CODE 110320 VALUE #720012 EDGE #FFFFFF00 ALPHA 255
0 !COLOUR LPub3D_Highlight_Metallic_Silver CODE 11080 VALUE #767676 EDGE #FFFFFF00 ALPHA 255
0 !COLOUR LPub3D_Highlight_Black CODE 1100 VALUE #1B2A34 EDGE #FFFFFF00 ALPHA 255
0 !COLOUR LPub3D_Highlight_Dark_Bluish_Grey CODE 11072 VALUE #646464 EDGE #FFFFFF00 ALPHA 255
0
0 !SILHOUETTE 1 #FFFFFF00
1 11072 0 0 0 0 0 -1 0 1 0 1 0 0 87087.dat
1 1100 18 10 0 0 -1 0 1 0 0 0 0 1 3024.dat
1 11080 26 10 0 0 -1 0 1 0 0 0 0 1 6141.dat
1 110320 34 10 0 0 -1 0 1 0 0 0 0 1 98138.dat
0 !SILHOUETTE
