0
0 // LPub3D step custom colours
0 !COLOUR LPub3D_Fade_Dark_Bluish_Grey CODE 10072 VALUE #646464 EDGE #33333380 ALPHA 128
0 !COLOUR LPub3D_Fade_Blue CODE 1001 VALUE #1E5AA8 EDGE #33333380 ALPHA 128
0 !COLOUR LPub3D_Fade_Black CODE 1000 VALUE #1B2A34 EDGE #80808080 ALPHA 128
0 !COLOUR LPub3D_Fade_Light_Bluish_Grey CODE 10071 VALUE #969696 EDGE #33333380 ALPHA 128
0
0 !FADE 50
1 10071 0 0 0 -1 0 0 0 -1 0 0 0 1 62462.dat
1 1000 -20 0 0 -1 0 0 0 -1 0 0 0 1 2780.dat
1 1000 20 0 0 -1 0 0 0 -1 0 0 0 1 2780.dat
1 10071 40 0 0 -1 0 0 0 -1 0 0 0 1 62462.dat
1 10071 -40 0 0 -1 0 0 0 -1 0 0 0 1 62462.dat
1 1000 -60 0 0 -1 0 0 0 -1 0 0 0 1 2780.dat
1 1000 60 0 0 -1 0 0 0 -1 0 0 0 1 2780.dat
1 10071 -80 0 0 -1 0 0 0 -1 0 0 0 1 62462.dat
1 10071 80 0 0 -1 0 0 0 -1 0 0 0 1 62462.dat
1 1001 -100 0 0 -1 0 0 0 -1 0 0 0 1 43093.dat
1 1001 100 0 0 1 0 0 0 -1 0 0 0 -1 43093.dat
1 10072 120 0 0 0 0 1 0 -1 0 1 0 0 59443.dat
0 !FADE
