0
0 // LPub3D step custom colours
0 !COLOUR LPub3D_Highlight_Yellow CODE 11014 VALUE #FAC80A EDGE #FFFFFF00 ALPHA 255
0 !COLOUR LPub3D_Highlight_Blue CODE 1101 VALUE #1E5AA8 EDGE #FFFFFF00 ALPHA 255
0 !COLOUR LPub3D_Highlight_Light_Bluish_Grey CODE 11071 VALUE #969696 EDGE #FFFFFF00 ALPHA 255
0
0 !SILHOUETTE 1 #FFFFFF00
1 11071 0 0 0 1 0 0 0 1 0 0 0 1 60208.dat
1 1101 -17.321 -10 -20 0 0 1 0 1 0 -1 0 0 6558.dat
1 1101 17.321 10 -20 0 0 1 0 1 0 -1 0 0 6558.dat
1 11071 0 0 -20 0.866 -0.5 0 0.5 0.866 0 0 0 1 98585.dat
1 11014 -12.321 -18.66 -40 0.866 -0.5 0 0.5 0.866 0 0 0 1 6541.dat
1 11014 22.321 1.34 -40 0.866 -0.5 0 0.5 0.866 0 0 0 1 6541.dat
0 !SILHOUETTE
