0
0 // LPub3D step custom colours
0 !COLOUR LPub3D_Highlight_Black CODE 1100 VALUE #1B2A34 EDGE #FFFFFF00 ALPHA 255
0 !COLOUR LPub3D_Highlight_Metallic_Silver CODE 11080 VALUE #767676 EDGE #FFFFFF00 ALPHA 255
0 !COLOUR LPub3D_Highlight_Dark_Bluish_Grey CODE 11072 VALUE #646464 EDGE #FFFFFF00 ALPHA 255
0
0 !SILHOUETTE 1 #FFFFFF00
1 11072 0 16 0 1 0 0 0 1 0 0 0 1 11203.dat
1 11080 -10 8 10 1 0 0 0 1 0 0 0 1 6141.dat
1 11080 10 8 10 1 0 0 0 1 0 0 0 1 6141.dat
1 1100 0 8 -10 1 0 0 0 1 0 0 0 1 11476.dat
1 1100 0 0 0 0 0 1 0 1 0 -1 0 0 "75144 - 92582.dat"
1 1100 0 10 -30 -1 0 0 0 -1 0 0 0 1 98397.dat
0 !SILHOUETTE
