0
0 // LPub3D step custom colours
0 !COLOUR LPub3D_Highlight_Dark_Bluish_Grey CODE 11072 VALUE #646464 EDGE #FFFFFF00 ALPHA 255
0 !COLOUR LPub3D_Highlight_Dark_Tan CODE 11028 VALUE #897D62 EDGE #FFFFFF00 ALPHA 255
0 !COLOUR LPub3D_Highlight_Light_Bluish_Grey CODE 11071 VALUE #969696 EDGE #FFFFFF00 ALPHA 255
0
0 !SILHOUETTE 1 #FFFFFF00
1 11071 0 0 0 0 0 -1 0 1 0 1 0 0 3020.dat
1 11028 10 -8 20 0 0 -1 0 1 0 1 0 0 3023.dat
1 11028 -10 -8 20 0 0 -1 0 1 0 1 0 0 3023.dat
1 11072 0 -8 -10 -1 0 0 0 1 0 0 0 -1 15573.dat
1 11071 0 8 -40 1 0 0 0 1 0 0 0 1 15068.dat
0 !SILHOUETTE
