0
0 // LPub3D step custom colours
0 !COLOUR LPub3D_Highlight_Dark_Bluish_Grey CODE 11072 VALUE #646464 EDGE #FFFFFF00 ALPHA 255
0 !COLOUR LPub3D_Highlight_Black CODE 1100 VALUE #1B2A34 EDGE #FFFFFF00 ALPHA 255
0 !COLOUR LPub3D_Highlight_Blue CODE 1101 VALUE #1E5AA8 EDGE #FFFFFF00 ALPHA 255
0
0 !SILHOUETTE 1 #FFFFFF00
1 1101 0 0 0 1 0 0 0 1 0 0 0 1 3022.dat
1 1100 10 -8 10 1 0 0 0 1 0 0 0 1 63864.dat
1 1100 10 -8 -10 1 0 0 0 1 0 0 0 1 63864.dat
1 11072 40 0 0 0 0 -1 0 1 0 1 0 0 43719.dat
0 !SILHOUETTE
