1 71 0 0 0 -1 0 0 0 -1 0 0 0 1 62462.dat
1 0 -20 0 0 -1 0 0 0 -1 0 0 0 1 2780.dat
1 0 20 0 0 -1 0 0 0 -1 0 0 0 1 2780.dat
1 71 40 0 0 -1 0 0 0 -1 0 0 0 1 62462.dat
1 71 -40 0 0 -1 0 0 0 -1 0 0 0 1 62462.dat
1 0 -60 0 0 -1 0 0 0 -1 0 0 0 1 2780.dat
1 0 60 0 0 -1 0 0 0 -1 0 0 0 1 2780.dat
1 71 -80 0 0 -1 0 0 0 -1 0 0 0 1 62462.dat
1 71 80 0 0 -1 0 0 0 -1 0 0 0 1 62462.dat
1 1 -100 0 0 -1 0 0 0 -1 0 0 0 1 43093.dat
1 1 100 0 0 1 0 0 0 -1 0 0 0 -1 43093.dat
1 72 120 0 0 0 0 1 0 -1 0 1 0 0 59443.dat
