0
0 // LPub3D step custom colours
0 !COLOUR LPub3D_Highlight_White CODE 11015 VALUE #F4F4F4 EDGE #FFFFFF00 ALPHA 255
0 !COLOUR LPub3D_Highlight_Dark_Tan CODE 11028 VALUE #897D62 EDGE #FFFFFF00 ALPHA 255
0 !COLOUR LPub3D_Highlight_Dark_Bluish_Grey CODE 11072 VALUE #646464 EDGE #FFFFFF00 ALPHA 255
0
0 !SILHOUETTE 1 #FFFFFF00
1 11072 0 0 0 1 0 0 0 1 0 0 0 1 3710.dat
1 11072 0 -8 0 1 0 0 0 1 0 0 0 1 3710.dat
1 11028 0 -32 0 1 0 0 0 1 0 0 0 1 30136.dat
1 11015 30 -32 0 0 0 -1 0 1 0 1 0 0 87087.dat
1 11015 -30 -32 0 0 0 1 0 1 0 -1 0 0 87087.dat
1 11072 0 -40 0 1 0 0 0 1 0 0 0 1 3710.dat
1 11072 0 -48 0 1 0 0 0 1 0 0 0 1 3710.dat
1 11015 -30 -72 0 0 0 1 0 1 0 -1 0 0 87087.dat
1 11028 0 -72 0 1 0 0 0 1 0 0 0 1 30136.dat
1 11015 30 -72 0 0 0 -1 0 1 0 1 0 0 87087.dat
1 11072 -20 -80 0 1 0 0 0 1 0 0 0 1 15573.dat
1 11072 20 -80 0 1 0 0 0 1 0 0 0 1 15573.dat
1 11072 48 -20 0 0 -1 0 -1 0 0 0 0 -1 "75144 - submodel-031-highlight.ldr"
1 11072 -48 -20 0 0 1 0 -1 0 0 0 0 1 "75144 - submodel-031-highlight.ldr"
0 !SILHOUETTE
