0
0 // LPub3D step custom colours
0 !COLOUR LPub3D_Highlight_Light_Bluish_Grey CODE 11071 VALUE #969696 EDGE #FFFFFF00 ALPHA 255
0 !COLOUR LPub3D_Highlight_Dark_Bluish_Grey CODE 11072 VALUE #646464 EDGE #FFFFFF00 ALPHA 255
0 !COLOUR LPub3D_Highlight_Black CODE 1100 VALUE #1B2A34 EDGE #FFFFFF00 ALPHA 255
0
0 !SILHOUETTE 1 #FFFFFF00
1 1100 0 0 0 -1 0 0 0 -1 0 0 0 1 87079.dat
1 1100 0 0 -30 -1 0 0 0 -1 0 0 0 1 2431.dat
1 11072 0 -8 -10 0 0 -1 0 -1 0 -1 0 0 3021.dat
1 11071 30 -8 -20 0 0 -1 0 -1 0 -1 0 0 63868.dat
1 11071 -30 -8 -20 0 0 -1 0 -1 0 -1 0 0 63868.dat
1 11071 20 -16 -10 1 0 0 0 -1 0 0 0 -1 6134.dat
1 11071 -20 -16 -10 1 0 0 0 -1 0 0 0 -1 6134.dat
0 !SILHOUETTE
