0
0 // LPub3D step custom colours
0 !COLOUR LPub3D_Fade_Black CODE 1000 VALUE #1B2A34 EDGE #80808080 ALPHA 128
0 !COLOUR LPub3D_Fade_Metallic_Silver CODE 10080 VALUE #767676 EDGE #33333380 ALPHA 128
0 !COLOUR LPub3D_Fade_Dark_Bluish_Grey CODE 10072 VALUE #646464 EDGE #33333380 ALPHA 128
0
0 !FADE 50
1 10072 0 16 0 1 0 0 0 1 0 0 0 1 11203.dat
1 10080 -10 8 10 1 0 0 0 1 0 0 0 1 6141.dat
1 10080 10 8 10 1 0 0 0 1 0 0 0 1 6141.dat
1 1000 0 8 -10 1 0 0 0 1 0 0 0 1 11476.dat
1 1000 0 0 0 0 0 1 0 1 0 -1 0 0 "75144 - 92582.dat"
1 1000 0 10 -30 -1 0 0 0 -1 0 0 0 1 98397.dat
0 !FADE
